<svg xmlns="http://www.w3.org/2000/svg" xmlns:xlink="http://www.w3.org/1999/xlink" width="355" height="447" fill="none"><path d="M352.2 408.13c-.84-3.14-1.68-6.32-3.35-9.05a31.37 31.37 0 00-5.5-6.23c-6.07-5.71-13.53-11.51-21.58-10.07-2.49.57-4.9 1.48-7.15 2.7a54.55 54.55 0 01-3.57 1.61 17.16 17.16 0 01-10.74.98c-1.84-.52-3.56-1.44-5.38-2.01a16.59 16.59 0 00-2.64-.6 44.52 44.52 0 005.1-2.78c9.04-5.73 16.25-16.09 15.24-27.17-.34-3.73-1.57-7.3-2.8-10.81l-3.22-9.23c-1.39-3.99-2.83-8.06-5.37-11.38-2.82-3.7-6.84-6.2-11-8.08-8.92-4.02-18.68-5.43-28.3-6.8l-.67-.1v-107.8a7.08 7.08 0 00-1.97-4.9 6.59 6.59 0 00-4.74-2.04h-12.65l-1.68-10.61c-1.59-10.08-3.24-20.35-7.72-29.42-2.94-5.94-7.6-11.61-13.9-12.78a13.11 13.11 0 01-3.6-.87c-1.85-.93-2.86-3.02-4.27-4.56-3.66-3.96-9.6-4.03-14.5-6.07-4.31-1.78-7.85-5.14-11.79-7.72s-8.83-4.4-13.19-2.73c0 .33-.06.66-.1.98l-2.79-1.34c-3.02-1.45-6.1-2.93-8.51-5.31-3.11-3.04-4.77-7.07-6.06-11.35l-.4-1.35a40.82 40.82 0 0010.43-20.62l.68 2.28a15.42 15.42 0 00.53 1.51 5.95 5.95 0 001.68 2.46 2.94 2.94 0 00.7.42c.24.1.48.16.72.2a2.59 2.59 0 001.04-.08 3.93 3.93 0 001.52-.91c.44-.42.78-.93 1-1.5a5.31 5.31 0 00.29-1.07 5.61 5.61 0 00.06-.66v-.9c0-.09 0-.29-.04-.43v-.23c0-.17-.05-.34-.09-.51s0-.1 0-.14l-.13-.66v-.16c0-.06-.08-.36-.12-.54l-.08-.36v-.05l-.24-1.03a30.9 30.9 0 01-.46-9.17c.5-4.5 1.3-8.95 2.4-13.33l.17-.8.2-.91.4-1.89.3-1.6.22-1.42v-.18a42.65 42.65 0 00.3-9.75c-.4-4.55-1.75-8.84-4.73-12.27-2.1-2.42-4.87-4.2-6.82-6.75-1.83-2.38-2.86-5.32-4.76-7.65C153.35 6.07 139.92 1.08 131.68.2c-9.43-.99-24.67 1.52-32.28 7.29-2.82 2.13-4.74 5.21-6.7 8.13-3.6 5.43-7.7 10.84-13.47 13.9-2.18 1.14-4.68 2-6.13 4a11.09 11.09 0 00-1.63 4.5 92.33 92.33 0 00-1.73 17.18v2.17a16.32 16.32 0 001.31 6.28 12.06 12.06 0 00.44.87l.1.18a34.84 34.84 0 012.69 4.73 6.44 6.44 0 01.4 1.45c.15 1.27.07 2.56-.23 3.8 0 .19-.07.38-.1.57l-.08.38c0 .13 0 .26-.07.38-.07.37-.12.74-.17 1.11a8.09 8.09 0 00.18 3 4.02 4.02 0 00.66 1.51 3.86 3.86 0 001.2 1.1 5.31 5.31 0 001.5.49c.54.1 1.07.15 1.6.27.66.16 1.3.41 1.91.74a7.7 7.7 0 011.62 1.08c.24.23.47.47.7.73a12.15 12.15 0 011.18 1.68 15.05 15.05 0 01.5.94c.6 1.26 1.09 2.57 1.44 3.93a35.34 35.34 0 01.56 2.44c.08.36.14.73.2 1.08l.17 1.08a2.36 2.36 0 00.67-.14c1.23-.46 1.92-1.95 2.3-3.39a12.61 12.61 0 00.18-.71l.59-2.74a39.8 39.8 0 0015.29 17.46c.23.72.46 1.43.66 2.16 1.1 3.94 1.63 8.05-.28 11.5-1.35 2.43-3.63 3.93-6.18 4.98-.37-.51-.84-.93-1.38-1.22-2.2-1.15-4.86.24-6.7 1.95-3.36 3.15-6.1 7.65-10.5 8.69-1.59.38-3.35.3-4.67 1.3a11.26 11.26 0 00-2.17 2.96c-.96 1.43-2.25 2.58-3.74 3.35s-3.16 1.15-4.84 1.08c-1.53-.08-3.35-.44-4.4.72-.77.87-.83 2.24-1.67 3.07-1.12 1.14-2.97.59-4.53.52-2.99-.13-5.76 1.86-7.46 4.43s-2.52 5.62-3.35 8.68v.05c-.22.16-.42.34-.62.53a9.22 9.22 0 00-1.85 3.11A152.84 152.84 0 0031 216.07c.01.85-.17 1.69-.54 2.44-.37.5-.79.97-1.23 1.4a4.93 4.93 0 00-.87 1.7 5.04 5.04 0 00-.16 1.94 5 5 0 00.58 1.84c.31.57.73 1.06 1.23 1.46.24-.45.54-.87.9-1.23a18.76 18.76 0 00-.24 1.14 31.93 31.93 0 00-.1 7.65l2.41 36.17.76 10.22a259.92 259.92 0 002.51 19.68c.05.3.11.6.18.87-6.82 2.25-12.9 6.31-15.46 13.1-.88 2.34-1.29 4.9-2.38 7.14-1.2 2.47-3.16 4.44-4.47 6.86-2.25 4.15-2.36 9.24-1.53 13.89 1.58 9.07 6.31 17.19 12.57 23.79h-.84c-2.04.23-4 .96-5.72 2.12-13.22 8-20.78 25.18-18.03 40.87.55 3.06 1.5 6.17 3.47 8.5a12.93 12.93 0 006.1 3.88c1.47.46 2.98.75 4.5.87 10.31.87 20.29-4.08 30.62-4.5 3.42-.06 6.85.1 10.25.5 4.98.42 9.96.7 14.96.81 8.12.2 12.68-2.04 17.86-8.33a22.8 22.8 0 003.16-5.16c4.4-.26 9.28-.66 12.8-.95l.04.5c.2 1.74.5 3.74 1.83 4.83.76.54 1.61.9 2.52 1.07 8.46 2.15 17.02 4.34 25.74 4.34a104.91 104.91 0 0012.22-.97l15.31-1.83a73.96 73.96 0 0113.16 2.97c4.42 1.55 8.55 3.86 12.88 5.7 10.05 4.21 20.86 5.72 31.57 7.2 1.83.25 3.92.43 5.27-.87 1.74-1.73 1.17-4.64.67-7.07-.2-1-.35-2-.47-3a143.47 143.47 0 0121.15 7.6l1.2.55c.35 1.9 2.04 3.4 3.65 5.45.53.86 1.16 1.66 1.86 2.38a6.04 6.04 0 002.65.99 119.62 119.62 0 0034.3 1.6c2.34-.33 4.71-.41 7.07-.25 1.74.25 3.45.65 5.11 1.2l9.7 2.88c7.15 2.11 14.46 4.26 21.88 3.78a26.96 26.96 0 004.46-.67c5.87-1.4 11.33-4.8 14.15-10.26 3.98-7.43 2.14-16.56 0-24.73z" fill="url(#A)"/><path d="M80.95 406.44c-1.77-4.17-3.45-8.96-1.68-13.13a10.93 10.93 0 015.57-5.43 26.04 26.04 0 017.54-1.92c8.14-1.11 16.36-1.23 24.52-.35.6 4.88-.66 9.83-1.74 14.54-.98 4.35-1.54 4.99-5.87 5.21-2.8.16-27.68 2.62-28.34 1.08z" fill="#fbbebe"/><use xlink:href="#B" fill="#464353"/><use xlink:href="#B" opacity=".1" fill="#000"/><path d="M177.05 160.21a37.8 37.8 0 01-19.22 18.1 46.75 46.75 0 01-15.26 3c-5.69.28-11.5-.1-16.84-2.12-7.18-2.7-13.13-8.2-17.6-14.62s-7.54-13.74-10.21-21.13c-1.41-3.85-2.75-7.95-2.09-12.01 4.32-1.02 9.04-2.51 11.27-6.48 1.9-3.4 1.37-7.49.28-11.38-.31-1.1-.67-2.2-1.03-3.24-.84-2.52-3.73-7.3-1.68-9.46 1.28-1.37 6.65-2.06 8.5-2.95 5.71-2.72 10.97-6.66 17.24-7.96 5.42-1.12 11.02-.07 16.43 1.1a5.28 5.28 0 012.03.75c.7.62 1.23 1.43 1.51 2.35 1.54 3.89 2.45 8.18 3.69 12.24 1.29 4.25 2.95 8.23 6.05 11.25 2.43 2.35 5.51 3.83 8.53 5.26l7.42 3.52a9.73 9.73 0 013.51 2.36 9.42 9.42 0 011.68 4.72 45.54 45.54 0 01-4.2 26.7z" fill="#fbbebe"/><path opacity=".1" d="M154.03 106.4c-5.9 6.38-13.7 10.54-22.14 11.84s-17.06-.34-24.5-4.67c-.32-1.1-.68-2.2-1.04-3.24-.83-2.52-3.73-7.3-1.67-9.46 1.28-1.37 6.65-2.06 8.5-2.95 5.71-2.72 10.97-6.67 17.24-7.96 5.42-1.12 11.02-.07 16.43 1.1.72.1 1.41.36 2.03.75a5.07 5.07 0 011.5 2.34c1.5 3.9 2.41 8.2 3.65 12.25z" fill="#000"/><path d="M126.24 116.93c21.29 0 38.54-17.88 38.54-39.94s-17.25-39.95-38.54-39.95-38.55 17.88-38.55 39.95 17.26 39.94 38.55 39.94z" fill="#fbbebe"/><path d="M243.68 206.63l-3.17-19.89c-1.6-9.97-3.25-20.14-7.73-29.13-2.94-5.89-7.6-11.5-13.9-12.66-1.24-.12-2.46-.4-3.62-.87-1.84-.92-2.85-2.99-4.26-4.52-3.66-3.92-9.6-3.98-14.5-5.98-4.32-1.74-7.86-5.08-11.8-7.63s-8.84-4.34-13.2-2.71c-.7 7.77-1.45 15.72-4.63 22.8-2.07 4.6-5.11 8.67-8.9 11.9s-8.22 5.55-12.98 6.78a31.79 31.79 0 01-14.53.32 32.37 32.37 0 01-13.25-6.19c-7.46-5.83-12.25-14.81-14.48-24.22-.54-2.3-1.16-4.92-3.2-5.97-2.2-1.15-4.85.24-6.7 1.92-3.35 3.12-6.1 7.59-10.5 8.64-1.6.38-3.35.3-4.68 1.3a10.99 10.99 0 00-2.17 2.93 10.16 10.16 0 01-3.75 3.32 9.77 9.77 0 01-4.83 1.07c-1.53-.08-3.35-.44-4.4.71-.77.87-.83 2.22-1.67 3.03-1.13 1.14-2.97.58-4.54.52-2.99-.13-5.76 1.85-7.47 4.35s-2.51 5.57-3.35 8.56l26.7 63.44c.42.8.65 1.69.66 2.6a6.46 6.46 0 01-1.14 2.6c-4.5 7.48-4.35 16.89-3.86 25.67s1.1 18.08-2.69 25.95c-1.03 2.16-2.37 4.14-3.35 6.3-2.3 4.9-3.13 20.57-1.78 25.83h189.44c-3.61-10.29-2.24-30.94-1.49-41.86.53-7.64-.83-15.28-1.42-22.92-1.28-15.6-.38-30.41-2.87-45.99z" fill="#6c63ff"/><path d="M30.96 229.38a31.85 31.85 0 00-.1 7.58l2.4 35.84.75 10.12c.58 6.54 1.44 13.03 2.52 19.5.02.92.4 1.8 1.04 2.43s1.5.98 2.4.95c10.6 2.33 21.55 2.23 32.36 1.6 16.51-.95 33-3.13 49.53-2.76 4.25.1 9.21 0 11.8-3.47s1.07-9.1-2.3-11.9-7.94-3.48-12.26-3.48c-5.72-.06-11.45.79-17.15.44-5.24-.32-10.36-1.63-15.44-2.95l-14.24-3.67c.54-4.47 2.18-8.68 3.74-12.93 2.8-7.53 5.42-15.3 5.47-23.38s-2.89-16.55-9.26-21.17c-5.25-3.8-12-4.5-18.4-4.34-4.65.14-12.68-1.02-16.93.87-3.36 1.53-5.3 7.31-5.93 10.72z" fill="#fbbebe"/><use xlink:href="#C" fill="#464353"/><use xlink:href="#C" opacity=".05" fill="#000"/><path d="M88.66 411.8c-5.19 6.23-9.76 8.46-17.88 8.26-4.99-.12-9.98-.4-14.96-.81a81.17 81.17 0 00-10.26-.5c-10.34.42-20.32 5.33-30.63 4.47a21.13 21.13 0 01-4.5-.87c-2.34-.67-4.46-2-6.11-3.84-1.98-2.32-2.93-5.4-3.47-8.43-2.76-15.58 4.8-32.55 18.03-40.48a12.92 12.92 0 015.73-2.1c2-.02 3.99.44 5.8 1.31l.13.06a43.78 43.78 0 0114.36 9.93 8.17 8.17 0 002.2 1.83c.82.33 1.7.5 2.58.5l11.01.73a25.29 25.29 0 015.53.79c2 .72 3.94 1.59 5.82 2.6 5.92 2.75 12.5 3.48 18.9 4.54.61.03 1.2.28 1.67.69.26.33.43.72.52 1.13.9 3.49.96 7.15.18 10.67s-2.38 6.8-4.65 9.53z" fill="#3f3d56"/><path opacity=".1" d="M30.54 368.87a68.16 68.16 0 00-11.02 14.28 73.25 73.25 0 00-9 28.26c-.4 3.64-.43 7.3-.1 10.95-2.33-.67-4.45-2-6.1-3.84-1.98-2.32-2.93-5.4-3.47-8.43-2.76-15.58 4.8-32.55 18.03-40.48a12.93 12.93 0 015.73-2.1c2-.02 3.99.43 5.8 1.31l.13.05z" fill="#000"/><path d="M243.78 390.48c6.16-.17 13.08-.5 17.6 3.8 4.32 4.07 4.89 10.77 5.17 16.8l.33 7.02c.1 2.13.18 4.34-.65 6.32-1.47 3.47-5.52 5.15-9.21 4.95s-7.1-1.88-10.47-3.39a143.43 143.43 0 00-28.49-9.3c.32-4.85.85-9.67 1.6-14.47.5-3.32.59-8.89 2.73-11.65 2.27-2.92 5.23-1.34 8.32-.8 4.32.68 8.7.92 13.08.72z" fill="#fbbebe"/><path d="M81.02 320.34c0 .89-1.31 0-1.43-.94-.92-7.13-6.3-13-12.57-15.86s-13.4-3-20.2-2.33c-10.26 1.03-21.78 5.16-25.53 15.25-.9 2.36-1.3 4.92-2.38 7.18-1.21 2.48-3.18 4.47-4.49 6.88-2.25 4.18-2.34 9.3-1.53 14.02 2.19 12.6 10.38 23.38 20.31 30.84s21.54 11.92 33.11 15.94c30.6 10.62 62 18.5 93.85 23.57 5.16.82 10.37 1.58 15.32 3.33 4.42 1.56 8.56 3.9 12.89 5.72 10.05 4.25 20.87 5.77 31.59 7.26 1.82.24 3.92.42 5.27-.88 1.74-1.7 1.16-4.66.67-7.1a39.9 39.9 0 014.28-27.11c1.8-3.17 4.12-6.43 3.78-10.1-.4-4.28-4.45-7.31-8.5-8s-8.14.33-12.2.88c-1.4.2-2.92.32-4.14-.43a8.42 8.42 0 01-1.63-1.52c-2.79-2.83-6.37-4.66-10.21-5.23s-7.76.17-11.19 2.09c-1.5.88-3.77-1.09-5.33-1.83l-17.62-8.39c-20.24-9.63-40.59-19.3-62-25.4a12.67 12.67 0 01-4.78-2.09c-1.07-.88-1.83-2.08-2.8-3.06-2.15-2.12-5.12-2.97-7.68-4.47s-5.44-5.2-4.86-8.22z" fill="#464353"/><path d="M352.7 435.1c-2.82 5.58-8.29 9.06-14.15 10.5a26.4 26.4 0 01-4.48.67c-7.41.5-14.74-1.7-21.88-3.86l-9.7-2.92a29.02 29.02 0 00-5.12-1.22 32.88 32.88 0 00-7.07.26 117.4 117.4 0 01-34.36-1.65 5.82 5.82 0 01-2.65-1.01 13.99 13.99 0 01-1.86-2.43c-2.63-3.4-5.48-5.37-2.35-9.85 1.8-2.6 5.15-3.9 6.54-6.88s.5-7.22-.32-10.3c-1.13-4.25-4.85-6.09-6.19-9.99-1-2.95.68-6.37 3.2-7.97s5.64-1.73 8.55-1.32 5.76 1.3 8.68 1.54c8.6.73 17.4-4 25.64-1.34 1.82.6 3.54 1.53 5.38 2.05 3.6.86 7.35.51 10.75-1 1.21-.48 2.4-1.06 3.57-1.63a27.51 27.51 0 017.16-2.77c8.05-1.48 15.52 4.48 21.6 10.3a31.94 31.94 0 015.48 6.35c1.68 2.8 2.57 6.04 3.35 9.25 2.22 8.28 4.06 17.61.22 25.23z" fill="#3f3d56"/><path opacity=".1" d="M352.7 435.13c-2.82 5.58-8.29 9.05-14.15 10.49a31 31 0 002.97-15.38c-.5-8.52-4-16.54-8.47-23.62a82.81 82.81 0 00-9.33-12.16c-2.67-2.86-5.95-5.14-8.81-7.76a27.52 27.52 0 017.16-2.77c8.06-1.48 15.52 4.48 21.6 10.3a31.93 31.93 0 015.49 6.35c1.67 2.8 2.56 6.05 3.35 9.26 2.18 8.34 4.02 17.67.18 25.28z" fill="#000"/><path d="M45 165.8a9.33 9.33 0 00-1.87 3.16 157.58 157.58 0 00-11.81 51.38 5.4 5.4 0 01-.55 2.49c-.37.5-.78.98-1.23 1.42a5.03 5.03 0 00-.9 1.75 5.23 5.23 0 00-.16 2 5.14 5.14 0 00.6 1.89c.31.58.74 1.09 1.25 1.49 1.38-2.77 4.7-3.67 7.63-3.91 14.09-1.2 27.85 5.78 41.97 5.26-1-3.67-2.43-7.2-3.24-10.9-3.6-16.47 5.37-34.4-.12-50.26-1.1-3.18-2.94-6.3-5.83-7.69a14.74 14.74 0 00-3.73-1.05c-3.57-.69-10.67-3.62-14.13-2.44-1.27.43-1.77 1.7-2.83 2.48-1.6 1.1-3.73 1.5-5.06 2.93z" fill="#6c63ff"/><path d="M254.89 197.26H81.39c-3.7 0-6.68 3.15-6.68 7.03v111.15c0 3.88 2.99 7.03 6.67 7.03h173.5c3.7 0 6.69-3.15 6.69-7.03V204.29c0-3.88-3-7.03-6.68-7.03z" fill="#3f3d56"/><path d="M167.72 266.02c2.77 0 5.02-2.76 5.02-6.16s-2.25-6.15-5.02-6.15-5.03 2.75-5.03 6.15 2.25 6.16 5.03 6.16z" fill="#fff"/><path d="M99.6 12.3c-2.8 2.15-4.73 5.24-6.7 8.2-3.6 5.49-7.7 10.96-13.47 14.01-2.19 1.16-4.68 2.04-6.13 4.06a11.31 11.31 0 00-1.64 4.54 94.92 94.92 0 00-1.72 17.36c0 2.9.11 5.9 1.33 8.53 1.15 2.48 3.22 4.58 3.64 7.28.33 2.11-.4 4.2-.67 6.33s.2 4.62 2.05 5.63c1 .4 2.04.65 3.1.77 5.57 1.3 7.44 8.21 8.29 13.93 1.89-.12 2.74-2.41 3.14-4.28l5.8-27.28c.63-2.96 1.68-6.39 4.47-7.42 1.87-.68 3.91-.05 5.87.13 7.66.66 14.15-5.6 21.65-7.32a26.2 26.2 0 017.3-.52c5.91.31 12.8 2.88 14.05 8.72.2.94.33 2.08 1.17 2.55s1.72.07 2.6 0c3.75-.4 5.97 4.06 7.05 7.7l3.94 13.29c.58 2.01 1.57 4.37 3.63 4.63 1.9.25 3.52-1.66 3.8-3.54s-.33-3.84-.74-5.74c-1.85-8.72.98-17.65 2.7-26.39s2.04-18.78-3.75-25.5c-2.1-2.44-4.87-4.26-6.83-6.83-1.82-2.4-2.85-5.36-4.75-7.73-5.23-6.52-18.67-11.56-26.9-12.4-9.41-1.07-24.66 1.45-32.27 7.29z" fill="#3f3d56"/><path opacity=".01" d="M168.39 86.73c-2.06-.26-3.05-2.69-3.64-4.69l-3.94-13.45c-1.08-3.7-3.3-8.23-7.04-7.81-.88.1-1.83.46-2.6 0s-.97-1.63-1.18-2.59c-1.25-5.92-8.13-8.51-14.05-8.82a26.21 26.21 0 00-7.3.5c-7.5 1.8-13.98 8.08-21.65 7.43-1.98-.17-4.02-.82-5.86-.13-2.83 1.04-3.84 4.48-4.47 7.52l-5.8 27.62c-.4 1.9-1.26 4.23-3.15 4.33-.84-5.77-2.71-12.77-8.29-14.1a12.45 12.45 0 01-3.1-.78 3.81 3.81 0 01-1.61-1.93c-.15.84-.33 1.67-.43 2.5-.25 2.14.2 4.69 2.04 5.71a11.7 11.7 0 003.1.78c5.58 1.33 7.45 8.33 8.3 14.11 1.89-.11 2.74-2.44 3.13-4.33l5.81-27.64c.63-3 1.68-6.46 4.47-7.51 1.87-.7 3.91-.05 5.86.13 7.67.67 14.16-5.67 21.66-7.42a25.87 25.87 0 017.3-.52c5.9.32 12.79 2.92 14.05 8.83.2.96.33 2.1 1.17 2.58s1.72.08 2.6 0c3.75-.4 5.96 4.12 7.04 7.82l3.94 13.45c.59 2.04 1.58 4.43 3.64 4.7 1.9.24 3.52-1.68 3.8-3.6a13 13 0 00-.5-4.76 3.62 3.62 0 01-1.36 1.57 3.28 3.28 0 01-1.94.5zM74.92 69.66c-.42-2.74-2.51-4.87-3.64-7.38a15.61 15.61 0 01-1.24-5.38l-.1 3.02c0 2.95.12 5.98 1.34 8.65.93 2.04 2.46 3.83 3.23 5.9a14.42 14.42 0 00.41-4.81zm99.23-19.1c-1.52 7.83-3.9 15.8-3.17 23.64.48-5.8 2.06-11.61 3.17-17.35a48.87 48.87 0 00.97-13.3 58.35 58.35 0 01-.97 7.02z" fill="#000"/><defs><path id="B" d="M155.57 378.32c66.17 0 119.82-15.55 119.82-34.73s-53.65-34.74-119.82-34.74S35.74 324.4 35.74 343.59s53.65 34.73 119.83 34.73z"/><path id="C" d="M253.37 311.32c2.8-1.1 5.87-.7 8.86-.28 9.63 1.36 19.4 2.76 28.32 6.75 4.19 1.85 8.18 4.34 11.01 8 2.51 3.28 3.98 7.31 5.37 11.28l3.22 9.14c1.22 3.47 2.46 7.02 2.8 10.7 1.01 10.94-6.2 21.25-15.28 26.93s-19.76 7.7-30.16 9.82-20.86 4.46-31.22 6.95a121.93 121.93 0 01-14.7 3c-11.09 1.3-22.68-.63-33.23 3.18-4.19 1.52-8.3 3.78-12.65 4.83a76.18 76.18 0 01-8.75 1.38l-19.95 2.36c-4.06.56-8.14.89-12.23.97-8.72 0-17.29-2.13-25.75-4.27a6.39 6.39 0 01-2.52-1.05c-1.34-1.1-1.63-3.03-1.82-4.79l-2.25-23.31c-.2-2.53-.35-5.27.98-7.4 1.68-2.6 4.95-3.41 7.93-3.92a199.75 199.75 0 0138.28-2.75c4.86-5.05 12.9-5.07 19.27-7.82a56.7 56.7 0 006.8-3.83 86.63 86.63 0 0137.3-12.21 33.6 33.6 0 007.64-1.13c4.94-1.6 9.44-5.92 14.5-4.86.63-1.8 1.07-4.2 2.52-5.43.72-.64 1.6-1.06 2.27-1.74 1.4-1.47 1.53-3.78 1.32-5.83s-.68-4.15-.17-6.15c.21-.75.52-1.47.93-2.14 2.51-4.5 6.3-6.8 11.36-6.37z"/><linearGradient id="A" x1="177.35" y1="443.89" x2="177.35" y2="-.04" gradientUnits="userSpaceOnUse"><stop stop-color="gray" stop-opacity=".25"/><stop offset=".54" stop-color="gray" stop-opacity=".12"/><stop offset="1" stop-color="gray" stop-opacity=".1"/></linearGradient></defs></svg>