<svg width="355" height="447" viewBox="0 0 355 447" fill="none" xmlns="http://www.w3.org/2000/svg">
<path d="M352.198 408.135C351.36 404.991 350.522 401.813 348.846 399.077C347.292 396.758 345.446 394.664 343.358 392.851C337.283 387.137 329.825 381.336 321.772 382.777C319.282 383.348 316.875 384.259 314.616 385.487C313.443 386.051 312.262 386.616 311.055 387.093C307.658 388.565 303.904 388.905 300.313 388.066C298.469 387.554 296.751 386.633 294.933 386.06C294.07 385.791 293.187 385.594 292.293 385.469C294.05 384.654 295.755 383.723 297.397 382.682C306.43 376.95 313.636 366.59 312.63 355.51C312.287 351.784 311.055 348.215 309.832 344.698L306.614 335.475C305.223 331.481 303.782 327.408 301.243 324.091C298.419 320.391 294.397 317.882 290.241 316.015C281.316 311.994 271.563 310.578 261.935 309.206L261.265 309.111V201.316C261.265 199.473 260.558 197.706 259.301 196.403C258.044 195.101 256.339 194.369 254.561 194.369H241.908C241.349 190.826 240.791 187.288 240.232 183.757C238.64 173.675 236.989 163.41 232.506 154.335C229.574 148.395 224.906 142.725 218.613 141.561C217.377 141.445 216.161 141.153 215.002 140.693C213.158 139.755 212.153 137.671 210.737 136.134C207.083 132.165 201.142 132.104 196.249 130.055C191.925 128.275 188.389 124.923 184.45 122.343C180.512 119.764 175.619 117.932 171.261 119.608C171.261 119.938 171.203 120.268 171.169 120.589L168.37 119.252C165.354 117.802 162.278 116.317 159.857 113.937C156.748 110.898 155.089 106.868 153.799 102.587C153.664 102.144 153.539 101.719 153.405 101.241C158.761 95.5782 162.387 88.4042 163.829 80.6166L164.507 82.9005C164.66 83.4137 164.839 83.9181 165.044 84.4115C165.39 85.3659 165.967 86.2121 166.72 86.8691C166.934 87.0437 167.171 87.1869 167.423 87.2946C167.655 87.3897 167.897 87.4539 168.144 87.4857C168.492 87.5303 168.845 87.5037 169.183 87.4075C169.75 87.2257 170.27 86.9144 170.705 86.4966C171.14 86.0788 171.479 85.5651 171.697 84.9934C171.831 84.652 171.929 84.2968 171.99 83.9339C172.023 83.7153 172.042 83.4949 172.049 83.2739C172.049 83.2044 172.049 83.135 172.049 83.0655C172.049 82.996 172.049 82.7616 172.049 82.6139C172.049 82.4663 172.049 82.4576 172.049 82.3708C172.049 82.2839 172.049 82.0842 172.007 81.9366V81.7108C172.007 81.5371 171.957 81.3634 171.923 81.1984C171.89 81.0334 171.923 81.1029 171.923 81.0595C171.881 80.8424 171.831 80.6166 171.789 80.3995C171.789 80.3474 171.789 80.2866 171.789 80.2345C171.789 80.1824 171.714 79.8785 171.672 79.6961C171.63 79.5137 171.613 79.4616 171.588 79.34V79.2879C171.504 78.9406 171.429 78.6019 171.353 78.2545C170.744 75.2407 170.589 72.1473 170.893 69.0842C171.394 64.589 172.195 60.135 173.289 55.7542L173.465 54.964C173.532 54.66 173.599 54.3561 173.658 54.0435C173.792 53.4182 173.926 52.793 174.052 52.159L174.353 50.5612L174.579 49.137V48.9546C175.05 45.7275 175.148 42.4537 174.873 39.2025C174.487 34.6607 173.13 30.3621 170.155 26.9406C168.052 24.5178 165.278 22.7289 163.326 20.1844C161.499 17.805 160.469 14.8698 158.575 12.5338C153.346 6.06422 139.922 1.07958 131.685 0.211179C122.25 -0.7788 107.008 1.72219 99.3994 7.49707C96.5839 9.62465 94.6566 12.7075 92.6959 15.6253C89.0927 21.0529 85.0036 26.4717 79.2301 29.5198C77.0515 30.6661 74.5544 31.5345 73.1048 33.5318C72.2424 34.8857 71.684 36.4229 71.4708 38.0301C70.3607 43.6844 69.7826 49.4371 69.7446 55.2071C69.7446 55.9279 69.7446 56.6487 69.7446 57.3781C69.7618 59.5416 70.2067 61.6784 71.0518 63.6567C71.1859 63.952 71.3367 64.2385 71.4959 64.5251L71.5965 64.7075C72.61 66.2089 73.5066 67.7915 74.2779 69.4403C74.4701 69.902 74.6079 70.386 74.6885 70.8818C74.8321 72.154 74.7526 73.4425 74.4539 74.6854C74.4539 74.8764 74.3785 75.0675 74.3449 75.2585L74.2695 75.632C74.2695 75.7622 74.2695 75.8925 74.2025 76.0141C74.1355 76.3875 74.0768 76.7609 74.0265 77.1256C73.8995 78.1301 73.9621 79.1506 74.2109 80.1303C74.3256 80.6762 74.5507 81.1906 74.8714 81.6396C75.1921 82.0887 75.6009 82.4622 76.0711 82.7355C76.5484 82.9727 77.0565 83.1365 77.5794 83.2218C78.1073 83.3173 78.6436 83.3781 79.1631 83.4997C79.8312 83.6575 80.4763 83.9057 81.082 84.2378C81.6622 84.5256 82.2055 84.8874 82.6992 85.3147C82.9435 85.5447 83.1757 85.7882 83.3947 86.0441C83.8372 86.5693 84.2353 87.1329 84.5846 87.7288C84.7634 88.0357 84.9309 88.3483 85.0874 88.6667C85.6878 89.9233 86.1677 91.2381 86.5202 92.5919C86.7381 93.3995 86.9224 94.2158 87.0816 95.0321C87.1571 95.3968 87.2241 95.7616 87.2828 96.1176C87.3414 96.4736 87.4001 96.8384 87.4503 97.1944C87.679 97.181 87.9047 97.1342 88.1207 97.0555C89.3525 96.5952 90.0396 95.1103 90.425 93.6687C90.4921 93.4255 90.5507 93.1911 90.601 92.9566C90.7937 92.0882 90.9948 91.133 91.1876 90.2211C94.4906 97.4903 99.8164 103.569 106.48 107.676C106.715 108.397 106.941 109.109 107.142 109.838C108.24 113.772 108.768 117.888 106.865 121.327C105.508 123.768 103.229 125.27 100.681 126.312C100.314 125.805 99.8417 125.389 99.2988 125.096C97.095 123.95 94.4472 125.339 92.5953 127.05C89.2435 130.194 86.5118 134.701 82.1043 135.734C80.5122 136.116 78.7525 136.038 77.4286 137.045C76.5529 137.899 75.8196 138.896 75.2583 139.998C74.3019 141.421 73.0157 142.573 71.5179 143.347C70.0201 144.121 68.3586 144.492 66.6862 144.427C65.1527 144.349 63.3344 143.984 62.287 145.148C61.5077 146.016 61.449 147.388 60.6111 148.213C59.4883 149.359 57.6448 148.804 56.0778 148.734C53.0948 148.604 50.3212 150.601 48.6202 153.163C46.9191 155.725 46.1063 158.79 45.2684 161.847V161.899C45.0534 162.061 44.849 162.238 44.6567 162.429C43.8443 163.326 43.2145 164.383 42.8048 165.538C36.0284 181.527 32.0287 198.631 30.9899 216.061C31.0064 216.911 30.8223 217.752 30.4536 218.51C30.0787 219.006 29.6668 219.471 29.2218 219.9C28.8236 220.405 28.5274 220.988 28.3507 221.614C28.174 222.24 28.1204 222.896 28.1931 223.544C28.2657 224.192 28.4632 224.818 28.7738 225.386C29.0844 225.953 29.5017 226.45 30.0011 226.847C30.2422 226.394 30.5441 225.979 30.8977 225.614C30.8055 226.013 30.7217 226.404 30.6631 226.76C30.3265 229.294 30.2956 231.861 30.5709 234.402C31.3641 246.467 32.1658 258.523 32.9758 270.571C33.202 273.984 33.4283 277.388 33.7299 280.792C34.3165 287.38 35.1544 293.943 36.2438 300.479C36.294 300.774 36.3527 301.078 36.4281 301.347C29.5989 303.596 23.5238 307.661 20.9681 314.443C20.0799 316.788 19.6777 319.341 18.5883 321.59C17.3901 324.056 15.4209 326.027 14.1137 328.441C11.8597 332.592 11.7591 337.681 12.5803 342.336C14.164 351.411 18.8984 359.522 25.1494 366.121C24.8729 366.121 24.588 366.121 24.3115 366.121C22.2692 366.356 20.3087 367.085 18.5883 368.249C5.36563 376.256 -2.1926 393.433 0.564229 409.116C1.10889 412.182 2.05576 415.29 4.0333 417.626C5.67706 419.483 7.79054 420.825 10.1335 421.499C11.5988 421.956 13.1075 422.248 14.6333 422.368C24.9399 423.236 34.9198 418.286 45.2516 417.87C48.6743 417.813 52.0969 417.978 55.4996 418.365C60.477 418.793 65.4628 419.065 70.4569 419.181C78.5766 419.381 83.1433 417.14 88.3218 410.853C89.5946 409.289 90.6573 407.554 91.4808 405.695C95.8884 405.434 100.757 405.035 104.276 404.739L104.326 405.243C104.519 406.98 104.812 408.977 106.153 410.071C106.907 410.61 107.765 410.975 108.667 411.139C117.13 413.293 125.694 415.481 134.409 415.481C138.498 415.396 142.58 415.071 146.634 414.509L161.943 412.677C166.404 413.263 170.807 414.256 175.099 415.646C179.523 417.201 183.654 419.511 187.978 421.343C198.033 425.564 208.843 427.075 219.552 428.551C221.379 428.803 223.473 428.976 224.822 427.683C226.565 425.946 225.987 423.045 225.493 420.614C225.292 419.615 225.141 418.616 225.024 417.609C232.25 419.583 239.32 422.127 246.173 425.216L247.371 425.763C247.723 427.656 249.408 429.167 251.025 431.208C251.556 432.07 252.177 432.868 252.877 433.588C253.677 434.126 254.586 434.465 255.533 434.578C266.838 436.76 278.381 437.301 289.83 436.184C292.173 435.853 294.543 435.769 296.902 435.932C298.636 436.177 300.346 436.575 302.014 437.122L311.709 440.005C318.856 442.124 326.171 444.269 333.587 443.791C335.091 443.694 336.585 443.47 338.053 443.123C343.919 441.716 349.382 438.32 352.198 432.858C356.178 425.433 354.343 416.298 352.198 408.135Z" fill="url(#paint0_linear)"/>
<path d="M80.9479 406.441C79.1799 402.273 77.504 397.479 79.272 393.311C80.4261 390.856 82.4087 388.925 84.8443 387.884C87.2545 386.865 89.795 386.216 92.3858 385.956C100.518 384.85 108.746 384.734 116.904 385.608C117.499 390.489 116.242 395.439 115.161 400.154C114.181 404.496 113.619 405.139 109.295 405.365C106.497 405.521 81.6099 407.978 80.9479 406.441Z" fill="#FBBEBE"/>
<path d="M155.567 378.322C221.744 378.322 275.392 362.771 275.392 343.586C275.392 324.402 221.744 308.85 155.567 308.85C89.3887 308.85 35.741 324.402 35.741 343.586C35.741 362.771 89.3887 378.322 155.567 378.322Z" fill="#464353"/>
<path opacity="0.1" d="M155.567 378.322C221.744 378.322 275.392 362.771 275.392 343.586C275.392 324.402 221.744 308.85 155.567 308.85C89.3887 308.85 35.741 324.402 35.741 343.586C35.741 362.771 89.3887 378.322 155.567 378.322Z" fill="black"/>
<path d="M177.051 160.214C172.944 168.44 166.122 174.862 157.829 178.312C152.933 180.161 147.78 181.176 142.57 181.317C136.881 181.586 131.074 181.204 125.728 179.189C118.555 176.497 112.597 170.991 108.131 164.574C103.665 158.156 100.589 150.827 97.9162 143.437C96.5085 139.59 95.1678 135.491 95.8298 131.427C100.145 130.411 104.871 128.917 107.1 124.949C109.002 121.544 108.474 117.463 107.377 113.572C107.067 112.47 106.706 111.375 106.346 110.325C105.508 107.806 102.617 103.021 104.67 100.868C105.952 99.5044 111.323 98.8096 113.175 97.9239C118.882 95.1971 124.144 91.2545 130.412 89.9606C135.833 88.8404 141.431 89.8911 146.844 91.0548C147.562 91.163 148.251 91.42 148.871 91.8103C149.579 92.4279 150.102 93.241 150.38 94.155C151.922 98.0454 152.827 102.344 154.067 106.399C155.357 110.646 157.016 114.632 160.125 117.645C162.547 119.999 165.63 121.475 168.647 122.908L176.071 126.434C177.392 126.946 178.589 127.749 179.582 128.787C180.553 130.17 181.133 131.806 181.258 133.511C182.588 142.649 181.117 151.989 177.051 160.214Z" fill="#FBBEBE"/>
<path opacity="0.1" d="M154.033 106.399C148.121 112.779 140.333 116.944 131.891 118.242C123.449 119.54 114.83 117.898 107.385 113.573C107.075 112.47 106.715 111.375 106.354 110.325C105.516 107.806 102.625 103.021 104.678 100.868C105.96 99.5044 111.332 98.8096 113.184 97.9239C118.89 95.1971 124.152 91.2545 130.42 89.9606C135.841 88.8404 141.439 89.8911 146.852 91.0548C147.57 91.163 148.26 91.42 148.88 91.8103C149.587 92.4279 150.11 93.241 150.388 94.155C151.888 98.0454 152.793 102.344 154.033 106.399Z" fill="black"/>
<path d="M126.239 116.933C147.527 116.933 164.784 99.0485 164.784 76.9867C164.784 54.9248 147.527 37.0402 126.239 37.0402C104.951 37.0402 87.6934 54.9248 87.6934 76.9867C87.6934 99.0485 104.951 116.933 126.239 116.933Z" fill="#FBBEBE"/>
<path d="M243.676 206.631L240.509 186.744C238.908 176.766 237.257 166.597 232.783 157.609C229.842 151.721 225.174 146.112 218.881 144.948C217.642 144.833 216.424 144.541 215.261 144.079C213.418 143.159 212.412 141.092 210.996 139.564C207.343 135.639 201.394 135.578 196.5 133.58C192.176 131.844 188.64 128.5 184.702 125.947C180.763 123.394 175.861 121.605 171.504 123.238C170.8 131.01 170.055 138.956 166.87 146.033C164.798 150.641 161.758 154.71 157.973 157.943C154.188 161.177 149.753 163.492 144.993 164.721C140.233 165.949 135.269 166.06 130.463 165.044C125.656 164.029 121.13 161.913 117.214 158.851C109.748 153.024 104.963 144.036 102.734 134.631C102.19 132.339 101.57 129.707 99.5334 128.657C97.3296 127.51 94.6818 128.9 92.8299 130.584C89.4781 133.702 86.7381 138.166 82.3305 139.216C80.7384 139.599 78.9787 139.52 77.6548 140.519C76.7749 141.361 76.0383 142.35 75.4762 143.446C74.5117 144.858 73.223 145.999 71.7264 146.766C70.2299 147.533 68.5725 147.902 66.904 147.84C65.3706 147.762 63.5522 147.397 62.5048 148.552C61.7255 149.42 61.6669 150.775 60.8289 151.582C59.6977 152.72 57.8626 152.164 56.2873 152.104C53.3042 151.973 50.5306 153.953 48.8212 156.446C47.1118 158.938 46.3074 162.021 45.4695 165.008C54.6282 186.145 63.0076 207.308 72.1663 228.445C72.5954 229.241 72.8231 230.138 72.8283 231.05C72.6446 231.997 72.2548 232.888 71.6887 233.655C67.1973 241.132 67.3397 250.537 67.8341 259.325C68.3285 268.113 68.9318 277.397 65.1443 285.273C64.1137 287.435 62.773 289.415 61.7926 291.578C59.4966 296.476 58.667 312.142 60.0078 317.404H249.449C245.838 307.113 247.212 286.463 247.966 275.538C248.494 267.896 247.128 260.263 246.542 252.621C245.26 237.016 246.165 222.21 243.676 206.631Z" fill="#6C63FF"/>
<path d="M30.9563 229.383C30.6211 231.896 30.5873 234.442 30.8558 236.964L33.2607 272.803C33.4869 276.181 33.7132 279.55 34.0148 282.92C34.593 289.459 35.4561 295.946 36.5286 302.424C36.5528 303.344 36.9281 304.216 37.5722 304.85C38.2163 305.483 39.0766 305.826 39.9642 305.802C50.5642 308.129 61.5161 308.034 72.3339 307.4C88.8413 306.445 105.324 304.265 121.856 304.638C126.113 304.734 131.074 304.638 133.654 301.165C136.235 297.691 134.735 292.073 131.367 289.268C127.998 286.463 123.423 285.794 119.099 285.794C113.376 285.733 107.653 286.576 101.947 286.228C96.7096 285.907 91.5898 284.596 86.5118 283.284L72.2668 279.611C72.8115 275.139 74.4539 270.927 76.0124 266.681C78.8112 259.152 81.4255 251.371 81.4758 243.303C81.5261 235.236 78.5933 226.751 72.2166 222.132C66.9711 218.337 60.2172 217.633 53.8237 217.79C49.1732 217.928 41.1373 216.773 36.889 218.658C33.5288 220.186 31.5848 225.97 30.9563 229.383Z" fill="#FBBEBE"/>
<path d="M253.371 311.325C256.161 310.222 259.237 310.622 262.228 311.039C271.856 312.402 281.626 313.8 290.551 317.786C294.74 319.645 298.729 322.128 301.561 325.784C304.075 329.075 305.541 333.105 306.932 337.073L310.15 346.209C311.373 349.683 312.614 353.226 312.957 356.916C313.963 367.85 306.748 378.158 297.673 383.837C288.598 389.516 277.914 391.54 267.507 393.659C257.1 395.777 246.651 398.122 236.285 400.606C231.451 401.906 226.546 402.906 221.596 403.602C210.502 404.904 198.905 402.985 188.364 406.789C184.174 408.308 180.06 410.566 175.711 411.617C172.822 412.247 169.901 412.708 166.963 412.998L147.011 415.36C142.954 415.922 138.87 416.247 134.777 416.333C126.063 416.333 117.491 414.196 109.027 412.06C108.128 411.896 107.271 411.538 106.514 411.009C105.173 409.915 104.88 407.979 104.687 406.224C103.832 398.461 103.084 390.689 102.441 382.908C102.24 380.381 102.089 377.645 103.422 375.518C105.097 372.912 108.365 372.096 111.348 371.592C123.998 369.448 136.812 368.526 149.626 368.84C154.494 363.794 162.522 363.768 168.898 361.024C171.244 359.907 173.515 358.628 175.694 357.194C187.101 350.297 199.848 346.123 213.007 344.976C215.585 344.894 218.145 344.516 220.641 343.847C225.577 342.258 230.076 337.933 235.146 338.993C235.774 337.195 236.21 334.789 237.66 333.556C238.38 332.922 239.269 332.497 239.931 331.82C241.33 330.352 241.456 328.042 241.246 325.993C241.037 323.943 240.567 321.842 241.079 319.844C241.291 319.088 241.604 318.366 242.009 317.699C244.522 313.201 248.318 310.891 253.371 311.325Z" fill="#464353"/>
<path opacity="0.05" d="M253.371 311.325C256.161 310.222 259.237 310.622 262.228 311.039C271.856 312.402 281.626 313.8 290.551 317.786C294.74 319.645 298.729 322.128 301.561 325.784C304.075 329.075 305.541 333.105 306.932 337.073L310.15 346.209C311.373 349.683 312.614 353.226 312.957 356.916C313.963 367.85 306.748 378.158 297.673 383.837C288.598 389.516 277.914 391.54 267.507 393.659C257.1 395.777 246.651 398.122 236.285 400.606C231.451 401.906 226.546 402.906 221.596 403.602C210.502 404.904 198.905 402.985 188.364 406.789C184.174 408.308 180.06 410.566 175.711 411.617C172.822 412.247 169.901 412.708 166.963 412.998L147.011 415.36C142.954 415.922 138.87 416.247 134.777 416.333C126.063 416.333 117.491 414.196 109.027 412.06C108.128 411.896 107.271 411.538 106.514 411.009C105.173 409.915 104.88 407.979 104.687 406.224C103.832 398.461 103.084 390.689 102.441 382.908C102.24 380.381 102.089 377.645 103.422 375.518C105.097 372.912 108.365 372.096 111.348 371.592C123.998 369.448 136.812 368.526 149.626 368.84C154.494 363.794 162.522 363.768 168.898 361.024C171.244 359.907 173.515 358.628 175.694 357.194C187.101 350.297 199.848 346.123 213.007 344.976C215.585 344.894 218.145 344.516 220.641 343.847C225.577 342.258 230.076 337.933 235.146 338.993C235.774 337.195 236.21 334.789 237.66 333.556C238.38 332.922 239.269 332.497 239.931 331.82C241.33 330.352 241.456 328.042 241.246 325.993C241.037 323.943 240.567 321.842 241.079 319.844C241.291 319.088 241.604 318.366 242.009 317.699C244.522 313.201 248.318 310.891 253.371 311.325Z" fill="black"/>
<path d="M88.657 411.808C83.4701 418.035 78.9033 420.258 70.7837 420.058C65.7896 419.936 60.801 419.667 55.8181 419.25C52.4122 418.869 48.987 418.703 45.5617 418.755C35.2215 419.172 25.2416 424.079 14.9265 423.219C13.4013 423.094 11.893 422.803 10.4268 422.351C8.08673 421.682 5.97186 420.353 4.3182 418.512C2.34065 416.194 1.39378 413.119 0.849119 410.08C-1.90771 394.501 5.65052 377.532 18.8816 369.604C20.6079 368.448 22.5703 367.726 24.6131 367.494C26.6162 367.485 28.5964 367.936 30.4117 368.814L30.5374 368.866C35.9129 371.158 40.7949 374.535 44.8997 378.8C45.5224 379.539 46.2655 380.159 47.0951 380.632C47.923 380.957 48.7994 381.127 49.6843 381.136L60.6949 381.857C62.5603 381.915 64.4144 382.18 66.2253 382.647C68.2217 383.369 70.1652 384.24 72.0406 385.252C77.9649 387.997 84.5343 388.726 90.9362 389.785C91.5531 389.821 92.1418 390.065 92.6121 390.48C92.8676 390.81 93.0454 391.196 93.1316 391.609C94.0313 395.099 94.0939 398.764 93.314 402.284C92.5341 405.805 90.9353 409.074 88.657 411.808Z" fill="#3F3D56"/>
<path opacity="0.1" d="M30.5374 368.874C26.2655 373.102 22.5596 377.903 19.5185 383.151C14.6383 391.811 11.572 401.439 10.519 411.409C10.1196 415.046 10.0887 418.716 10.4268 422.359C8.08673 421.691 5.97186 420.362 4.3182 418.521C2.34065 416.202 1.39378 413.128 0.849119 410.089C-1.90771 394.51 5.65052 377.541 18.8816 369.612C20.6079 368.457 22.5703 367.734 24.6131 367.502C26.6162 367.494 28.5964 367.944 30.4117 368.822L30.5374 368.874Z" fill="black"/>
<path d="M243.785 390.48C249.944 390.306 256.857 389.985 261.382 394.284C265.697 398.348 266.267 405.052 266.552 411.087L266.879 418.095C266.979 420.232 267.063 422.437 266.233 424.417C264.759 427.891 260.711 429.567 257.016 429.367C253.321 429.168 249.927 427.492 246.55 425.981C237.382 421.887 227.837 418.771 218.06 416.68C218.379 411.834 218.909 407.012 219.652 402.212C220.163 398.886 220.247 393.32 222.392 390.558C224.663 387.64 227.621 389.221 230.705 389.759C235.031 390.444 239.413 390.685 243.785 390.48Z" fill="#FBBEBE"/>
<path d="M81.0233 320.344C81.0233 321.225 79.7077 320.344 79.5904 319.401C78.6687 312.272 73.2891 306.395 67.0213 303.54C60.7535 300.684 53.6142 300.535 46.8269 301.213C36.5621 302.235 25.0405 306.368 21.2865 316.458C20.3983 318.819 19.996 321.375 18.9067 323.639C17.7001 326.124 15.7309 328.107 14.4237 330.521C12.1697 334.698 12.0775 339.818 12.8903 344.541C15.0773 357.142 23.2724 367.919 33.202 375.383C43.1316 382.846 54.7371 387.305 66.3091 391.323C96.9078 401.936 128.302 409.821 160.158 414.895C165.32 415.715 170.532 416.473 175.476 418.217C179.9 419.777 184.04 422.112 188.364 423.945C198.419 428.192 209.237 429.708 219.954 431.197C221.781 431.444 223.875 431.62 225.225 430.316C226.967 428.615 226.389 425.655 225.895 423.214C224.076 413.933 225.602 404.272 230.177 396.108C231.97 392.936 234.299 389.684 233.964 386.01C233.562 381.727 229.506 378.696 225.468 378.009C221.429 377.321 217.323 378.335 213.267 378.89C211.868 379.084 210.343 379.207 209.119 378.458C208.517 378.03 207.97 377.521 207.494 376.942C204.7 374.108 201.124 372.277 197.279 371.712C193.435 371.147 189.519 371.877 186.093 373.797C184.593 374.678 182.322 372.713 180.763 371.973L163.142 363.584C142.897 353.952 122.552 344.277 101.134 338.179C99.425 337.826 97.8009 337.116 96.3576 336.091C95.2934 335.209 94.5309 334.011 93.5505 333.033C91.4138 330.909 88.4391 330.063 85.875 328.556C83.3109 327.05 80.4367 323.366 81.0233 320.344Z" fill="#464353"/>
<path d="M352.692 435.106C349.877 440.685 344.413 444.16 338.548 445.593C337.076 445.948 335.579 446.175 334.073 446.273C326.657 446.766 319.334 444.572 312.186 442.405L302.483 439.485C300.815 438.924 299.105 438.517 297.371 438.267C295.012 438.099 292.642 438.186 290.299 438.527C278.831 439.667 267.27 439.113 255.944 436.879C254.996 436.77 254.086 436.423 253.287 435.868C252.588 435.135 251.966 434.321 251.435 433.441C248.796 430.047 245.955 428.068 249.081 423.59C250.882 420.993 254.226 419.695 255.625 416.713C257.024 413.731 256.128 409.495 255.298 406.415C254.167 402.161 250.447 400.325 249.114 396.421C248.117 393.475 249.793 390.054 252.315 388.451C254.837 386.848 257.955 386.723 260.862 387.135C263.77 387.547 266.619 388.424 269.543 388.666C278.141 389.4 286.931 384.663 295.184 387.332C297.003 387.923 298.72 388.863 300.564 389.383C304.158 390.242 307.912 389.895 311.315 388.389C312.521 387.905 313.703 387.323 314.876 386.75C317.138 385.491 319.548 384.561 322.04 383.983C330.093 382.505 337.559 388.46 343.634 394.272C345.72 396.122 347.565 398.26 349.123 400.63C350.799 403.424 351.687 406.674 352.474 409.88C354.695 418.164 356.53 427.495 352.692 435.106Z" fill="#3F3D56"/>
<path opacity="0.1" d="M352.692 435.125C349.877 440.706 344.413 444.182 338.548 445.615C340.829 440.876 341.858 435.561 341.522 430.243C341.02 421.724 337.517 413.698 333.051 406.621C330.303 402.265 327.178 398.195 323.716 394.465C321.052 391.599 317.775 389.323 314.909 386.699C317.172 385.44 319.581 384.509 322.074 383.931C330.126 382.453 337.593 388.41 343.668 394.223C345.753 396.074 347.599 398.212 349.156 400.584C350.832 403.378 351.72 406.63 352.508 409.837C354.695 418.177 356.53 427.511 352.692 435.125Z" fill="black"/>
<path d="M44.9919 165.799C44.1756 166.708 43.5426 167.785 43.1317 168.964C36.3583 185.208 32.3575 202.605 31.3167 220.341C31.3349 221.205 31.1476 222.061 30.772 222.828C30.4017 223.339 29.9895 223.813 29.5402 224.246C29.1323 224.76 28.8279 225.359 28.6458 226.003C28.4638 226.648 28.4079 227.326 28.4817 227.994C28.5556 228.663 28.7575 229.308 29.075 229.89C29.3926 230.473 29.819 230.979 30.3279 231.379C31.7105 228.606 35.0204 227.706 37.9616 227.465C52.0474 226.279 65.8063 233.252 79.934 232.725C78.9369 229.061 77.504 225.539 76.6912 221.83C73.0964 205.361 82.0624 187.43 76.5655 171.568C75.4678 168.394 73.6327 165.273 70.7418 163.882C69.5449 163.367 68.2922 163.014 67.013 162.83C63.4433 162.143 56.3376 159.21 52.8853 160.387C51.6116 160.824 51.1089 162.099 50.053 162.865C48.4526 163.962 46.3242 164.363 44.9919 165.799Z" fill="#6C63FF"/>
<path d="M254.888 197.26H81.3837C77.6953 197.26 74.7053 200.407 74.7053 204.288V315.44C74.7053 319.321 77.6953 322.467 81.3837 322.467H254.888C258.576 322.467 261.566 319.321 261.566 315.44V204.288C261.566 200.407 258.576 197.26 254.888 197.26Z" fill="#3F3D56"/>
<path d="M167.717 266.021C170.493 266.021 172.744 263.264 172.744 259.864C172.744 256.463 170.493 253.707 167.717 253.707C164.94 253.707 162.689 256.463 162.689 259.864C162.689 263.264 164.94 266.021 167.717 266.021Z" fill="white"/>
<path d="M99.6089 12.2968C96.7934 14.4486 94.8661 17.5389 92.9053 20.5052C89.2938 25.9864 85.2047 31.4587 79.4313 34.5136C77.2442 35.6736 74.7472 36.5502 73.2975 38.5691C72.4371 39.9344 71.8786 41.487 71.6635 43.1116C70.5575 48.824 69.9794 54.6365 69.9374 60.4671C69.9374 63.3714 70.0547 66.3644 71.2697 69.0031C72.4177 71.4825 74.4874 73.581 74.9147 76.2817C75.2415 78.3892 74.5042 80.4878 74.2444 82.6041C73.9846 84.7204 74.4371 87.2263 76.289 88.2357C77.2868 88.6324 78.3288 88.8913 79.3894 89.0061C84.9617 90.3167 86.8303 97.2234 87.6766 102.935C89.5703 102.82 90.425 100.526 90.8189 98.6579L96.6258 71.3762C97.2542 68.4187 98.3017 64.9919 101.092 63.9559C102.961 63.274 105.005 63.9116 106.958 64.0887C114.625 64.7528 121.11 58.4924 128.61 56.7657C131.011 56.2538 133.465 56.0811 135.908 56.2521C141.824 56.5621 148.704 59.13 149.961 64.9653C150.17 65.9128 150.296 67.0462 151.134 67.5155C151.972 67.9848 152.852 67.5863 153.731 67.5155C157.485 67.117 159.698 71.5799 160.779 75.228L164.717 88.5103C165.303 90.5203 166.292 92.8845 168.354 93.1413C170.256 93.3893 171.873 91.4855 172.158 89.5994C172.443 87.7133 171.823 85.7564 171.412 83.8615C169.56 75.1395 172.392 66.2138 174.119 57.4741C175.845 48.7344 176.155 38.6931 170.365 31.9634C168.261 29.5283 165.496 27.7131 163.535 25.1452C161.709 22.7367 160.678 19.7792 158.784 17.4149C153.547 10.8889 140.115 5.85053 131.878 5.01818C122.468 3.93789 107.217 6.46152 99.6089 12.2968Z" fill="#3F3D56"/>
<g opacity="0.1">
<path opacity="0.1" d="M168.387 86.735C166.326 86.4659 165.337 84.044 164.75 82.0437C163.438 77.5527 162.125 73.0677 160.812 68.5887C159.731 64.8841 157.519 60.3632 153.765 60.7758C152.885 60.8745 151.938 61.2423 151.167 60.7758C150.396 60.3094 150.204 59.1523 149.994 58.1925C148.737 52.2723 141.858 49.68 135.942 49.366C133.499 49.1943 131.045 49.3662 128.644 49.8773C121.144 51.6713 114.658 57.9503 106.991 57.2955C105.014 57.1251 102.969 56.4792 101.126 57.1699C98.3017 58.2104 97.2878 61.6549 96.6593 64.6868L90.8524 92.3143C90.4585 94.2159 89.6039 96.5392 87.7101 96.6468C86.8722 90.8701 84.9952 83.8735 79.4229 82.546C78.3637 82.4211 77.3227 82.159 76.3225 81.7656C75.5935 81.3393 75.0228 80.6587 74.7053 79.837C74.5544 80.6712 74.3785 81.5055 74.2779 82.3397C74.0265 84.4745 74.4706 87.022 76.3225 88.0446C77.3203 88.4464 78.3624 88.7087 79.4229 88.825C84.9952 90.1525 86.8638 97.1491 87.7101 102.935C89.6039 102.818 90.4585 100.495 90.8524 98.6022L96.6593 70.9657C97.2878 67.9698 98.3352 64.4984 101.126 63.4489C102.994 62.7582 105.039 63.404 106.991 63.5834C114.658 64.2562 121.144 57.9144 128.644 56.1653C131.044 55.6467 133.498 55.4717 135.942 55.645C141.858 55.959 148.737 58.5602 149.994 64.4715C150.204 65.4313 150.329 66.5794 151.167 67.0548C152.005 67.5302 152.885 67.1266 153.765 67.0548C157.519 66.6512 159.731 71.1721 160.812 74.8677C162.119 79.3587 163.432 83.8437 164.75 88.3227C165.337 90.3588 166.326 92.7538 168.387 93.0139C170.289 93.2651 171.906 91.3366 172.191 89.4259C172.32 87.8183 172.149 86.1993 171.689 84.6629C171.39 85.3176 170.917 85.8634 170.33 86.2319C169.743 86.6005 169.067 86.7755 168.387 86.735Z" fill="black"/>
<path opacity="0.1" d="M74.9231 69.6561C74.4958 66.9203 72.4093 64.7944 71.2781 62.2828C70.5508 60.5888 70.13 58.7626 70.0379 56.9008C70.0379 57.9055 69.9541 58.9101 69.9457 59.9237C69.9457 62.8659 70.063 65.8977 71.2781 68.5707C72.2082 70.6069 73.7416 72.4009 74.5125 74.473C74.919 72.9069 75.0581 71.2751 74.9231 69.6561Z" fill="black"/>
<path opacity="0.1" d="M174.152 50.568C172.627 58.3898 170.247 66.3552 170.985 74.1949C171.462 68.4093 173.038 62.5877 174.152 56.847C175.082 52.4875 175.409 48.0057 175.124 43.5445C174.942 45.9057 174.618 48.2517 174.152 50.568Z" fill="black"/>
</g>
<defs>
<linearGradient id="paint0_linear" x1="177.353" y1="443.887" x2="177.353" y2="-0.0406692" gradientUnits="userSpaceOnUse">
<stop stop-color="#808080" stop-opacity="0.25"/>
<stop offset="0.54" stop-color="#808080" stop-opacity="0.12"/>
<stop offset="1" stop-color="#808080" stop-opacity="0.1"/>
</linearGradient>
</defs>
</svg>
