<svg xmlns="http://www.w3.org/2000/svg" xmlns:xlink="http://www.w3.org/1999/xlink" width="355" height="447" fill="none" xmlns:v="https://vecta.io/nano"><path d="M352.198 408.135c-.838-3.144-1.676-6.322-3.352-9.058a31.37 31.37 0 0 0-5.488-6.226c-6.075-5.714-13.533-11.515-21.586-10.074-2.49.571-4.897 1.482-7.156 2.71-1.173.564-2.354 1.129-3.561 1.606-3.397 1.472-7.151 1.812-10.742.973-1.844-.512-3.562-1.433-5.38-2.006a16.59 16.59 0 0 0-2.64-.591 44.52 44.52 0 0 0 5.104-2.787c9.033-5.732 16.239-16.092 15.233-27.172-.343-3.726-1.575-7.295-2.798-10.812l-3.218-9.223c-1.391-3.994-2.832-8.067-5.371-11.384-2.824-3.7-6.846-6.209-11.002-8.076-8.925-4.021-18.678-5.437-28.306-6.809l-.67-.095V201.316a7.08 7.08 0 0 0-1.964-4.913c-1.257-1.302-2.962-2.034-4.74-2.034h-12.653l-1.676-10.612c-1.592-10.082-3.243-20.347-7.726-29.422-2.932-5.94-7.6-11.61-13.893-12.774a13.11 13.11 0 0 1-3.611-.868c-1.844-.938-2.849-3.022-4.265-4.559-3.654-3.969-9.595-4.03-14.488-6.079-4.324-1.78-7.86-5.132-11.799-7.712s-8.831-4.411-13.189-2.735c0 .33-.058.66-.092.981l-2.799-1.337c-3.016-1.45-6.092-2.935-8.513-5.315-3.109-3.039-4.768-7.069-6.058-11.35l-.394-1.346c5.356-5.663 8.982-12.837 10.424-20.624l.678 2.284a15.42 15.42 0 0 0 .537 1.511 5.95 5.95 0 0 0 1.676 2.458 2.94 2.94 0 0 0 .703.425c.232.095.474.159.721.191a2.59 2.59 0 0 0 1.039-.078 3.93 3.93 0 0 0 1.522-.911c.435-.418.774-.931.992-1.503a5.31 5.31 0 0 0 .293-1.059 5.61 5.61 0 0 0 .059-.66v-.903c0-.087 0-.287-.042-.434v-.226c0-.174-.05-.347-.084-.512s0-.096 0-.139l-.134-.66v-.165c0-.052-.075-.356-.117-.538l-.084-.356v-.052l-.235-1.033c-.609-3.014-.764-6.107-.46-9.17.501-4.495 1.302-8.949 2.396-13.33l.176-.79.193-.92.394-1.885.301-1.598.226-1.424v-.182a42.65 42.65 0 0 0 .294-9.752c-.386-4.542-1.743-8.84-4.718-12.262-2.103-2.423-4.877-4.212-6.829-6.756-1.827-2.379-2.857-5.315-4.751-7.651-5.229-6.47-18.653-11.454-26.89-12.323-9.435-.99-24.677 1.511-32.286 7.286-2.815 2.128-4.743 5.21-6.704 8.128-3.603 5.428-7.692 10.846-13.466 13.895-2.179 1.146-4.676 2.015-6.125 4.012a11.09 11.09 0 0 0-1.634 4.498 92.33 92.33 0 0 0-1.726 17.177v2.171a16.32 16.32 0 0 0 1.307 6.279 12.06 12.06 0 0 0 .444.868l.101.182c1.013 1.501 1.91 3.084 2.681 4.733a6.44 6.44 0 0 1 .411 1.442c.144 1.272.064 2.561-.235 3.804 0 .191-.075.382-.109.573l-.075.374c0 .13 0 .26-.067.382-.067.373-.126.747-.176 1.112a8.09 8.09 0 0 0 .184 3.005 4.02 4.02 0 0 0 .66 1.509 3.86 3.86 0 0 0 1.2 1.096 5.31 5.31 0 0 0 1.508.486c.528.096 1.064.156 1.584.278.668.158 1.313.406 1.919.738a7.7 7.7 0 0 1 1.617 1.077c.244.23.477.474.695.729a12.15 12.15 0 0 1 1.19 1.685 15.05 15.05 0 0 1 .503.938c.6 1.257 1.08 2.571 1.433 3.925a35.34 35.34 0 0 1 .561 2.44c.076.365.143.73.201 1.085l.168 1.077a2.36 2.36 0 0 0 .67-.139c1.232-.46 1.919-1.945 2.304-3.387a12.61 12.61 0 0 0 .176-.712l.587-2.735c3.303 7.269 8.629 13.348 15.292 17.455.235.721.461 1.433.662 2.162 1.098 3.934 1.626 8.05-.277 11.489-1.357 2.441-3.636 3.943-6.184 4.985-.367-.507-.839-.923-1.382-1.216-2.204-1.146-4.852.243-6.704 1.954-3.352 3.144-6.084 7.651-10.491 8.684-1.592.382-3.352.304-4.676 1.311a11.26 11.26 0 0 0-2.17 2.953c-.956 1.423-2.243 2.575-3.74 3.349s-3.159 1.145-4.832 1.08c-1.534-.078-3.352-.443-4.399.721-.779.868-.838 2.24-1.676 3.065-1.123 1.146-2.966.591-4.533.521-2.983-.13-5.757 1.867-7.458 4.429s-2.514 5.627-3.352 8.684v.052c-.215.162-.419.339-.612.53a9.22 9.22 0 0 0-1.852 3.109c-6.776 15.989-10.776 33.093-11.815 50.523.017.85-.168 1.691-.536 2.449-.375.496-.787.961-1.232 1.39a4.93 4.93 0 0 0-.871 1.714 5.04 5.04 0 0 0-.158 1.93 5 5 0 0 0 .581 1.842c.311.567.728 1.064 1.227 1.461.241-.453.543-.868.897-1.233a18.76 18.76 0 0 0-.235 1.146 31.93 31.93 0 0 0-.092 7.642l2.405 36.169.754 10.221a259.92 259.92 0 0 0 2.514 19.687c.05.295.109.599.184.868-6.829 2.249-12.904 6.314-15.46 13.096-.888 2.345-1.29 4.898-2.38 7.147-1.198 2.466-3.167 4.437-4.475 6.851-2.254 4.151-2.355 9.24-1.533 13.895 1.584 9.075 6.318 17.186 12.569 23.785h-.838c-2.042.235-4.003.964-5.723 2.128C5.366 376.256-2.193 393.433.564 409.116c.545 3.066 1.492 6.174 3.469 8.51 1.644 1.857 3.757 3.199 6.1 3.873 1.465.457 2.974.749 4.5.869 10.307.868 20.287-4.082 30.618-4.498 3.423-.057 6.845.108 10.248.495 4.977.428 9.963.7 14.957.816 8.12.2 12.686-2.041 17.865-8.328a22.8 22.8 0 0 0 3.159-5.158c4.408-.261 9.276-.66 12.795-.956l.05.504c.193 1.737.486 3.734 1.827 4.828.754.539 1.612.904 2.514 1.068 8.463 2.154 17.027 4.342 25.742 4.342a104.91 104.91 0 0 0 12.225-.972l15.309-1.832a73.96 73.96 0 0 1 13.156 2.969c4.424 1.555 8.555 3.865 12.879 5.697 10.055 4.221 20.865 5.732 31.574 7.208 1.827.252 3.921.425 5.27-.868 1.743-1.737 1.165-4.638.671-7.069-.201-.999-.352-1.998-.469-3.005a143.47 143.47 0 0 1 21.149 7.607l1.198.547c.352 1.893 2.037 3.404 3.654 5.445.531.862 1.152 1.66 1.852 2.38a6.04 6.04 0 0 0 2.656.99 119.62 119.62 0 0 0 34.297 1.606c2.343-.331 4.713-.415 7.072-.252 1.734.245 3.444.643 5.112 1.19l9.695 2.883c7.147 2.119 14.462 4.264 21.878 3.786a26.96 26.96 0 0 0 4.466-.668c5.866-1.407 11.329-4.803 14.145-10.265 3.98-7.425 2.145-16.56 0-24.723z" fill="url(#A)"/><path d="M80.948 406.441c-1.768-4.168-3.444-8.962-1.676-13.13 1.154-2.455 3.137-4.386 5.572-5.427 2.41-1.019 4.951-1.668 7.541-1.928 8.132-1.106 16.36-1.222 24.518-.348.595 4.881-.662 9.831-1.743 14.546-.98 4.342-1.542 4.985-5.866 5.211-2.798.156-27.685 2.613-28.347 1.076z" fill="#fbbebe"/><use xlink:href="#B" fill="#464353"/><use xlink:href="#B" opacity=".1" fill="#000"/><path d="M177.051 160.214c-4.107 8.226-10.929 14.648-19.222 18.098-4.896 1.849-10.049 2.864-15.259 3.005-5.689.269-11.496-.113-16.842-2.128-7.173-2.692-13.131-8.198-17.597-14.615s-7.542-13.747-10.215-21.137c-1.408-3.847-2.748-7.946-2.086-12.01 4.315-1.016 9.041-2.51 11.27-6.478 1.902-3.405 1.374-7.486.277-11.377-.31-1.102-.671-2.197-1.031-3.247-.838-2.519-3.729-7.304-1.676-9.457 1.282-1.364 6.653-2.058 8.505-2.944 5.707-2.727 10.969-6.669 17.237-7.963 5.421-1.12 11.019-.07 16.432 1.094a5.28 5.28 0 0 1 2.027.755c.708.618 1.231 1.431 1.509 2.345 1.542 3.89 2.447 8.189 3.687 12.244 1.29 4.247 2.949 8.233 6.058 11.246 2.422 2.354 5.505 3.83 8.522 5.263l7.424 3.526c1.321.512 2.518 1.315 3.511 2.353.971 1.383 1.551 3.019 1.676 4.724 1.33 9.138-.141 18.478-4.207 26.703z" fill="#fbbebe"/><path opacity=".1" d="M154.033 106.399c-5.912 6.38-13.7 10.545-22.142 11.843s-17.061-.344-24.506-4.669c-.31-1.103-.67-2.198-1.031-3.248-.838-2.519-3.729-7.304-1.676-9.457 1.282-1.364 6.654-2.058 8.506-2.944 5.706-2.727 10.968-6.669 17.236-7.963 5.421-1.12 11.019-.07 16.432 1.094.718.108 1.408.365 2.028.755a5.07 5.07 0 0 1 1.508 2.345c1.5 3.89 2.405 8.189 3.645 12.244z" fill="#000"/><path d="M126.239 116.933c21.288 0 38.545-17.885 38.545-39.946S147.527 37.04 126.239 37.04 87.693 54.925 87.693 76.987s17.258 39.946 38.546 39.946z" fill="#fbbebe"/><path d="M243.676 206.631l-3.167-19.887c-1.601-9.978-3.252-20.147-7.726-29.135-2.941-5.888-7.609-11.497-13.902-12.661-1.239-.115-2.457-.407-3.62-.869-1.843-.92-2.849-2.987-4.265-4.515-3.653-3.925-9.602-3.986-14.496-5.984-4.324-1.736-7.86-5.08-11.798-7.633s-8.841-4.342-13.198-2.709c-.704 7.772-1.449 15.718-4.634 22.795-2.072 4.608-5.112 8.677-8.897 11.91s-8.22 5.549-12.98 6.778a31.79 31.79 0 0 1-14.53.323c-4.807-1.015-9.333-3.131-13.249-6.193-7.466-5.827-12.251-14.815-14.48-24.22-.544-2.292-1.164-4.924-3.201-5.974-2.204-1.147-4.852.243-6.704 1.927-3.352 3.118-6.092 7.582-10.499 8.632-1.592.383-3.352.304-4.676 1.303a10.99 10.99 0 0 0-2.179 2.927c-.965 1.412-2.253 2.553-3.75 3.32a9.77 9.77 0 0 1-4.822 1.074c-1.533-.078-3.352-.443-4.399.712-.779.868-.838 2.223-1.676 3.03-1.131 1.138-2.966.582-4.542.522-2.983-.131-5.757 1.849-7.466 4.342s-2.514 5.575-3.352 8.562l26.697 63.437c.429.796.657 1.693.662 2.605a6.46 6.46 0 0 1-1.14 2.605c-4.491 7.477-4.349 16.882-3.855 25.67s1.098 18.072-2.69 25.948c-1.031 2.162-2.371 4.142-3.352 6.305-2.296 4.898-3.126 20.564-1.785 25.826h189.441c-3.611-10.291-2.237-30.941-1.483-41.866.528-7.642-.838-15.275-1.424-22.917-1.282-15.605-.377-30.411-2.866-45.99z" fill="#6c63ff"/><path d="M30.956 229.383a31.85 31.85 0 0 0-.101 7.581l2.405 35.839.754 10.117c.578 6.539 1.441 13.026 2.514 19.504.024.92.4 1.792 1.044 2.426s1.504.976 2.392.952c10.6 2.327 21.552 2.232 32.37 1.598 16.507-.955 32.99-3.135 49.522-2.762 4.257.096 9.218 0 11.798-3.473s1.081-9.092-2.287-11.897-7.944-3.474-12.268-3.474c-5.723-.061-11.446.782-17.152.434-5.237-.321-10.357-1.632-15.435-2.944l-14.245-3.673c.545-4.472 2.187-8.684 3.746-12.93 2.799-7.529 5.413-15.31 5.463-23.378s-2.883-16.552-9.259-21.171c-5.245-3.795-11.999-4.499-18.393-4.342-4.651.138-12.686-1.017-16.935.868-3.36 1.528-5.304 7.312-5.933 10.725z" fill="#fbbebe"/><use xlink:href="#C" fill="#464353"/><use xlink:href="#C" opacity=".05" fill="#000"/><path d="M88.657 411.808c-5.187 6.227-9.754 8.45-17.873 8.25-4.994-.122-9.983-.391-14.966-.808a81.17 81.17 0 0 0-10.256-.495c-10.34.417-20.32 5.324-30.635 4.464a21.13 21.13 0 0 1-4.5-.868c-2.34-.669-4.455-1.998-6.109-3.839-1.978-2.318-2.924-5.393-3.469-8.432-2.757-15.579 4.801-32.548 18.032-40.476 1.726-1.156 3.689-1.878 5.732-2.11 2.003-.009 3.983.442 5.799 1.32l.126.052c5.375 2.292 10.257 5.669 14.362 9.934.623.739 1.366 1.359 2.195 1.832.828.325 1.704.495 2.589.504l11.011.721a25.29 25.29 0 0 1 5.53.79c1.996.722 3.94 1.593 5.815 2.605 5.924 2.745 12.494 3.474 18.896 4.533.617.036 1.206.28 1.676.695.255.33.433.716.52 1.129.9 3.49.962 7.155.182 10.675s-2.379 6.79-4.657 9.524z" fill="#3f3d56"/><path opacity=".1" d="M30.537 368.874c-4.272 4.228-7.978 9.029-11.019 14.277-4.88 8.66-7.946 18.288-8.999 28.258-.399 3.637-.43 7.307-.092 10.95-2.34-.668-4.455-1.997-6.109-3.838-1.978-2.319-2.924-5.393-3.469-8.432-2.757-15.579 4.801-32.548 18.032-40.477a12.93 12.93 0 0 1 5.732-2.11c2.003-.008 3.983.442 5.799 1.32l.126.052z" fill="#000"/><path d="M243.785 390.48c6.159-.174 13.072-.495 17.597 3.804 4.315 4.064 4.885 10.768 5.17 16.803l.327 7.008c.1 2.137.184 4.342-.646 6.322-1.474 3.474-5.522 5.15-9.217 4.95s-7.089-1.875-10.466-3.386c-9.168-4.094-18.713-7.21-28.49-9.301.319-4.846.849-9.668 1.592-14.468.511-3.326.595-8.892 2.74-11.654 2.271-2.918 5.229-1.337 8.313-.799 4.326.685 8.708.926 13.08.721z" fill="#fbbebe"/><path d="M81.023 320.344c0 .881-1.316 0-1.433-.943-.922-7.129-6.301-13.006-12.569-15.861s-13.407-3.005-20.194-2.327c-10.265 1.022-21.786 5.155-25.54 15.245-.888 2.361-1.291 4.917-2.38 7.181-1.207 2.485-3.176 4.468-4.483 6.882-2.254 4.177-2.346 9.297-1.533 14.02 2.187 12.601 10.382 23.378 20.312 30.842s21.535 11.922 33.107 15.94c30.599 10.613 61.993 18.498 93.849 23.572 5.162.82 10.374 1.578 15.318 3.322 4.424 1.56 8.564 3.895 12.888 5.728 10.055 4.247 20.873 5.763 31.59 7.252 1.827.247 3.921.423 5.271-.881 1.742-1.701 1.164-4.661.67-7.102-1.819-9.281-.293-18.942 4.282-27.106 1.793-3.172 4.122-6.424 3.787-10.098-.402-4.283-4.458-7.314-8.496-8.001s-8.145.326-12.201.881c-1.399.194-2.924.317-4.148-.432a8.42 8.42 0 0 1-1.625-1.516c-2.794-2.834-6.37-4.665-10.215-5.23s-7.76.165-11.186 2.085c-1.5.881-3.771-1.084-5.33-1.824l-17.621-8.389c-20.245-9.632-40.59-19.307-62.008-25.405-1.709-.353-3.333-1.063-4.776-2.088-1.064-.882-1.827-2.08-2.807-3.058-2.137-2.124-5.111-2.97-7.675-4.477s-5.438-5.19-4.852-8.212z" fill="#464353"/><path d="M352.692 435.106c-2.815 5.579-8.279 9.054-14.144 10.487-1.472.355-2.969.582-4.475.68-7.416.493-14.739-1.701-21.887-3.868l-9.703-2.92c-1.668-.561-3.378-.968-5.112-1.218-2.359-.168-4.729-.081-7.072.26-11.468 1.14-23.029.586-34.355-1.648a5.82 5.82 0 0 1-2.657-1.011 13.99 13.99 0 0 1-1.852-2.427c-2.639-3.394-5.48-5.373-2.354-9.851 1.801-2.597 5.145-3.895 6.544-6.877s.503-7.218-.327-10.298c-1.131-4.254-4.851-6.09-6.184-9.994-.997-2.946.679-6.367 3.201-7.97s5.64-1.728 8.547-1.316 5.757 1.289 8.681 1.531c8.598.734 17.388-4.003 25.641-1.334 1.819.591 3.536 1.531 5.38 2.051 3.594.859 7.348.512 10.751-.994 1.206-.484 2.388-1.066 3.561-1.639a27.51 27.51 0 0 1 7.164-2.767c8.053-1.478 15.519 4.477 21.594 10.289a31.94 31.94 0 0 1 5.489 6.358c1.676 2.794 2.564 6.044 3.351 9.25 2.221 8.284 4.056 17.615.218 25.226z" fill="#3f3d56"/><path opacity=".1" d="M352.692 435.125c-2.815 5.581-8.279 9.057-14.144 10.49 2.281-4.739 3.31-10.054 2.974-15.372-.502-8.519-4.005-16.545-8.471-23.622-2.748-4.356-5.873-8.426-9.335-12.156-2.664-2.866-5.941-5.142-8.807-7.766a27.52 27.52 0 0 1 7.165-2.768c8.052-1.478 15.519 4.479 21.594 10.292 2.085 1.851 3.931 3.989 5.488 6.361 1.676 2.794 2.564 6.046 3.352 9.253 2.187 8.34 4.022 17.674.184 25.288z" fill="#000"/><path d="M44.992 165.799a9.33 9.33 0 0 0-1.86 3.165c-6.773 16.244-10.774 33.641-11.815 51.377.018.864-.169 1.72-.545 2.487-.37.511-.782.985-1.232 1.418a5.03 5.03 0 0 0-.894 1.757 5.23 5.23 0 0 0-.164 1.991 5.14 5.14 0 0 0 .593 1.896c.318.583.744 1.089 1.253 1.489 1.383-2.773 4.693-3.673 7.634-3.914 14.086-1.186 27.845 5.787 41.972 5.26-.997-3.664-2.43-7.186-3.243-10.895-3.595-16.469 5.371-34.4-.126-50.262-1.098-3.174-2.933-6.295-5.824-7.686a14.74 14.74 0 0 0-3.729-1.052c-3.57-.687-10.675-3.62-14.128-2.443-1.274.437-1.776 1.712-2.832 2.478-1.6 1.097-3.729 1.498-5.061 2.934z" fill="#6c63ff"/><path d="M254.888 197.26H81.384c-3.688 0-6.678 3.147-6.678 7.028V315.44c0 3.881 2.99 7.027 6.678 7.027h173.504c3.688 0 6.678-3.146 6.678-7.027V204.288c0-3.881-2.99-7.028-6.678-7.028z" fill="#3f3d56"/><path d="M167.717 266.021c2.776 0 5.027-2.757 5.027-6.157s-2.251-6.157-5.027-6.157-5.028 2.756-5.028 6.157 2.251 6.157 5.028 6.157z" fill="#fff"/><path d="M99.609 12.297c-2.815 2.152-4.743 5.242-6.704 8.208-3.611 5.481-7.701 10.954-13.474 14.008-2.187 1.16-4.684 2.037-6.134 4.056-.86 1.365-1.419 2.918-1.634 4.543-1.106 5.712-1.684 11.525-1.726 17.356 0 2.904.117 5.897 1.332 8.536 1.148 2.479 3.218 4.578 3.645 7.279.327 2.108-.41 4.206-.67 6.322s.193 4.622 2.045 5.632c.998.397 2.04.656 3.1.77 5.572 1.311 7.441 8.217 8.287 13.929 1.894-.115 2.748-2.409 3.142-4.277l5.807-27.282c.628-2.957 1.676-6.384 4.466-7.42 1.869-.682 3.913-.044 5.866.133 7.667.664 14.152-5.596 21.652-7.323 2.401-.512 4.855-.685 7.298-.514 5.916.31 12.796 2.878 14.053 8.713.209.948.335 2.081 1.173 2.55s1.718.071 2.597 0c3.754-.398 5.967 4.064 7.048 7.712l3.938 13.282c.586 2.01 1.575 4.374 3.637 4.631 1.902.248 3.519-1.656 3.804-3.542s-.335-3.843-.746-5.738c-1.852-8.722.98-17.648 2.707-26.387s2.036-18.781-3.754-25.511c-2.104-2.435-4.869-4.25-6.83-6.818-1.826-2.408-2.857-5.366-4.751-7.73-5.237-6.526-18.669-11.564-26.906-12.397-9.41-1.08-24.661 1.443-32.269 7.279z" fill="#3f3d56"/><path opacity=".01" d="M168.387 86.735c-2.061-.269-3.05-2.691-3.637-4.691l-3.938-13.455c-1.081-3.705-3.293-8.226-7.047-7.813-.88.099-1.827.467-2.598 0s-.963-1.623-1.173-2.583c-1.257-5.92-8.136-8.513-14.052-8.827a26.21 26.21 0 0 0-7.298.511c-7.5 1.794-13.986 8.073-21.653 7.418-1.977-.17-4.022-.816-5.865-.126-2.824 1.041-3.838 4.485-4.467 7.517l-5.807 27.627c-.394 1.902-1.249 4.225-3.142 4.332-.838-5.777-2.715-12.773-8.287-14.101a12.45 12.45 0 0 1-3.1-.78 3.81 3.81 0 0 1-1.617-1.929c-.151.834-.327 1.668-.427 2.503-.251 2.135.193 4.682 2.045 5.705a11.7 11.7 0 0 0 3.1.78c5.572 1.328 7.441 8.324 8.287 14.11 1.894-.117 2.748-2.44 3.142-4.333l5.807-27.636c.629-2.996 1.676-6.467 4.467-7.517 1.868-.691 3.913-.045 5.865.134 7.667.673 14.153-5.669 21.653-7.418a25.87 25.87 0 0 1 7.298-.52c5.916.314 12.795 2.915 14.052 8.827.21.96.335 2.108 1.173 2.583s1.718.072 2.598 0c3.754-.404 5.966 4.117 7.047 7.813l3.938 13.455c.587 2.036 1.576 4.431 3.637 4.691 1.902.251 3.519-1.677 3.804-3.588a13 13 0 0 0-.502-4.763 3.62 3.62 0 0 1-1.359 1.569 3.28 3.28 0 0 1-1.943.503zM74.923 69.656c-.427-2.736-2.514-4.862-3.645-7.373a15.61 15.61 0 0 1-1.24-5.382l-.092 3.023c0 2.942.117 5.974 1.332 8.647.93 2.036 2.464 3.83 3.234 5.902a14.42 14.42 0 0 0 .411-4.817zm99.229-19.088c-1.525 7.822-3.905 15.787-3.167 23.627.477-5.786 2.053-11.607 3.167-17.348a48.87 48.87 0 0 0 .972-13.303 58.35 58.35 0 0 1-.972 7.023z" fill="#000"/><defs><linearGradient id="A" x1="177.353" y1="443.887" x2="177.353" y2="-.041" gradientUnits="userSpaceOnUse"><stop stop-color="gray" stop-opacity=".25"/><stop offset=".54" stop-color="gray" stop-opacity=".12"/><stop offset="1" stop-color="gray" stop-opacity=".1"/></linearGradient><path id="B" d="M155.567 378.322c66.177 0 119.825-15.551 119.825-34.736s-53.648-34.736-119.825-34.736-119.826 15.552-119.826 34.736 53.648 34.736 119.826 34.736z"/><path id="C" d="M253.371 311.325c2.79-1.103 5.866-.703 8.857-.286 9.628 1.363 19.398 2.761 28.323 6.747 4.189 1.859 8.178 4.342 11.01 7.998 2.514 3.291 3.98 7.321 5.371 11.289l3.218 9.136c1.223 3.474 2.464 7.017 2.807 10.707 1.006 10.934-6.209 21.242-15.284 26.921s-19.759 7.703-30.166 9.822-20.856 4.463-31.222 6.947a121.93 121.93 0 0 1-14.689 2.996c-11.094 1.302-22.691-.617-33.232 3.187-4.19 1.519-8.304 3.777-12.653 4.828a76.18 76.18 0 0 1-8.748 1.381l-19.952 2.362c-4.057.562-8.141.887-12.234.973-8.714 0-17.286-2.137-25.75-4.273a6.39 6.39 0 0 1-2.513-1.051c-1.341-1.094-1.634-3.03-1.827-4.785l-2.246-23.316c-.201-2.527-.352-5.263.981-7.39 1.675-2.606 4.943-3.422 7.926-3.926 12.65-2.144 25.464-3.066 38.278-2.752 4.868-5.046 12.896-5.072 19.272-7.816 2.346-1.117 4.617-2.396 6.796-3.83 11.407-6.897 24.154-11.071 37.313-12.218 2.578-.082 5.138-.46 7.634-1.129 4.936-1.589 9.435-5.914 14.505-4.854.628-1.798 1.064-4.204 2.514-5.437.72-.634 1.609-1.059 2.271-1.736 1.399-1.468 1.525-3.778 1.315-5.827s-.679-4.151-.167-6.149c.212-.756.525-1.478.93-2.145 2.513-4.498 6.309-6.808 11.362-6.374z"/></defs></svg>