<svg width="40" height="45" viewBox="0 0 40 45" fill="none" xmlns="http://www.w3.org/2000/svg">
<path d="M23.3333 11.9531V0H2.5C1.11458 0 0 0.94043 0 2.10938V42.8906C0 44.0596 1.11458 45 2.5 45H37.5C38.8854 45 40 44.0596 40 42.8906V14.0625H25.8333C24.4583 14.0625 23.3333 13.1133 23.3333 11.9531ZM31.2969 30.5297L21.2531 38.9408C20.5604 39.5218 19.4417 39.5218 18.749 38.9408L8.70521 30.5297C7.64792 29.6446 8.38958 28.125 9.87708 28.125H16.6667V21.0938C16.6667 20.3168 17.4125 19.6875 18.3333 19.6875H21.6667C22.5875 19.6875 23.3333 20.3168 23.3333 21.0938V28.125H30.1229C31.6104 28.125 32.3521 29.6446 31.2969 30.5297ZM39.2708 9.22852L29.0729 0.615234C28.6042 0.219727 27.9688 0 27.3021 0H26.6667V11.25H40V10.7139C40 10.1602 39.7396 9.62402 39.2708 9.22852Z" fill="white"/>
</svg>
