<svg width="60" height="40" viewBox="0 0 60 40" fill="none" xmlns="http://www.w3.org/2000/svg">
<path d="M60 0H0V40.0004H60V0Z" fill="#F0F0F0"/>
<path d="M60 4.99957H0V9.99913H60V4.99957Z" fill="#D80027"/>
<path d="M60 15H0V19.9996H60V15Z" fill="#D80027"/>
<path d="M60 24.9991H0V29.9987H60V24.9991Z" fill="#D80027"/>
<path d="M60 34.9996H0V39.9991H60V34.9996Z" fill="#D80027"/>
<path d="M30 0H0V21.5387H30V0Z" fill="#2E52B2"/>
<path d="M11.6979 8.82339L11.2148 10.3098H9.65195L10.9165 11.228L10.4334 12.7143L11.6979 11.7961L12.9617 12.7143L12.4786 11.228L13.7432 10.3098H12.1803L11.6979 8.82339Z" fill="#F0F0F0"/>
<path d="M12.1803 15.6737L11.6979 14.1874L11.2148 15.6737H9.65195L10.9165 16.592L10.4334 18.0783L11.6979 17.16L12.9617 18.0783L12.4786 16.592L13.7432 15.6737H12.1803Z" fill="#F0F0F0"/>
<path d="M5.57543 15.6737L5.09297 14.1874L4.60981 15.6737H3.047L4.31157 16.592L3.8284 18.0783L5.09297 17.16L6.35684 18.0783L5.87379 16.592L7.13813 15.6737H5.57543Z" fill="#F0F0F0"/>
<path d="M5.09297 8.82339L4.60981 10.3098H3.047L4.31157 11.228L3.8284 12.7143L5.09297 11.7961L6.35684 12.7143L5.87379 11.228L7.13813 10.3098H5.57543L5.09297 8.82339Z" fill="#F0F0F0"/>
<path d="M11.6979 3.45926L11.2148 4.94578H9.65195L10.9165 5.86406L10.4334 7.35035L11.6979 6.43207L12.9617 7.35035L12.4786 5.86406L13.7432 4.94578H12.1803L11.6979 3.45926Z" fill="#F0F0F0"/>
<path d="M5.093 3.45926L4.60984 4.94578H3.04703L4.3116 5.86406L3.82843 7.35035L5.093 6.43207L6.35687 7.35035L5.87382 5.86406L7.13816 4.94578H5.57546L5.093 3.45926Z" fill="#F0F0F0"/>
<path d="M18.3027 8.82339L17.8196 10.3098H16.2568L17.5213 11.228L17.0384 12.7143L18.3027 11.7961L19.5667 12.7143L19.0835 11.228L20.3481 10.3098H18.7853L18.3027 8.82339Z" fill="#F0F0F0"/>
<path d="M18.7853 15.6737L18.3027 14.1874L17.8196 15.6737H16.2568L17.5213 16.592L17.0384 18.0783L18.3027 17.16L19.5667 18.0783L19.0835 16.592L20.3481 15.6737H18.7853Z" fill="#F0F0F0"/>
<path d="M25.3902 15.6737L24.9078 14.1874L24.4246 15.6737H22.8619L24.1262 16.592L23.6432 18.0783L24.9078 17.16L26.1716 18.0783L25.6885 16.592L26.953 15.6737H25.3902Z" fill="#F0F0F0"/>
<path d="M24.9078 8.82339L24.4246 10.3098H22.8619L24.1262 11.228L23.6432 12.7143L24.9078 11.7961L26.1716 12.7143L25.6885 11.228L26.953 10.3098H25.3902L24.9078 8.82339Z" fill="#F0F0F0"/>
<path d="M18.3027 3.45926L17.8196 4.94578H16.2568L17.5213 5.86406L17.0384 7.35035L18.3027 6.43207L19.5667 7.35035L19.0835 5.86406L20.3481 4.94578H18.7853L18.3027 3.45926Z" fill="#F0F0F0"/>
<path d="M24.9078 3.45926L24.4246 4.94578H22.8619L24.1262 5.86406L23.6432 7.35035L24.9078 6.43207L26.1716 7.35035L25.6885 5.86406L26.953 4.94578H25.3902L24.9078 3.45926Z" fill="#F0F0F0"/>
</svg>
