<svg width="30" height="20" viewBox="0 0 30 20" fill="none" xmlns="http://www.w3.org/2000/svg">
<path d="M28.9286 2.67347H1.07143C1.0447 2.67347 1.02077 2.67102 1 2.6672V1.00627C1.02077 1.00245 1.0447 1 1.07143 1H28.9286C28.9553 1 28.9792 1.00245 29 1.00627V2.6672C28.9792 2.67102 28.9553 2.67347 28.9286 2.67347ZM28.9286 10.8367H1.07143C1.0447 10.8367 1.02077 10.8343 1 10.8305V9.16953C1.02077 9.16571 1.0447 9.16327 1.07143 9.16327H28.9286C28.9553 9.16327 28.9792 9.16571 29 9.16953V10.8305C28.9792 10.8343 28.9553 10.8367 28.9286 10.8367ZM28.9286 19H1.07143C1.0447 19 1.02077 18.9976 1 18.9937V17.3328C1.02077 17.329 1.0447 17.3265 1.07143 17.3265H28.9286C28.9553 17.3265 28.9792 17.329 29 17.3328V18.9937C28.9792 18.9976 28.9553 19 28.9286 19Z" fill="#E0245E" stroke="#E0245E" stroke-width="2"/>
</svg>
