<svg width="31" height="34" viewBox="0 0 31 34" fill="none" xmlns="http://www.w3.org/2000/svg">
<path d="M25.4814 20.7708H23.6064C23.3577 20.7708 23.1193 20.8786 22.9435 21.0704C22.7677 21.2622 22.6689 21.5223 22.6689 21.7936V28.9526H3.91888V8.4981H12.3564C12.605 8.4981 12.8435 8.39035 13.0193 8.19855C13.1951 8.00675 13.2939 7.74662 13.2939 7.47537V5.42992C13.2939 5.15868 13.1951 4.89854 13.0193 4.70674C12.8435 4.51494 12.605 4.40719 12.3564 4.40719H2.98138C2.23546 4.40719 1.52009 4.73045 0.992646 5.30584C0.4652 5.88124 0.168884 6.66164 0.168884 7.47537L0.168884 29.9754C0.168884 30.7891 0.4652 31.5695 0.992646 32.1449C1.52009 32.7203 2.23546 33.0436 2.98138 33.0436H23.6064C24.3523 33.0436 25.0677 32.7203 25.5951 32.1449C26.1226 31.5695 26.4189 30.7891 26.4189 29.9754V21.7936C26.4189 21.5223 26.3201 21.2622 26.1443 21.0704C25.9685 20.8786 25.73 20.7708 25.4814 20.7708ZM28.7626 0.316284H21.2626C20.0105 0.316284 19.3847 1.97246 20.2665 2.93702L22.3601 5.2209L8.07904 20.7945C7.94794 20.937 7.84392 21.1064 7.77294 21.2928C7.70197 21.4793 7.66543 21.6792 7.66543 21.8811C7.66543 22.083 7.70197 22.283 7.77294 22.4694C7.84392 22.6559 7.94794 22.8253 8.07904 22.9678L9.40736 24.4143C9.53801 24.5573 9.69325 24.6708 9.86418 24.7482C10.0351 24.8256 10.2184 24.8655 10.4035 24.8655C10.5885 24.8655 10.7718 24.8256 10.9427 24.7482C11.1137 24.6708 11.2689 24.5573 11.3995 24.4143L25.6736 8.83816L27.7665 11.1188C28.6454 12.0776 30.1689 11.4065 30.1689 10.0322V1.85038C30.1689 1.44351 30.0207 1.05331 29.757 0.765609C29.4933 0.477911 29.1356 0.316284 28.7626 0.316284V0.316284Z" fill="white"/>
</svg>
