<svg width="30" height="31" viewBox="0 0 30 31" fill="none" xmlns="http://www.w3.org/2000/svg">
<path d="M9.73915 24.1585C9.73915 24.2826 9.60413 24.3819 9.43388 24.3819C9.24016 24.4005 9.10514 24.3012 9.10514 24.1585C9.10514 24.0345 9.24016 23.9352 9.4104 23.9352C9.58652 23.9166 9.73915 24.0159 9.73915 24.1585ZM7.91343 23.8794C7.87233 24.0034 7.98974 24.1461 8.16586 24.1834C8.31849 24.2454 8.49461 24.1834 8.52983 24.0593C8.56505 23.9352 8.45351 23.7925 8.2774 23.7367C8.12476 23.6932 7.95452 23.7553 7.91343 23.8794ZM10.5082 23.7739C10.3379 23.8173 10.2205 23.9352 10.2381 24.0779C10.2558 24.202 10.4084 24.2826 10.5845 24.2392C10.7547 24.1958 10.8722 24.0779 10.8545 23.9538C10.8369 23.8359 10.6784 23.7553 10.5082 23.7739ZM14.371 0C6.22859 0 0 6.53286 0 15.1379C0 22.0182 4.0976 27.9058 9.95049 29.9779C10.7019 30.1206 10.9661 29.6305 10.9661 29.2273C10.9661 28.8426 10.9485 26.7208 10.9485 25.418C10.9485 25.418 6.83913 26.3486 5.97616 23.5692C5.97616 23.5692 5.30693 21.7638 4.34417 21.2985C4.34417 21.2985 2.99982 20.3244 4.43809 20.3431C4.43809 20.3431 5.89985 20.4671 6.7041 21.9437C7.98974 24.3385 10.1442 23.6498 10.9837 23.2403C11.1187 22.2477 11.5003 21.5591 11.923 21.1496C8.64137 20.7649 5.33041 20.2624 5.33041 14.2941C5.33041 12.588 5.77657 11.7318 6.71585 10.6399C6.56321 10.2367 6.06422 8.57399 6.86848 6.42739C8.09541 6.02413 10.9191 8.10248 10.9191 8.10248C12.0932 7.75506 13.3554 7.57514 14.6058 7.57514C15.8562 7.57514 17.1184 7.75506 18.2925 8.10248C18.2925 8.10248 21.1162 6.01792 22.3431 6.42739C23.1474 8.58019 22.6484 10.2367 22.4957 10.6399C23.435 11.7381 24.0103 12.5942 24.0103 14.2941C24.0103 20.281 20.5526 20.7587 17.271 21.1496C17.8111 21.6397 18.269 22.5703 18.269 24.0283C18.269 26.119 18.2514 28.7061 18.2514 29.2148C18.2514 29.6181 18.5214 30.1082 19.267 29.9655C25.1375 27.9058 29.1176 22.0182 29.1176 15.1379C29.1176 6.53286 22.5133 0 14.371 0ZM5.70612 21.3977C5.6298 21.4598 5.64742 21.6025 5.74721 21.7204C5.84114 21.8196 5.97616 21.8631 6.05248 21.7824C6.1288 21.7204 6.11118 21.5777 6.01139 21.4598C5.91746 21.3605 5.78244 21.3171 5.70612 21.3977ZM5.07211 20.8952C5.03101 20.9759 5.08972 21.0751 5.20713 21.1372C5.30106 21.1992 5.41847 21.1806 5.45956 21.0938C5.50065 21.0131 5.44195 20.9138 5.32454 20.8518C5.20713 20.8146 5.1132 20.8332 5.07211 20.8952ZM6.97415 23.1039C6.88022 23.1845 6.91544 23.3706 7.05046 23.4885C7.18548 23.6312 7.35573 23.6498 7.43204 23.5506C7.50836 23.4699 7.47314 23.2838 7.35573 23.1659C7.22658 23.0232 7.05046 23.0046 6.97415 23.1039ZM6.30491 22.1919C6.21098 22.2539 6.21098 22.4152 6.30491 22.5579C6.39884 22.7006 6.55734 22.7626 6.63366 22.7006C6.72759 22.6199 6.72759 22.4586 6.63366 22.3159C6.55147 22.1733 6.39884 22.1112 6.30491 22.1919Z" fill="white"/>
</svg>
