<svg width="28" height="30" viewBox="0 0 28 30" fill="none" xmlns="http://www.w3.org/2000/svg">
<path d="M23.2031 18.75H21.4844C21.2565 18.75 21.0379 18.8488 20.8767 19.0246C20.7155 19.2004 20.625 19.4389 20.625 19.6875V26.25H3.4375V7.5H11.1719C11.3998 7.5 11.6184 7.40123 11.7795 7.22541C11.9407 7.0496 12.0312 6.81114 12.0312 6.5625V4.6875C12.0312 4.43886 11.9407 4.2004 11.7795 4.02459C11.6184 3.84877 11.3998 3.75 11.1719 3.75H2.57812C1.89436 3.75 1.23861 4.04632 0.755115 4.57376C0.271623 5.10121 0 5.81658 0 6.5625L0 27.1875C0 27.9334 0.271623 28.6488 0.755115 29.1762C1.23861 29.7037 1.89436 30 2.57812 30H21.4844C22.1681 30 22.8239 29.7037 23.3074 29.1762C23.7909 28.6488 24.0625 27.9334 24.0625 27.1875V19.6875C24.0625 19.4389 23.972 19.2004 23.8108 19.0246C23.6496 18.8488 23.431 18.75 23.2031 18.75ZM26.2109 0H19.3359C18.1881 0 17.6145 1.51816 18.4229 2.40234L20.3419 4.4959L7.25098 18.7717C7.1308 18.9023 7.03545 19.0576 6.97039 19.2285C6.90533 19.3994 6.87183 19.5827 6.87183 19.7678C6.87183 19.9529 6.90533 20.1361 6.97039 20.307C7.03545 20.478 7.1308 20.6332 7.25098 20.7639L8.4686 22.0898C8.58836 22.2209 8.73067 22.325 8.88735 22.3959C9.04404 22.4669 9.21203 22.5035 9.38169 22.5035C9.55135 22.5035 9.71934 22.4669 9.87603 22.3959C10.0327 22.325 10.175 22.2209 10.2948 22.0898L23.3793 7.81172L25.2979 9.90234C26.1035 10.7812 27.5 10.166 27.5 8.90625V1.40625C27.5 1.03329 27.3642 0.675604 27.1224 0.411881C26.8807 0.148158 26.5528 0 26.2109 0V0Z" fill="white"/>
</svg>
