<svg width="40" height="42" viewBox="0 0 40 42" fill="none" xmlns="http://www.w3.org/2000/svg">
<path d="M13.379 33.1875C13.379 33.358 13.1935 33.4943 12.9597 33.4943C12.6935 33.5199 12.5081 33.3835 12.5081 33.1875C12.5081 33.017 12.6935 32.8807 12.9274 32.8807C13.1694 32.8551 13.379 32.9915 13.379 33.1875ZM10.871 32.804C10.8145 32.9744 10.9758 33.1705 11.2177 33.2216C11.4274 33.3068 11.6694 33.2216 11.7177 33.0511C11.7661 32.8807 11.6129 32.6847 11.371 32.608C11.1613 32.5483 10.9274 32.6335 10.871 32.804ZM14.4355 32.6591C14.2016 32.7188 14.0403 32.8807 14.0645 33.0767C14.0887 33.2472 14.2984 33.358 14.5403 33.2983C14.7742 33.2386 14.9355 33.0767 14.9113 32.9063C14.8871 32.7443 14.6694 32.6335 14.4355 32.6591ZM19.7419 0C8.55645 0 0 8.97443 0 20.7955C0 30.2472 5.62903 38.3352 13.6694 41.1818C14.7016 41.3778 15.0645 40.7045 15.0645 40.1506C15.0645 39.6222 15.0403 36.7074 15.0403 34.9176C15.0403 34.9176 9.39516 36.196 8.20968 32.3778C8.20968 32.3778 7.29032 29.8977 5.96774 29.2585C5.96774 29.2585 4.12097 27.9205 6.09677 27.946C6.09677 27.946 8.10484 28.1165 9.20968 30.1449C10.9758 33.4347 13.9355 32.4886 15.0887 31.9261C15.2742 30.5625 15.7984 29.6165 16.379 29.054C11.871 28.5256 7.32258 27.8352 7.32258 19.6364C7.32258 17.2926 7.93548 16.1165 9.22581 14.6165C9.01613 14.0625 8.33064 11.7784 9.43548 8.82955C11.121 8.27557 15 11.1307 15 11.1307C16.6129 10.6534 18.3468 10.4063 20.0645 10.4063C21.7823 10.4063 23.5161 10.6534 25.129 11.1307C25.129 11.1307 29.0081 8.26705 30.6935 8.82955C31.7984 11.7869 31.1129 14.0625 30.9032 14.6165C32.1935 16.125 32.9839 17.3011 32.9839 19.6364C32.9839 27.8608 28.2339 28.517 23.7258 29.054C24.4677 29.7273 25.0968 31.0057 25.0968 33.0085C25.0968 35.8807 25.0726 39.4347 25.0726 40.1335C25.0726 40.6875 25.4435 41.3608 26.4677 41.1648C34.5323 38.3352 40 30.2472 40 20.7955C40 8.97443 30.9274 0 19.7419 0ZM7.83871 29.3949C7.73387 29.4801 7.75806 29.6761 7.89516 29.8381C8.02419 29.9744 8.20968 30.0341 8.31452 29.9233C8.41935 29.8381 8.39516 29.642 8.25806 29.4801C8.12903 29.3437 7.94355 29.2841 7.83871 29.3949ZM6.96774 28.7045C6.91129 28.8153 6.99194 28.9517 7.15323 29.0369C7.28226 29.1222 7.44355 29.0966 7.5 28.9773C7.55645 28.8665 7.47581 28.7301 7.31452 28.6449C7.15323 28.5938 7.02419 28.6193 6.96774 28.7045ZM9.58065 31.7386C9.45161 31.8494 9.5 32.1051 9.68548 32.267C9.87097 32.4631 10.1048 32.4886 10.2097 32.3523C10.3145 32.2415 10.2661 31.9858 10.1048 31.8239C9.92742 31.6278 9.68548 31.6023 9.58065 31.7386ZM8.66129 30.4858C8.53226 30.571 8.53226 30.7926 8.66129 30.9886C8.79032 31.1847 9.00806 31.2699 9.1129 31.1847C9.24194 31.0739 9.24194 30.8523 9.1129 30.6563C9 30.4602 8.79032 30.375 8.66129 30.4858Z" fill="#192734"/>
</svg>
