<svg width="30" height="31" viewBox="0 0 30 31" fill="none" xmlns="http://www.w3.org/2000/svg">
<path d="M10.0343 24.8906C10.0343 25.0185 9.89516 25.1207 9.71976 25.1207C9.52016 25.1399 9.38105 25.0376 9.38105 24.8906C9.38105 24.7628 9.52016 24.6605 9.69556 24.6605C9.87702 24.6413 10.0343 24.7436 10.0343 24.8906ZM8.15323 24.603C8.11089 24.7308 8.23185 24.8778 8.41331 24.9162C8.57056 24.9801 8.75202 24.9162 8.78831 24.7884C8.8246 24.6605 8.70968 24.5135 8.52823 24.456C8.37097 24.4112 8.19556 24.4751 8.15323 24.603ZM10.8266 24.4943C10.6512 24.5391 10.5302 24.6605 10.5484 24.8075C10.5665 24.9354 10.7238 25.0185 10.9052 24.9737C11.0806 24.929 11.2016 24.8075 11.1835 24.6797C11.1653 24.5582 11.002 24.4751 10.8266 24.4943ZM14.8065 0C6.41734 0 0 6.73082 0 15.5966C0 22.6854 4.22177 28.7514 10.252 30.8864C11.0262 31.0334 11.2984 30.5284 11.2984 30.1129C11.2984 29.7166 11.2802 27.5305 11.2802 26.1882C11.2802 26.1882 7.04637 27.147 6.15726 24.2834C6.15726 24.2834 5.46774 22.4233 4.47581 21.9439C4.47581 21.9439 3.09073 20.9403 4.57258 20.9595C4.57258 20.9595 6.07863 21.0874 6.90726 22.6087C8.23185 25.076 10.4516 24.3665 11.3165 23.9446C11.4556 22.9219 11.8488 22.2124 12.2843 21.7905C8.90323 21.3942 5.49194 20.8764 5.49194 14.7273C5.49194 12.9695 5.95161 12.0874 6.91935 10.9624C6.7621 10.5469 6.24798 8.83381 7.07661 6.62216C8.34073 6.20668 11.25 8.34801 11.25 8.34801C12.4597 7.99006 13.7601 7.80469 15.0484 7.80469C16.3367 7.80469 17.6371 7.99006 18.8468 8.34801C18.8468 8.34801 21.756 6.20028 23.0202 6.62216C23.8488 8.8402 23.3347 10.5469 23.1774 10.9624C24.1452 12.0937 24.7379 12.9759 24.7379 14.7273C24.7379 20.8956 21.1754 21.3878 17.7944 21.7905C18.3508 22.2955 18.8226 23.2543 18.8226 24.7564C18.8226 26.9105 18.8044 29.576 18.8044 30.1001C18.8044 30.5156 19.0827 31.0206 19.8508 30.8736C25.8992 28.7514 30 22.6854 30 15.5966C30 6.73082 23.1956 0 14.8065 0ZM5.87903 22.0462C5.8004 22.1101 5.81855 22.2571 5.92137 22.3786C6.01815 22.4808 6.15726 22.5256 6.23589 22.4425C6.31452 22.3786 6.29637 22.2315 6.19355 22.1101C6.09677 22.0078 5.95766 21.9631 5.87903 22.0462ZM5.22581 21.5284C5.18347 21.6115 5.24395 21.7138 5.36492 21.7777C5.46169 21.8416 5.58266 21.8224 5.625 21.733C5.66734 21.6499 5.60685 21.5476 5.48589 21.4837C5.36492 21.4453 5.26815 21.4645 5.22581 21.5284ZM7.18548 23.804C7.08871 23.8871 7.125 24.0788 7.26411 24.2003C7.40323 24.3473 7.57863 24.3665 7.65726 24.2642C7.73589 24.1811 7.6996 23.9893 7.57863 23.8679C7.44556 23.7209 7.26411 23.7017 7.18548 23.804ZM6.49597 22.8643C6.39919 22.9283 6.39919 23.0945 6.49597 23.2415C6.59274 23.3885 6.75605 23.4524 6.83468 23.3885C6.93145 23.3054 6.93145 23.1392 6.83468 22.9922C6.75 22.8452 6.59274 22.7813 6.49597 22.8643Z" fill="#192734"/>
</svg>


