<svg width="40" height="39" viewBox="0 0 40 39" fill="none" xmlns="http://www.w3.org/2000/svg">
<path d="M8.95357 38.181H0.660714V12.6895H8.95357V38.181ZM4.80268 9.21222C2.15089 9.21222 0 7.11562 0 4.58437C1.89803e-08 3.36852 0.505995 2.20247 1.40667 1.34273C2.30735 0.482995 3.52893 0 4.80268 0C6.07643 0 7.29801 0.482995 8.19869 1.34273C9.09936 2.20247 9.60536 3.36852 9.60536 4.58437C9.60536 7.11562 7.45357 9.21222 4.80268 9.21222ZM39.9911 38.181H31.7161V25.7719C31.7161 22.8145 31.6536 19.0219 27.4045 19.0219C23.0929 19.0219 22.4321 22.2349 22.4321 25.5588V38.181H14.1482V12.6895H22.1018V16.1668H22.2179C23.325 14.1639 26.0295 12.0503 30.0643 12.0503C38.4571 12.0503 40 17.3259 40 24.1781V38.181H39.9911Z" fill="#192734"/>
</svg>
