<svg width="30" height="29" viewBox="0 0 30 29" fill="none" xmlns="http://www.w3.org/2000/svg">
<path d="M6.71518 28.6357H0.495536V9.51712H6.71518V28.6357ZM3.60201 6.90916C1.61317 6.90916 0 5.33672 0 3.43828C1.42353e-08 2.52639 0.379496 1.65185 1.055 1.00705C1.73051 0.362246 2.6467 0 3.60201 0C4.55732 0 5.47351 0.362246 6.14901 1.00705C6.82452 1.65185 7.20402 2.52639 7.20402 3.43828C7.20402 5.33672 5.59018 6.90916 3.60201 6.90916ZM29.9933 28.6357H23.7871V19.3289C23.7871 17.1109 23.7402 14.2664 20.5533 14.2664C17.3196 14.2664 16.8241 16.6762 16.8241 19.1691V28.6357H10.6112V9.51712H16.5763V12.1251H16.6634C17.4937 10.6229 19.5221 9.03771 22.5482 9.03771C28.8429 9.03771 30 12.9944 30 18.1336V28.6357H29.9933Z" fill="#192734"/>
</svg>

