<svg width="22" height="18" viewBox="0 0 22 18" fill="none" xmlns="http://www.w3.org/2000/svg">
<path d="M21.4474 1.494L21.4473 1.49472L18.1284 16.4348C18.0196 16.8904 17.8564 17.036 17.7543 17.0805C17.6501 17.1259 17.4351 17.1428 17.0457 16.94L12.0136 13.4004L11.6844 13.1688L11.3878 13.4411L8.94722 15.6817L8.94716 15.6816L8.94012 15.6883C8.896 15.7305 8.85798 15.7664 8.82386 15.7974L9.11561 11.8496L18.3308 3.90111C18.3313 3.90069 18.3318 3.90027 18.3323 3.89985C18.4642 3.78731 18.6457 3.59024 18.6561 3.31393C18.6696 2.95389 18.4037 2.75723 18.2084 2.69075C18.0228 2.6276 17.8235 2.63756 17.6535 2.67444C17.4763 2.71291 17.2906 2.78901 17.1107 2.90265L5.71564 9.75151L0.937865 8.32408L0.93754 8.32398C0.709065 8.25589 0.581122 8.1798 0.521335 8.12704C0.535881 8.10944 0.55851 8.08576 0.593296 8.05648C0.70298 7.96414 0.894269 7.85133 1.19447 7.73915C1.19482 7.73902 1.19517 7.73889 1.19552 7.73876L20.7043 0.564528C20.705 0.564299 20.7056 0.564071 20.7062 0.563843C21.0462 0.442715 21.2527 0.514547 21.3455 0.600357C21.4368 0.684827 21.5741 0.927638 21.4474 1.494Z" fill="#6C63FE" stroke="#6C63FE"/>
</svg>
