<svg width="30" height="27" viewBox="0 0 30 27" fill="none" xmlns="http://www.w3.org/2000/svg">
<path d="M26.9163 6.62353C26.9354 6.91421 26.9354 7.20494 26.9354 7.49562C26.9354 16.3616 20.7488 26.5773 9.44166 26.5773C5.95813 26.5773 2.7221 25.4768 0 23.5666C0.494943 23.6289 0.970785 23.6496 1.48477 23.6496C4.3591 23.6496 7.00509 22.5907 9.11804 20.7843C6.41499 20.722 4.14974 18.791 3.36927 16.1332C3.75001 16.1955 4.1307 16.237 4.53049 16.237C5.0825 16.237 5.63457 16.1539 6.1485 16.0087C3.33124 15.3857 1.21823 12.6865 1.21823 9.42662V9.34359C2.03673 9.84192 2.98859 10.1534 3.9974 10.1948C2.3413 8.99054 1.25631 6.93498 1.25631 4.60945C1.25631 3.36366 1.56083 2.22167 2.09386 1.22502C5.12053 5.29466 9.67006 7.95234 14.7715 8.24308C14.6764 7.74475 14.6193 7.22572 14.6193 6.70662C14.6193 3.01067 17.3604 0 20.7678 0C22.5381 0 24.137 0.809774 25.2602 2.11788C26.6497 1.8272 27.9822 1.26656 29.1625 0.498328C28.7055 2.05562 27.7348 3.36373 26.4594 4.19421C27.6967 4.04893 28.896 3.67511 30 3.15607C29.1626 4.48488 28.1156 5.66836 26.9163 6.62353V6.62353Z" fill="#192734"/>
</svg>
