<svg width="40" height="36" viewBox="0 0 40 36" fill="none" xmlns="http://www.w3.org/2000/svg">
<path d="M35.8884 8.83137C35.9138 9.21894 35.9138 9.60659 35.9138 9.99416C35.9138 21.8155 27.6651 35.4364 12.5889 35.4364C7.94417 35.4364 3.62947 33.969 0 31.4221C0.659924 31.5051 1.29438 31.5328 1.9797 31.5328C5.81213 31.5328 9.34011 30.121 12.1574 27.7124C8.55331 27.6293 5.53299 25.0546 4.49236 21.511C5.00002 21.594 5.5076 21.6494 6.04065 21.6494C6.77667 21.6494 7.51276 21.5386 8.198 21.3449C4.44166 20.5143 1.6243 16.9153 1.6243 12.5688V12.4581C2.71564 13.1226 3.98478 13.5378 5.32986 13.5931C3.12173 11.9874 1.67508 9.24664 1.67508 6.14593C1.67508 4.48488 2.0811 2.96223 2.79181 1.63335C6.82737 7.05954 12.8934 10.6031 19.6954 10.9908C19.5685 10.3263 19.4923 9.63429 19.4923 8.94216C19.4923 4.01423 23.1472 0 27.6903 0C30.0507 0 32.1827 1.0797 33.6802 2.82383C35.533 2.43627 37.3096 1.68874 38.8833 0.664437C38.2741 2.74083 36.9797 4.48497 35.2792 5.59228C36.929 5.39858 38.528 4.90015 40 4.2081C38.8834 5.97984 37.4874 7.55781 35.8884 8.83137V8.83137Z" fill="#192734"/>
</svg>
