<svg width="30" height="31" viewBox="0 0 30 31" fill="none" xmlns="http://www.w3.org/2000/svg">
<path d="M10.3274 25.0997C10.3274 25.2238 10.1924 25.3231 10.0221 25.3231C9.82841 25.3417 9.69339 25.2424 9.69339 25.0997C9.69339 24.9756 9.82841 24.8764 9.99866 24.8764C10.1748 24.8578 10.3274 24.957 10.3274 25.0997ZM8.50168 24.8205C8.46059 24.9446 8.578 25.0873 8.75411 25.1245C8.90675 25.1866 9.08286 25.1245 9.11808 25.0005C9.15331 24.8764 9.04177 24.7337 8.86565 24.6779C8.71302 24.6344 8.54278 24.6965 8.50168 24.8205ZM11.0964 24.7151C10.9262 24.7585 10.8088 24.8764 10.8264 25.0191C10.844 25.1432 10.9966 25.2238 11.1728 25.1804C11.343 25.1369 11.4604 25.0191 11.4428 24.895C11.4252 24.7771 11.2667 24.6965 11.0964 24.7151ZM14.9592 0.941177C6.81685 0.941177 0.588257 7.47404 0.588257 16.079C0.588257 22.9593 4.68586 28.847 10.5387 30.9191C11.2902 31.0618 11.5543 30.5717 11.5543 30.1684C11.5543 29.7838 11.5367 27.662 11.5367 26.3591C11.5367 26.3591 7.42738 27.2898 6.56442 24.5103C6.56442 24.5103 5.89518 22.705 4.93242 22.2397C4.93242 22.2397 3.58808 21.2656 5.02635 21.2842C5.02635 21.2842 6.4881 21.4083 7.29236 22.8849C8.578 25.2796 10.7325 24.591 11.572 24.1815C11.707 23.1889 12.0886 22.5002 12.5112 22.0908C9.22962 21.7061 5.91867 21.2036 5.91867 15.2353C5.91867 13.5292 6.36482 12.673 7.3041 11.5811C7.15147 11.1778 6.65248 9.51517 7.45673 7.36857C8.68367 6.9653 11.5074 9.04366 11.5074 9.04366C12.6815 8.69623 13.9436 8.51632 15.194 8.51632C16.4445 8.51632 17.7066 8.69623 18.8807 9.04366C18.8807 9.04366 21.7044 6.9591 22.9314 7.36857C23.7356 9.52137 23.2366 11.1778 23.084 11.5811C24.0233 12.6792 24.5986 13.5354 24.5986 15.2353C24.5986 21.2222 21.1409 21.6999 17.8593 22.0908C18.3993 22.5809 18.8572 23.5115 18.8572 24.9694C18.8572 27.0602 18.8396 29.6473 18.8396 30.156C18.8396 30.5593 19.1097 31.0494 19.8552 30.9067C25.7257 28.847 29.7059 22.9593 29.7059 16.079C29.7059 7.47404 23.1016 0.941177 14.9592 0.941177ZM6.29438 22.3389C6.21806 22.401 6.23567 22.5437 6.33547 22.6615C6.4294 22.7608 6.56442 22.8042 6.64074 22.7236C6.71705 22.6615 6.69944 22.5188 6.59964 22.401C6.50571 22.3017 6.37069 22.2583 6.29438 22.3389ZM5.66036 21.8364C5.61927 21.917 5.67797 22.0163 5.79538 22.0784C5.88931 22.1404 6.00672 22.1218 6.04782 22.0349C6.08891 21.9543 6.0302 21.855 5.91279 21.793C5.79538 21.7557 5.70146 21.7744 5.66036 21.8364ZM7.5624 24.045C7.46848 24.1257 7.5037 24.3118 7.63872 24.4297C7.77374 24.5724 7.94399 24.591 8.0203 24.4917C8.09662 24.4111 8.0614 24.225 7.94399 24.1071C7.81484 23.9644 7.63872 23.9458 7.5624 24.045ZM6.89317 23.133C6.79924 23.1951 6.79924 23.3564 6.89317 23.4991C6.9871 23.6418 7.1456 23.7038 7.22191 23.6418C7.31584 23.5611 7.31584 23.3998 7.22191 23.2571C7.13973 23.1144 6.9871 23.0524 6.89317 23.133Z" fill="#192734"/>
</svg>
