<svg width="30" height="29" viewBox="0 0 30 29" fill="none" xmlns="http://www.w3.org/2000/svg">
<path d="M7.10593 28.0288H1.06922V9.4725H7.10593V28.0288ZM4.08432 6.94125C2.15398 6.94125 0.588257 5.41505 0.588257 3.57245C0.588257 2.68738 0.956592 1.83856 1.61223 1.21272C2.26787 0.586886 3.15711 0.235294 4.08432 0.235294C5.01154 0.235294 5.90078 0.586886 6.55642 1.21272C7.21206 1.83856 7.58039 2.68738 7.58039 3.57245C7.58039 5.41505 6.01402 6.94125 4.08432 6.94125ZM29.6994 28.0288H23.6757V18.9957C23.6757 16.8429 23.6302 14.0821 20.5371 14.0821C17.3985 14.0821 16.9175 16.421 16.9175 18.8406V28.0288H10.8873V9.4725H16.6771V12.0037H16.7616C17.5675 10.5458 19.5362 9.00719 22.4733 9.00719C28.5828 9.00719 29.7059 12.8475 29.7059 17.8355V28.0288H29.6994Z" fill="#192734"/>
</svg>
