<svg width="30" height="27" viewBox="0 0 30 27" fill="none" xmlns="http://www.w3.org/2000/svg">
<path d="M26.7129 6.95814C26.7314 7.24027 26.7314 7.52245 26.7314 7.80458C26.7314 16.4098 20.7268 26.325 9.75222 26.325C6.37115 26.325 3.2303 25.2569 0.588257 23.4029C1.06864 23.4633 1.53049 23.4835 2.02936 23.4835C4.81915 23.4835 7.38731 22.4557 9.43812 20.7024C6.81457 20.6419 4.61595 18.7677 3.85843 16.1881C4.22798 16.2486 4.59747 16.2889 4.98549 16.2889C5.52127 16.2889 6.05711 16.2082 6.55592 16.0672C3.82152 15.4626 1.77065 12.8428 1.77065 9.67878V9.5982C2.56508 10.0819 3.48894 10.3842 4.46809 10.4244C2.86069 9.25553 1.80762 7.26043 1.80762 5.0033C1.80762 3.79415 2.10318 2.68575 2.62053 1.7184C5.55818 5.66835 9.9739 8.24787 14.9253 8.53005C14.833 8.04638 14.7775 7.54261 14.7775 7.03878C14.7775 3.45154 17.4381 0.529419 20.7452 0.529419C22.4634 0.529419 24.0154 1.31538 25.1055 2.585C26.4542 2.30288 27.7475 1.75873 28.893 1.01309C28.4495 2.52458 27.5073 3.79421 26.2694 4.60027C27.4704 4.45927 28.6343 4.09644 29.7059 3.59267C28.8931 4.88239 27.8769 6.03106 26.7129 6.95814Z" fill="#192734"/>
</svg>
