<svg width="30" height="22" viewBox="0 0 30 22" fill="none" xmlns="http://www.w3.org/2000/svg">
<path d="M17.4788 9.61124H20.1275C20.189 9.61124 20.2479 9.58692 20.2915 9.54359C20.335 9.50026 20.3597 9.44144 20.36 9.37999V7.02124C20.36 6.95958 20.3355 6.90044 20.2919 6.85684C20.2483 6.81324 20.1892 6.78874 20.1275 6.78874H17.4788C17.4174 6.78874 17.3586 6.81311 17.3152 6.85648C17.2719 6.89984 17.2475 6.95866 17.2475 7.01999V9.37999C17.2475 9.50749 17.3513 9.61124 17.4788 9.61124V9.61124ZM13.7863 2.82375H16.4338C16.4954 2.82375 16.5546 2.79925 16.5982 2.75565C16.6418 2.71205 16.6663 2.65291 16.6663 2.59125V0.23125C16.6659 0.169804 16.6413 0.110987 16.5977 0.0676551C16.5542 0.0243229 16.4952 -8.88045e-07 16.4338 0H13.7863C13.7249 0 13.6661 0.0243639 13.6227 0.0677317C13.5794 0.111099 13.555 0.169918 13.555 0.23125V2.59125C13.555 2.71875 13.6575 2.8225 13.7863 2.8225V2.82375ZM13.7863 6.2175H16.4338C16.4953 6.21717 16.5543 6.19257 16.5978 6.14903C16.6413 6.1055 16.6659 6.04656 16.6663 5.985V3.62625C16.6659 3.5648 16.6413 3.50598 16.5977 3.46265C16.5542 3.41932 16.4952 3.395 16.4338 3.395H13.7863C13.7249 3.395 13.6661 3.41936 13.6227 3.46273C13.5794 3.5061 13.555 3.56492 13.555 3.62625V5.985C13.555 6.1125 13.6575 6.21625 13.7863 6.2175ZM10.1238 6.2175H12.7738C12.835 6.21684 12.8935 6.19205 12.9366 6.14852C12.9796 6.10499 13.0038 6.04623 13.0038 5.985V3.62625C13.0038 3.56492 12.9794 3.5061 12.936 3.46273C12.8927 3.41936 12.8338 3.395 12.7725 3.395H10.125C10.0637 3.395 10.0049 3.41936 9.9615 3.46273C9.91813 3.5061 9.89376 3.56492 9.89376 3.62625V5.985C9.89376 6.1125 9.99752 6.21625 10.125 6.2175H10.1238ZM6.42002 6.2175H9.06877C9.13021 6.21716 9.18903 6.19252 9.23236 6.14896C9.27569 6.10539 9.30002 6.04644 9.30002 5.985V3.62625C9.30002 3.56492 9.27565 3.5061 9.23228 3.46273C9.18892 3.41936 9.1301 3.395 9.06877 3.395H6.42002C6.35857 3.395 6.29962 3.41932 6.25606 3.46265C6.21249 3.50598 6.18785 3.5648 6.18752 3.62625V5.985C6.18752 6.1125 6.29252 6.21625 6.42002 6.2175V6.2175ZM13.7863 9.61124H16.4338C16.4952 9.61124 16.5542 9.58692 16.5977 9.54359C16.6413 9.50026 16.6659 9.44144 16.6663 9.37999V7.02124C16.6663 6.95958 16.6418 6.90044 16.5982 6.85684C16.5546 6.81324 16.4954 6.78874 16.4338 6.78874H13.7863C13.7249 6.78874 13.6661 6.81311 13.6227 6.85648C13.5794 6.89984 13.555 6.95866 13.555 7.01999V9.37999C13.555 9.50749 13.6575 9.61124 13.7863 9.61124V9.61124ZM10.1238 9.61124H12.7738C12.8349 9.61091 12.8934 9.5864 12.9365 9.54307C12.9796 9.49974 13.0038 9.44111 13.0038 9.37999V7.02124C13.0039 6.99088 12.9981 6.96077 12.9866 6.93265C12.9752 6.90453 12.9583 6.87895 12.9369 6.85736C12.9156 6.83577 12.8902 6.8186 12.8622 6.80682C12.8342 6.79505 12.8041 6.78891 12.7738 6.78874H10.1238C10.0627 6.78907 10.0042 6.81358 9.96105 6.85692C9.91796 6.90025 9.89376 6.95888 9.89376 7.01999V9.37999C9.89376 9.50749 9.99752 9.61124 10.125 9.61124H10.1238ZM6.42002 9.61124H9.06877C9.1301 9.61124 9.18892 9.58688 9.23228 9.54351C9.27565 9.50014 9.30002 9.44132 9.30002 9.37999V7.02124C9.30018 6.99088 9.29436 6.96077 9.28289 6.93265C9.27142 6.90453 9.25453 6.87895 9.23317 6.85736C9.21181 6.83577 9.18641 6.8186 9.15842 6.80682C9.13042 6.79505 9.10038 6.78891 9.07002 6.78874H6.42002C6.35835 6.78874 6.29922 6.81324 6.25561 6.85684C6.21201 6.90044 6.18752 6.95958 6.18752 7.02124V9.37999C6.18752 9.50749 6.29252 9.61124 6.42002 9.61124V9.61124ZM2.77002 9.61124H5.42002C5.48113 9.61091 5.53963 9.5864 5.58273 9.54307C5.62583 9.49974 5.65002 9.44111 5.65002 9.37999V7.02124C5.65018 6.99088 5.64436 6.96077 5.63289 6.93265C5.62142 6.90453 5.60453 6.87895 5.58317 6.85736C5.56181 6.83577 5.53641 6.8186 5.50842 6.80682C5.48042 6.79505 5.45039 6.78891 5.42002 6.78874H2.77002C2.7089 6.78907 2.65041 6.81358 2.60731 6.85692C2.56421 6.90025 2.54002 6.95888 2.54002 7.01999V9.37999C2.54002 9.50749 2.64252 9.61124 2.77127 9.61124H2.77002ZM29.7038 8.12624C29.6225 8.06249 28.8638 7.48874 27.2613 7.48874C26.8388 7.48999 26.4163 7.52624 25.9988 7.59749C25.6888 5.4725 23.9325 4.435 23.8538 4.39L23.4238 4.14125L23.1413 4.55C22.7863 5.0975 22.5288 5.7025 22.3763 6.33749C22.0888 7.54999 22.2638 8.68999 22.88 9.66374C22.1363 10.0787 20.9425 10.18 20.7 10.1887H0.938771C0.690664 10.1891 0.452776 10.2876 0.277104 10.4628C0.101432 10.638 0.00226217 10.8756 0.00127128 11.1237C-0.0218766 12.8548 0.271264 14.5755 0.866271 16.2012C1.54752 17.9862 2.56002 19.3012 3.87877 20.1062C5.35377 21.01 7.75377 21.5275 10.4725 21.5275C11.7013 21.5312 12.9263 21.42 14.135 21.195C15.8136 20.8866 17.4287 20.2998 18.9138 19.4587C20.1388 18.75 21.2388 17.8487 22.1763 16.7887C23.7413 15.0162 24.6738 13.0425 25.3675 11.2887H25.6438C27.3588 11.2887 28.4125 10.6025 28.9938 10.0275C29.38 9.66124 29.6813 9.21499 29.8775 8.71999L30 8.35999L29.7038 8.12624Z" fill="white"/>
</svg>
