<svg width="30" height="34" viewBox="0 0 30 34" fill="none" xmlns="http://www.w3.org/2000/svg">
<path d="M17.8807 3.86378L24.8119 7.8666C25.958 6.66013 27.8639 6.61238 29.0703 7.75845C29.2782 7.95508 29.4552 8.1812 29.5998 8.4284C30.4271 9.87222 29.9257 11.7135 28.4819 12.5408C28.2375 12.6812 27.9748 12.7866 27.6982 12.854V20.8582C29.3077 21.2416 30.3021 22.8568 29.9173 24.4664C29.8498 24.7529 29.7389 25.0282 29.5914 25.2824C28.76 26.7192 26.9215 27.2122 25.4804 26.3807C25.2052 26.222 24.9538 26.0169 24.7417 25.7782L17.8526 29.7557C18.3751 31.3344 17.5183 33.0352 15.9411 33.5563C15.6363 33.656 15.3203 33.708 15.0001 33.708C13.3414 33.7094 11.9959 32.3667 11.9945 30.708C11.9945 30.42 12.0352 30.1321 12.1181 29.8526L5.18545 25.854C4.03938 27.0535 2.13628 27.0998 0.935435 25.9523C-0.264007 24.8063 -0.30895 22.9032 0.83712 21.7023C1.23459 21.2852 1.74443 20.9916 2.30342 20.8554L2.30482 12.8512C0.689648 12.4635 -0.304737 10.8385 0.084309 9.22194C0.15032 8.94385 0.257062 8.67559 0.398917 8.42699C1.23038 6.98879 3.07027 6.49721 4.50988 7.32867C4.75848 7.47053 4.98601 7.6489 5.18404 7.85817L12.1195 3.85535C11.6475 2.26405 12.5563 0.594104 14.1433 0.123597C14.42 0.0407316 14.7108 1.102e-06 15.0001 1.102e-06C16.6588 -0.0014034 18.0043 1.33989 18.0057 2.9972C18.0071 3.29074 17.9636 3.58428 17.8807 3.86378ZM17.1574 5.09552C17.1307 5.12502 17.1054 5.1503 17.0759 5.17698L26.1504 20.8933C26.1869 20.8807 26.229 20.8708 26.2656 20.861V12.8455C24.6574 12.4481 23.6785 10.8203 24.0774 9.2107C24.0858 9.17699 24.0942 9.14188 24.104 9.10958L17.1574 5.09552V5.09552ZM12.9228 5.17839L12.8386 5.09412L5.89191 9.09975C6.35118 10.6939 5.43264 12.3554 3.83994 12.8146C3.80342 12.8259 3.76831 12.8343 3.7332 12.8441V20.861L3.85117 20.8933L12.9256 5.17698L12.9228 5.17839V5.17839ZM15.8386 5.89047C15.2908 6.04777 14.7108 6.04777 14.1644 5.89047L5.09135 21.6054C5.50427 22.0029 5.7964 22.5113 5.93405 23.0675H24.0675C24.2038 22.5085 24.4987 21.9987 24.9144 21.6012L15.8386 5.89047ZM17.2234 28.6813L24.1237 24.6953C24.1026 24.6293 24.0858 24.5633 24.0703 24.4959H5.92983L5.90034 24.6124L12.8372 28.6181C13.3821 28.0506 14.149 27.7009 15.0001 27.7009C15.8807 27.7009 16.6714 28.0787 17.2234 28.6813Z" fill="white"/>
</svg>
