<svg width="30" height="31" viewBox="0 0 30 31" fill="none" xmlns="http://www.w3.org/2000/svg">
<path d="M12.7455 0V8.08617L15 11.1824L17.2545 8.08617V0H12.7455ZM17.2545 8.08617V11.9339L20.8918 10.7315L25.6713 4.20842L22.004 1.53307L17.2545 8.08617ZM20.8918 10.7315L18.6373 13.8577L22.3046 15.0301L30 12.5351L28.5872 8.23647L20.8918 10.7315ZM22.3046 15.0301L18.6373 16.2024L20.8918 19.3287L28.5872 21.8236L30 17.5251L22.3046 15.0301ZM20.8918 19.3287L17.2545 18.1263V21.9739L22.004 28.5271L25.6713 25.8517L20.8918 19.3287ZM17.2545 21.9739L15 18.8778L12.7455 21.9739V30.0601H17.2545V21.9739ZM12.7455 21.9739V18.1263L9.10822 19.3287L4.32866 25.8517L7.99599 28.5271L12.7455 21.9739ZM9.10822 19.3287L11.3627 16.2024L7.69539 15.0301L0 17.5251L1.41283 21.8236L9.10822 19.3287ZM7.69539 15.0301L11.3627 13.8577L9.10822 10.7315L1.41283 8.23647L0 12.5351L7.69539 15.0301ZM9.10822 10.7315L12.7455 11.9339V8.08617L7.99599 1.53307L4.32866 4.20842L9.10822 10.7315Z" fill="white"/>
</svg>
