<svg width="14" height="30" viewBox="0 0 14 30" fill="none" xmlns="http://www.w3.org/2000/svg">
<path d="M13.2032 11.8975C11.6245 4.9475 7.90071 2.66375 7.50071 1.79C7.06071 1.17375 6.58446 0 6.58446 0L6.57821 0.06125V0.0775H6.57696C6.57474 0.0936883 6.57307 0.109948 6.57196 0.12625V0.145H6.56946L6.56696 0.1775V0.21H6.56321C6.56196 0.22 6.56196 0.2325 6.55946 0.24125V0.2675H6.55696C6.55696 0.27625 6.55696 0.28625 6.55446 0.29375V0.31875H6.55196L6.54946 0.35875V0.36125L6.53696 0.42375V0.43375H6.53571L6.53196 0.44875V0.47H6.52821V0.4975H6.52196V0.52H6.51571V0.54625H6.51071V0.57H6.50571V0.59125H6.49821V0.60875H6.49321V0.63125H6.48821V0.64875H6.48196V0.665H6.47821V0.68375H6.47321L6.47196 0.68875V0.70125H6.46821L6.46696 0.70875V0.71625H6.46446C6.46315 0.720306 6.46231 0.724501 6.46196 0.72875L6.44946 0.755V0.7575C6.44697 0.760101 6.44486 0.763048 6.44321 0.76625V0.77625H6.43821V0.78625H6.43196V0.79625H6.42821V0.80875H6.42071V0.82625H6.41571V0.83125H6.41071V0.84125H6.40571V0.855H6.40071V0.865H6.39321V0.87875H6.38821V0.88875H6.38196V0.89875H6.37821V0.91125H6.37196V0.92125H6.36696V0.92875H6.36196V0.93875H6.35446V0.95H6.34946V0.9575H6.34321V0.9675H6.33821V0.98125H6.33196V0.98625H6.32821V0.99625H6.32071V1.00125H6.31571V1.01375H6.31071V1.01875H6.30571V1.02875H6.29946V1.03625H6.29571L6.29321 1.04125V1.04625H6.29071L6.28821 1.05125V1.0525H6.28696C6.28607 1.0558 6.28435 1.05881 6.28196 1.06125V1.065H6.28071L6.26571 1.0875V1.08875L6.25321 1.10125V1.10375L6.24946 1.1075V1.11125H6.24696L6.24321 1.115V1.11625H6.24196L6.23821 1.12125V1.12625H6.23446L6.23196 1.12875V1.13125H6.22946C6.22946 1.13375 6.22696 1.13375 6.22696 1.135V1.13875H6.22196L6.21946 1.1425V1.15H6.21571V1.155H6.21071V1.1625H6.20571V1.1725H6.19946V1.1625H6.19321V1.1675H6.18821V1.175H6.18196V1.185H6.17571V1.19H6.17071V1.1975H6.16571V1.2025H6.16071V1.2125H6.15321V1.2175H6.14821V1.225H6.14196V1.23H6.13696V1.23625H6.13071V1.24875H6.12821V1.25375H6.12071V1.26H6.11571V1.2625H6.11071V1.2675H6.10446V1.28H6.09946V1.285H6.09321V1.29H6.08821V1.2975H6.08196V1.3025H6.07571V1.3075H6.07071V1.3125H6.06571V1.325H6.06071V1.33125H6.05321V1.33625H6.04821V1.34125H6.04196V1.34875H6.03696V1.35375H6.03071V1.3625H6.02571V1.3675H6.01821V1.375H6.01571V1.38H6.01071V1.385H6.00446V1.39H5.99946V1.3975H5.99321V1.4025H5.98946L5.98821 1.405V1.4075H5.98571L5.98071 1.4125L5.97571 1.41625V1.42375H5.97071V1.43H5.96571V1.435H5.96071V1.44H5.95696L5.95321 1.44375V1.4475H5.95071L5.94821 1.45V1.45375H5.94571C5.93946 1.46125 5.93696 1.46625 5.92821 1.47375C5.90542 1.48929 5.88408 1.50686 5.86446 1.52625L5.83696 1.5475V1.54875H5.83571C5.81506 1.56523 5.79423 1.58148 5.77321 1.5975V1.59875L5.68196 1.67625V1.675H5.67946C5.60821 1.73375 5.53321 1.8 5.44696 1.87375V1.875H5.44571C5.23321 2.06 4.98321 2.2975 4.70196 2.585L4.68321 2.60375L4.67821 2.60875C2.97821 4.3675 0.299461 8.0325 0.0157107 13.955C-0.00928927 14.445 -0.00303931 14.9212 0.0244607 15.385V15.3963C0.160711 17.73 0.893211 19.7225 1.80946 21.3412V21.3425C2.17446 21.9875 2.56821 22.5738 2.96696 23.0988V23.1C4.34446 24.9187 5.75071 25.9963 6.10946 26.2575C6.65946 27.5363 6.60946 29.7312 6.60946 29.7312L7.41446 30C7.41446 30 7.25071 27.8738 7.48071 26.8475C7.55196 26.5263 7.72071 26.2525 7.91696 26.02C8.26519 25.7718 8.59789 25.5026 8.91321 25.2137C8.93571 25.19 8.94821 25.1688 8.96821 25.1463C10.8682 23.3738 14.4207 19.0087 13.2032 11.8975V11.8975Z" fill="white"/>
</svg>
