<svg width="30" height="34" viewBox="0 0 30 34" fill="none" xmlns="http://www.w3.org/2000/svg">
<path d="M14.9979 33.8302C14.5454 33.8302 14.0943 33.7118 13.6983 33.482L9.55974 31.0336C8.94235 30.6882 9.244 30.5656 9.44698 30.4937C10.2716 30.2076 10.4379 30.1413 11.3189 29.6423C11.4105 29.5902 11.5317 29.6099 11.6262 29.6663L14.8062 31.5537C14.9218 31.6171 15.0839 31.6171 15.1896 31.5537L27.5868 24.3987C27.7024 24.3324 27.7757 24.1999 27.7757 24.0632V9.75603C27.7757 9.61648 27.701 9.48539 27.5826 9.41491L15.191 2.26554C15.0768 2.19929 14.9246 2.19929 14.809 2.26554L2.42024 9.41632C2.30043 9.48539 2.22431 9.62071 2.22431 9.75603V24.0632C2.22431 24.1999 2.30043 24.3296 2.42024 24.3945L5.81591 26.3566C7.65823 27.2785 8.7873 26.1931 8.7873 25.1021V10.9767C8.7873 10.7766 8.94799 10.6201 9.14815 10.6201H10.7198C10.9158 10.6201 11.0793 10.778 11.0793 10.9767V25.1021C11.0793 27.5618 9.74017 28.9714 7.40873 28.9714C6.69266 28.9714 6.12743 28.9714 4.55293 28.1947L1.29963 26.3242C0.496171 25.8604 0 24.9921 0 24.0632V9.75603C0 8.82712 0.49758 7.95882 1.29963 7.49648L13.6968 0.333012C14.482 -0.111004 15.5237 -0.111004 16.3017 0.333012L28.6976 7.49648C29.501 7.96023 30 8.82712 30 9.75603V24.0632C30 24.9921 29.501 25.8576 28.6976 26.3242L16.3017 33.482C15.9071 33.7118 15.4574 33.8302 14.9979 33.8302ZM25.0073 19.7245C25.0073 17.0464 23.1974 16.3331 19.3873 15.8299C15.5378 15.321 15.1459 15.0574 15.1459 14.1567C15.1459 13.4125 15.4771 12.4187 18.3287 12.4187C20.8758 12.4187 21.8146 12.967 22.2008 14.6839C22.2346 14.846 22.3827 14.9644 22.549 14.9644H24.1573C24.2574 14.9644 24.3518 14.9207 24.4195 14.8502C24.4871 14.7741 24.5238 14.6769 24.5139 14.574C24.2644 11.6167 22.2995 10.2381 18.3287 10.2381C14.7935 10.2381 12.6848 11.7294 12.6848 14.2314C12.6848 16.9449 14.7822 17.6948 18.1751 18.0302C22.2346 18.4277 22.549 19.0212 22.549 19.819C22.549 21.2046 21.4368 21.7952 18.8249 21.7952C15.5448 21.7952 14.8231 20.972 14.5807 19.3397C14.5525 19.1649 14.403 19.0367 14.224 19.0367H12.6213C12.4226 19.0367 12.2633 19.1945 12.2633 19.3933C12.2633 21.4823 13.3994 23.9716 18.8249 23.9716C22.7548 23.973 25.0073 22.4267 25.0073 19.7245Z" fill="white"/>
</svg>
