<svg width="30" height="27" viewBox="0 0 30 27" fill="none" xmlns="http://www.w3.org/2000/svg">
<path d="M17.7875 13.3625C17.7875 14.1036 17.4932 14.8143 16.9693 15.3384C16.4454 15.8626 15.7348 16.1572 14.9937 16.1575C14.2525 16.1575 13.5416 15.863 13.0174 15.3389C12.4932 14.8147 12.1987 14.1038 12.1987 13.3625C12.1987 12.6214 12.4931 11.9107 13.0169 11.3866C13.5408 10.8624 14.2514 10.5678 14.9925 10.5675C15.7338 10.5675 16.4447 10.862 16.9689 11.3861C17.493 11.9103 17.7875 12.6212 17.7875 13.3625V13.3625ZM21.0975 0C19.415 0 17.2137 1.2 14.9875 3.2775C12.7625 1.21125 10.56 0.025 8.87875 0.025C8.36625 0.025 7.9 0.14125 7.49625 0.3725C5.7775 1.36375 5.3925 4.4525 6.28 8.32875C2.475 9.50375 0 11.3825 0 13.3625C0 15.35 2.4875 17.2338 6.30375 18.4C5.42375 22.2913 5.81625 25.385 7.53875 26.375C7.93875 26.6088 8.40125 26.7188 8.91625 26.7188C10.5975 26.7188 12.8 25.5188 15.0262 23.4388C17.2512 25.5063 19.4538 26.6925 21.135 26.6925C21.6475 26.6925 22.1137 26.58 22.5175 26.3488C24.235 25.3588 24.6212 22.27 23.7337 18.3925C27.525 17.2275 30 15.345 30 13.3625C30 11.375 27.5125 9.49125 23.6963 8.3225C24.5763 4.435 24.1837 1.33875 22.4612 0.3475C22.0637 0.1175 21.6013 0.00125 21.0963 0H21.0975ZM21.0912 1.3625V1.37C21.3725 1.37 21.5987 1.425 21.7887 1.52875C22.6212 2.00625 22.9825 3.8225 22.7012 6.15875C22.6337 6.73375 22.5237 7.34 22.3887 7.95875C21.1887 7.66375 19.8812 7.4375 18.505 7.29125C17.68 6.16 16.8238 5.1325 15.9613 4.2325C17.9513 2.3825 19.82 1.3675 21.0925 1.36375L21.0912 1.3625ZM8.87875 1.3875C10.1438 1.3875 12.0213 2.3975 14.0163 4.2375C13.1588 5.1375 12.3037 6.15875 11.4912 7.29C10.1075 7.43625 8.79875 7.6625 7.6 7.9625C7.46 7.35 7.35625 6.7575 7.2825 6.1875C6.995 3.8525 7.35 2.0375 8.175 1.55375C8.4125 1.44125 8.675 1.395 8.87875 1.38875V1.3875ZM14.9812 5.2C15.55 5.785 16.1188 6.44 16.6813 7.155C16.1313 7.13 15.5688 7.1125 15 7.1125C14.425 7.1125 13.8563 7.125 13.3 7.155C13.85 6.44 14.4187 5.785 14.9812 5.19875V5.2ZM15 8.4825C15.925 8.4825 16.8462 8.525 17.7525 8.59875C18.26 9.32625 18.755 10.1025 19.2313 10.9238C19.6963 11.7238 20.1187 12.5362 20.5037 13.3562C20.1187 14.175 19.6963 14.9938 19.2375 15.7938C18.7625 16.6188 18.2713 17.4038 17.7625 18.1313C16.8525 18.21 15.93 18.2537 15 18.2537C14.075 18.2537 13.1538 18.21 12.2475 18.1375C11.74 17.41 11.245 16.6325 10.7687 15.8125C10.3037 15.0125 9.88125 14.2 9.49625 13.38C9.875 12.5587 10.3037 11.7387 10.7625 10.9375C11.2375 10.1125 11.7287 9.33 12.2375 8.6025C13.1475 8.5225 14.07 8.48 15 8.48V8.4825ZM10.4562 8.8C10.1562 9.27125 9.85625 9.75375 9.57625 10.25C9.295 10.7375 9.0325 11.2275 8.7825 11.7175C8.45125 10.8975 8.17 10.08 7.9375 9.28375C8.7375 9.09625 9.58125 8.93 10.4562 8.80125V8.8ZM19.5312 8.8C20.4 8.92875 21.2375 9.0875 22.0388 9.28375C21.8138 10.0738 21.5325 10.8862 21.2138 11.7C20.9638 11.2125 20.7012 10.7212 20.4137 10.2325C20.1325 9.7425 19.8325 9.265 19.5325 8.8H19.5312ZM23.36 9.64375C23.965 9.83125 24.54 10.04 25.0787 10.2663C27.2437 11.1913 28.6438 12.4013 28.6438 13.3613C28.6375 14.3213 27.2375 15.5362 25.0725 16.455C24.5475 16.68 23.9725 16.8825 23.3787 17.0712C23.0287 15.8737 22.5713 14.6263 22.0038 13.3463C22.5663 12.075 23.0162 10.8338 23.36 9.64125V9.64375ZM6.61625 9.64875C6.96375 10.8487 7.4225 12.095 7.99125 13.3737C7.42875 14.645 6.97625 15.8863 6.63375 17.0788C6.02875 16.8913 5.45375 16.6813 4.92125 16.4538C2.75625 15.5325 1.35625 14.3213 1.35625 13.3613C1.35625 12.4013 2.75625 11.1838 4.92125 10.2663C5.44625 10.0413 6.02125 9.83875 6.61625 9.64875V9.64875ZM21.2138 14.9987C21.545 15.82 21.8262 16.6387 22.0587 17.4337C21.2587 17.63 20.4137 17.7962 19.5387 17.9212C19.8387 17.4525 20.1388 16.9687 20.42 16.4737C20.7013 15.9862 20.9638 15.4887 21.215 14.9987H21.2138ZM8.7825 15.0238C9.0325 15.5138 9.295 16.0025 9.5825 16.4925C9.87 16.98 10.1638 17.4575 10.4638 17.9212C9.595 17.7937 8.7575 17.6338 7.95625 17.4388C8.18125 16.6513 8.46375 15.8362 8.78125 15.0225L8.7825 15.0238ZM22.4 18.7575C22.54 19.3737 22.65 19.9675 22.7175 20.5363C23.005 22.8713 22.65 24.6863 21.825 25.1713C21.6412 25.2838 21.4025 25.3313 21.1212 25.3313C19.8562 25.3313 17.9787 24.3225 15.9837 22.4813C16.8412 21.5813 17.6963 20.5612 18.5088 19.4312C19.8925 19.2837 21.2013 19.0563 22.4 18.7563V18.7575ZM7.6125 18.77C8.8125 19.0625 10.12 19.2887 11.4962 19.435C12.3212 20.5662 13.1775 21.5938 14.04 22.4925C12.0463 24.3463 10.175 25.3613 8.9025 25.3613C8.6275 25.355 8.395 25.2988 8.21125 25.1963C7.37875 24.7213 7.0175 22.9038 7.29875 20.5675C7.36625 19.9925 7.47625 19.3875 7.61125 18.77H7.6125ZM13.3125 19.57C13.8625 19.595 14.425 19.6125 14.9937 19.6125C15.5687 19.6125 16.1375 19.6 16.6937 19.57C16.1437 20.285 15.575 20.9388 15.0125 21.5263C14.4438 20.9388 13.875 20.285 13.3125 19.57Z" fill="white"/>
</svg>
