<svg width="600" height="420" viewBox="0 0 600 420" fill="none" xmlns="http://www.w3.org/2000/svg">
<g clip-path="url(#clip0)">
<path d="M117.583 70.5273C129.15 70.5273 138.527 61.391 138.527 50.1207C138.527 38.8505 129.15 29.7141 117.583 29.7141C106.016 29.7141 96.6395 38.8505 96.6395 50.1207C96.6395 61.391 106.016 70.5273 117.583 70.5273Z" fill="#2F2E41"/>
<path d="M53.7938 295.8L66.6612 252.319L71.0416 253.653C71.0416 253.653 65.8399 286.197 57.6266 294.466L53.7938 295.8Z" fill="#2F2E41"/>
<path d="M102.799 62.3914C102.799 62.3914 104.442 79.4635 100.609 84.2651C96.7764 89.0667 103.073 98.403 103.073 98.403L114.572 111.741L131.546 104.272L134.01 90.4004L132.367 80.7973C132.367 80.7973 126.618 75.1955 129.082 65.0589C131.546 54.9223 102.799 62.3914 102.799 62.3914Z" fill="#FFB9B9"/>
<path opacity="0.1" d="M102.799 62.3914C102.799 62.3914 104.442 79.4635 100.609 84.2651C96.7764 89.0667 103.073 98.403 103.073 98.403L114.572 111.741L131.546 104.272L134.01 90.4004L132.367 80.7973C132.367 80.7973 126.618 75.1955 129.082 65.0589C131.546 54.9223 102.799 62.3914 102.799 62.3914Z" fill="black"/>
<path d="M112.655 381.695V392.632L127.713 395.566L126.344 377.427L112.655 381.695Z" fill="#FFB9B9"/>
<path d="M157.828 377.427L154.543 392.631L161.114 397.166L172.612 388.897L171.243 375.826L157.828 377.427Z" fill="#FFB9B9"/>
<path d="M129.082 394.232C129.082 394.232 123.333 384.763 112.655 390.698C112.655 390.698 110.739 401.168 108.822 401.968C106.906 402.768 96.2288 417.973 108.822 419.307C121.416 420.641 127.713 416.639 127.713 416.639C127.713 416.639 125.249 418.705 129.082 417.638C132.915 416.571 131.272 410.702 131.272 410.702L129.082 394.232Z" fill="#2F2E41"/>
<path d="M166.589 387.83C166.589 387.83 158.102 393.699 156.733 391.031C155.364 388.364 153.174 388.63 153.174 388.63C153.174 388.63 145.508 416.787 150.436 418.12C153.609 418.882 156.942 418.714 160.018 417.638C160.018 417.638 166.589 413.155 166.589 416.622C166.589 420.09 184.932 419.84 192.597 419.574C200.263 419.307 196.156 413.705 196.156 413.705L186.027 404.102L174.528 387.83C174.528 387.83 169.327 383.295 166.589 387.83Z" fill="#2F2E41"/>
<path d="M85.8254 209.372L97.3239 316.874C97.3239 316.874 103.621 382.495 104.716 383.562C105.811 384.629 112.929 388.097 128.534 383.562L124.975 297.667L131.546 244.317L146.603 281.129C146.603 281.129 150.162 380.094 152.626 380.094C155.09 380.094 170.148 384.896 173.707 379.027C177.266 373.159 176.718 309.938 176.718 309.938C176.718 309.938 175.076 210.172 163.03 206.971C150.984 203.77 85.8254 209.372 85.8254 209.372Z" fill="#2F2E41"/>
<path d="M117.583 72.2612C128.016 72.2612 136.474 64.0206 136.474 53.8552C136.474 43.6899 128.016 35.4493 117.583 35.4493C107.15 35.4493 98.6928 43.6899 98.6928 53.8552C98.6928 64.0206 107.15 72.2612 117.583 72.2612Z" fill="#FFB9B9"/>
<path d="M118.678 105.072C118.678 105.072 116.762 93.6014 116.762 91.4674C116.762 89.3334 108.275 87.9996 108.275 87.9996C108.275 87.9996 101.704 80.7973 100.335 81.8643C98.9665 82.9313 78.1597 96.5357 74.8744 98.403C71.5891 100.27 68.03 108.273 68.3038 108.806C68.5776 109.34 85.5516 144.018 85.5516 144.018C85.5516 144.018 92.9435 165.358 87.7418 176.562C82.5401 187.765 75.9695 209.906 85.5516 214.441C95.1337 218.975 141.675 228.845 150.162 220.309C158.649 211.773 164.672 209.372 166.863 209.372C169.053 209.372 157.828 172.294 160.292 168.826C162.756 165.358 159.197 143.751 159.197 143.751L171.791 109.34C171.791 109.34 170.695 90.1336 145.782 85.8656L130.878 78.8245L118.678 105.072Z" fill="#575A89"/>
<path d="M67.4825 214.174C67.4825 214.174 66.1136 226.978 66.1136 230.712C66.1136 234.447 59.543 256.321 69.1251 258.988C78.7072 261.656 77.8859 229.912 77.8859 229.912V213.64L67.4825 214.174Z" fill="#FFB9B9"/>
<path d="M181.099 202.17C181.099 202.17 182.742 214.441 181.92 217.108C181.099 219.776 189.86 242.983 178.087 244.317C166.315 245.651 169.327 216.575 169.327 216.575V202.17L181.099 202.17Z" fill="#FFB9B9"/>
<path d="M65.0185 291.532L72.958 250.452H75.4219C77.1447 252.616 78.2747 255.172 78.7057 257.878C79.1367 260.584 78.8546 263.353 77.8859 265.924C74.6006 274.994 71.8629 291.532 71.8629 291.532H65.0185Z" fill="#2F2E41"/>
<path d="M72.4104 105.605L68.3038 108.806C68.3038 108.806 62.8283 193.634 64.1972 200.036C65.5661 206.438 59.2693 215.508 64.7448 216.308C70.2202 217.108 76.7908 220.576 79.8023 218.442C82.8139 216.308 83.3614 208.572 84.4565 206.705C85.5516 204.837 87.468 182.697 87.468 182.697C87.468 182.697 93.2172 160.556 89.6582 144.018C86.0991 127.479 82.8138 110.674 82.8138 110.674L72.4104 105.605Z" fill="#575A89"/>
<path d="M159.197 98.9365L171.791 109.34L181.373 163.758C181.373 163.758 187.396 206.171 182.742 206.705C178.087 207.238 170.969 205.904 167.958 206.705C164.946 207.505 162.482 205.371 162.482 205.371C162.482 205.371 159.197 188.299 159.197 188.032C159.197 187.765 157.007 168.292 157.007 168.292L154.269 146.419L158.376 122.411L159.197 98.9365Z" fill="#575A89"/>
<path d="M99.7879 350.751C99.7879 350.751 98.0083 355.732 95.5553 362.512C94.4164 365.665 93.1324 369.211 91.8101 372.825C90.9586 375.162 90.0935 377.528 89.2421 379.838C87.8841 383.533 86.5645 387.08 85.412 390.127C83.8898 394.147 82.655 397.297 81.9925 398.767C78.981 405.436 23.9523 394.766 19.5719 392.098C15.1915 389.43 14.0964 380.361 13.5489 367.557C13.5462 367.49 13.5434 367.423 13.5434 367.357C13.4722 364.772 14.1485 360.923 15.2792 356.406C15.8431 354.15 16.5221 351.728 17.2777 349.212C18.2907 345.838 19.4405 342.301 20.6424 338.779C25.8058 323.655 31.8918 308.871 31.8918 308.871C31.8918 308.871 42.569 301.669 46.4018 296.867C50.2347 292.066 71.3153 288.331 71.3153 288.331C77.3384 288.598 91.0271 311.272 96.5026 318.207C101.978 325.143 99.7879 350.751 99.7879 350.751Z" fill="#3F3D56"/>
<path d="M69.1252 310.205C70.486 310.205 71.5891 309.13 71.5891 307.804C71.5891 306.478 70.486 305.403 69.1252 305.403C67.7643 305.403 66.6612 306.478 66.6612 307.804C66.6612 309.13 67.7643 310.205 69.1252 310.205Z" fill="#2F2E41"/>
<path d="M72.958 311.806C73.714 311.806 74.3269 311.208 74.3269 310.472C74.3269 309.735 73.714 309.138 72.958 309.138C72.202 309.138 71.5891 309.735 71.5891 310.472C71.5891 311.208 72.202 311.806 72.958 311.806Z" fill="#2F2E41"/>
<path d="M95.5554 362.513C94.4164 365.666 93.1324 369.211 91.8101 372.825L17.2777 349.212C18.2907 345.838 19.4406 342.301 20.6424 338.78L95.5554 362.513Z" fill="#F2F2F2"/>
<path d="M89.2421 379.838C87.8842 383.533 86.5646 387.081 85.412 390.127L13.5434 367.357C13.4723 364.772 14.1485 360.923 15.2792 356.407L89.2421 379.838Z" fill="#F2F2F2"/>
<path d="M69.1251 308.338C69.1251 308.338 74.6006 331.812 71.3153 352.619C68.03 373.425 79.5285 392.898 79.5285 392.898" stroke="#2F2E41" stroke-width="3" stroke-miterlimit="10"/>
<path d="M72.958 310.205C72.958 310.205 62.2808 348.084 62.007 353.419C61.7332 358.754 57.3528 396.9 51.8773 400.901" stroke="#2F2E41" stroke-width="3" stroke-miterlimit="10"/>
<path d="M103.081 42.6235C103.081 42.6235 98.8048 31.7911 105.005 28.2498L106.715 33.041C106.715 33.041 122.323 23.8751 126.385 25.9583L122.536 30.9579C122.536 30.9579 140.709 30.9579 141.992 37.8323L135.578 38.0406C135.578 38.0406 142.42 42.4153 142.634 49.498L128.95 50.3313L135.578 54.081C135.578 54.081 110.778 57.414 104.791 47.8315L103.081 42.6235Z" fill="#2F2E41"/>
<path d="M99.3772 43.0517C99.3772 43.0517 104.305 52.6548 110.876 50.254C117.446 47.8532 110.876 39.0504 110.876 39.0504L106.495 36.9164L99.3772 43.0517Z" fill="#2F2E41"/>
<path d="M524.324 194.551L434.966 85.7499C430.908 89.3654 425.909 91.8249 420.515 92.8598C403.692 96.0879 387.263 84.8946 383.82 67.8588C382.633 62.2249 383.048 56.3821 385.019 50.961C386.991 45.5399 390.445 40.7464 395.008 37.0979L364.539 0L190.956 144.549L350.741 339.099L524.324 194.551Z" fill="#F2F2F2"/>
<path d="M413.293 87.6907C427.206 87.6907 438.485 76.7013 438.485 63.1451C438.485 49.589 427.206 38.5995 413.293 38.5995C399.38 38.5995 388.102 49.589 388.102 63.1451C388.102 76.7013 399.38 87.6907 413.293 87.6907Z" fill="#F2F2F2"/>
<path d="M255.665 172.516L247.958 181.208L273.926 203.071L281.634 194.379L255.665 172.516Z" fill="#6C63FF"/>
<path d="M422.599 327.952L414.891 336.643L437.909 356.023L445.617 347.331L422.599 327.952Z" fill="#6C63FF"/>
<path d="M464.189 263.214V263.888C464.173 265.58 464.124 267.265 464.04 268.942C462.541 297.643 449.834 324.699 428.521 344.566C407.209 364.432 378.905 375.604 349.411 375.792C319.917 375.98 291.465 365.17 269.888 345.577C248.31 325.984 235.24 299.092 233.357 270.412C233.2 268.031 233.121 265.631 233.121 263.214C233.08 239.899 240.506 217.152 254.365 198.145C255.473 196.613 256.626 195.11 257.823 193.634C258.649 192.608 259.497 191.605 260.354 190.609C279.857 168.097 307.639 153.93 337.74 151.146C367.841 148.363 397.862 157.186 421.363 175.723C422.754 176.818 424.122 177.951 425.458 179.107C426.527 180.034 427.577 180.981 428.609 181.948C448.938 200.895 461.451 226.433 463.788 253.749C464.056 256.873 464.189 260.028 464.189 263.214Z" fill="#3F3D56"/>
<path d="M348.655 389.952C276.932 389.952 218.581 333.097 218.581 263.214C218.539 231.24 230.941 200.441 253.288 177.026L256.168 179.631C234.497 202.338 222.469 232.207 222.511 263.214C222.511 330.986 279.099 386.123 348.655 386.123C365.556 386.179 382.292 382.898 397.856 376.48C413.42 370.062 427.489 360.638 439.213 348.778L442.035 351.443C429.945 363.673 415.438 373.39 399.389 380.009C383.341 386.627 366.082 390.009 348.655 389.952Z" fill="#6C63FF"/>
<path d="M367.518 387.272H334.508V419.435H367.518V387.272Z" fill="#6C63FF"/>
<path d="M257.823 193.634C257.88 193.657 257.933 193.688 257.981 193.726C258.601 194.224 257.823 195.181 257.918 195.97C258.028 196.981 259.411 197.203 260.456 197.302C261.502 197.41 262.822 198.229 262.327 199.133C259.702 200.013 257.045 199.148 254.365 198.145C240.506 217.152 233.08 239.899 233.121 263.214C233.121 265.634 233.2 268.033 233.357 270.412C233.577 270.569 233.817 270.695 234.072 270.788C234.858 271.079 235.77 271.025 236.493 271.438C237.067 271.768 237.452 272.35 238.025 272.656C239.668 273.529 241.947 271.852 243.48 272.893C243.876 273.245 244.251 273.618 244.604 274.012C246.019 275.206 248.345 274.402 249.98 275.298C251.033 275.872 251.575 277.021 252.141 278.063C253.548 280.666 255.827 283.224 258.837 283.431C259.787 283.388 260.738 283.419 261.682 283.523C262.61 283.729 263.522 284.518 263.372 285.429C263.113 286.999 263.907 288.715 263.694 290.285C263.309 293.156 259.136 294.412 258.782 297.284C258.781 297.916 258.744 298.547 258.672 299.175C258.484 299.926 257.902 300.538 257.698 301.289C257.305 302.706 258.35 304.122 259.49 305.072C260.637 306.029 262.005 306.856 262.633 308.189C263.294 309.605 262.971 311.252 263.184 312.791C263.655 316.153 266.634 318.642 269.699 320.25C270.681 320.65 271.554 321.269 272.246 322.057C273.031 323.168 272.953 324.63 273.22 325.955C273.865 329.194 276.663 331.867 276.741 335.167C276.796 337.518 275.46 339.647 274.658 341.86C273.834 344.181 273.589 346.659 273.943 349.089C278.424 352.793 283.188 356.159 288.192 359.16C288.465 358.768 288.664 358.332 288.782 357.873C288.877 357.365 288.811 356.842 288.594 356.371C288.376 355.901 288.017 355.506 287.564 355.239C288.408 354.928 289.177 354.448 289.819 353.83C290.135 353.513 290.343 353.11 290.417 352.675C290.49 352.239 290.424 351.792 290.228 351.395C291.611 351.563 293.254 351.647 294.166 350.613C294.896 349.786 294.849 348.546 294.558 347.497C294.159 346.477 293.895 345.411 293.773 344.326C296.977 344.478 300.19 344.373 303.377 344.012C302.916 342.498 301.867 341.218 300.453 340.444C301.899 340.206 303.212 338.522 303.668 337.166C304.062 335.783 304.083 334.325 303.731 332.931C303.621 332.573 303.605 332.194 303.683 331.829C303.916 331.343 304.325 330.958 304.831 330.749C307.22 329.409 309.609 328.071 311.999 326.736C312.425 326.527 312.813 326.25 313.146 325.917C313.893 325.051 313.783 323.757 313.398 322.693C313.012 321.628 312.399 320.625 312.25 319.507C311.81 316.161 315.488 313.756 316.73 310.601C317.152 309.341 317.38 308.028 317.406 306.703C317.508 305.279 317.516 303.632 316.4 302.721C315.323 301.84 313.649 302.039 312.525 301.22C311.496 300.47 311.142 299.022 310.018 298.417C308.996 297.866 307.723 298.218 306.583 297.958C304.587 297.506 303.33 295.262 301.286 295.055C300.139 294.933 298.834 295.484 297.891 294.833C297.058 294.251 297.026 293.095 296.869 292.115C296.59 290.588 295.838 289.181 294.714 288.083C293.59 286.985 292.148 286.249 290.582 285.973C289.395 285.789 288.106 285.858 287.092 285.223C286.07 284.579 285.607 283.377 284.797 282.481C283.508 281.049 281.465 280.536 279.555 280.1C276.961 279.51 274.37 278.918 271.782 278.323C270.406 278.001 268.63 277.833 267.884 279.012C267.663 279.461 267.509 279.938 267.428 280.429C267.147 281.313 266.587 282.088 265.828 282.643C265.069 283.199 264.149 283.506 263.199 283.523C262.549 282.441 261.496 281.646 260.26 281.302C259.452 281.17 258.654 280.985 257.871 280.75C257.462 280.555 257.098 280.281 256.802 279.944C256.505 279.607 256.283 279.215 256.147 278.791C256.012 278.367 255.967 277.921 256.014 277.48C256.062 277.039 256.201 276.612 256.424 276.225C256.87 275.447 257.041 274.549 256.912 273.668C256.783 272.787 256.36 271.971 255.709 271.347C254.389 270.19 252.479 269.907 250.703 270.022C250.239 269.034 251.017 267.924 251.85 267.204C252.691 266.491 253.705 265.787 253.886 264.715C254.177 263.03 251.968 261.751 250.294 262.249C248.62 262.754 247.551 264.34 246.844 265.902C246.501 266.824 246.033 267.697 245.453 268.498C245.155 268.894 244.751 269.203 244.285 269.389C243.819 269.576 243.309 269.633 242.812 269.555C241.429 269.21 240.902 267.61 240.595 266.262C240.104 264.46 239.856 262.604 239.857 260.74C239.869 258.858 240.636 257.055 241.994 255.717C244.282 253.665 247.803 253.864 250.891 254.193C250.561 253.763 250.402 253.23 250.445 252.695C250.489 252.159 250.731 251.657 251.127 251.283C251.541 250.925 252.037 250.671 252.574 250.543C253.111 250.415 253.672 250.417 254.208 250.548C255.139 250.736 255.978 251.224 256.589 251.934C257.47 252.975 257.721 254.392 258.381 255.571C259.05 256.758 260.543 257.769 261.761 257.134C262.822 256.582 262.987 255.158 262.728 254.017C262.461 252.883 261.902 251.773 261.997 250.609C262.178 248.396 264.543 247.056 266.626 246.144C268.709 245.233 271.09 244 271.42 241.795C271.436 241.366 271.52 240.942 271.672 240.539C271.902 240.179 272.225 239.884 272.607 239.681C278.682 235.768 284.868 231.801 291.816 229.665C292.177 229.55 292.216 229.672 292.586 229.588C293.105 229.297 292.759 228.493 292.264 228.171C291.768 227.85 291.108 227.597 290.983 227.03C290.896 226.617 291.148 226.203 291.21 225.782C291.227 225.528 291.179 225.273 291.071 225.041C290.963 224.809 290.798 224.606 290.591 224.45C290.384 224.295 290.141 224.191 289.883 224.148C289.625 224.105 289.36 224.125 289.112 224.205C288.554 223.485 289.654 222.65 290.55 222.405C293.233 221.689 295.986 221.253 298.763 221.103C299.084 221.052 299.413 221.105 299.699 221.256C299.903 221.448 300.024 221.709 300.037 221.985C300.05 222.262 299.955 222.532 299.769 222.742C299.391 223.151 298.973 223.523 298.52 223.852C298.069 224.279 297.747 224.818 297.589 225.411C297.431 226.004 297.443 226.628 297.624 227.214C299.078 227.934 300.65 228.677 302.261 228.424C303.864 228.171 305.287 226.41 304.532 225.009C303.833 223.699 301.719 223.401 301.357 221.969C300.933 220.291 303.369 218.798 302.819 217.159C302.583 216.44 301.844 216.011 301.278 215.498C300.612 214.859 300.16 214.039 299.979 213.146C299.798 212.252 299.897 211.327 300.265 210.489C299.344 210.646 298.399 210.586 297.508 210.314C296.616 210.042 295.805 209.567 295.14 208.927C293.914 207.725 292.939 205.818 291.195 205.879C289.599 205.925 288.224 207.74 286.731 207.189C286.361 207.051 285.976 206.775 285.622 206.936C285.506 207.009 285.408 207.107 285.335 207.223C285.263 207.338 285.219 207.468 285.206 207.602C284.829 209.371 285.481 211.385 284.491 212.917C283.414 214.579 280.922 214.808 279.618 216.309C278.91 217.121 278.635 218.216 277.983 219.074C277.331 219.932 275.955 220.483 275.169 219.732C275.554 218.964 275.66 218.09 275.468 217.255C275.277 216.421 274.8 215.674 274.116 215.138C273.392 214.675 272.61 214.304 271.79 214.035C270.873 213.658 270.001 213.186 269.188 212.626C268.783 212.386 268.454 212.041 268.237 211.63C268.066 211.114 268.088 210.555 268.3 210.053C268.698 208.947 269.398 207.967 270.324 207.22C271.251 206.472 272.369 205.985 273.558 205.81C274.596 205.673 275.806 205.719 276.497 204.945C276.859 204.539 277.048 203.919 277.582 203.758C277.919 203.69 278.269 203.73 278.58 203.873C279.877 204.317 281.166 204.761 282.463 205.205C282.895 205.399 283.373 205.475 283.846 205.427C284.081 205.398 284.295 205.283 284.445 205.105C284.596 204.927 284.671 204.7 284.656 204.47C284.53 203.842 283.54 203.544 283.634 202.908C283.68 202.7 283.793 202.513 283.956 202.372C285.358 200.919 287.072 199.786 288.975 199.054C290.879 198.322 292.925 198.009 294.967 198.137C295.454 198.926 294.684 199.853 294.032 200.519C293.387 201.193 292.869 202.387 293.655 202.9C293.972 203.062 294.326 203.142 294.684 203.13C295.64 203.255 296.569 203.529 297.435 203.942C298.779 204.509 300.099 205.137 301.388 205.81C301.199 204.989 301.231 204.134 301.483 203.329C301.625 202.934 301.913 202.605 302.29 202.405C302.668 202.205 303.109 202.15 303.526 202.249C304.296 202.54 304.689 203.536 305.515 203.628C306.607 203.75 307.039 202.173 306.584 201.193C306.128 200.212 305.216 199.401 305.145 198.321C305.09 197.601 305.373 196.705 304.784 196.269C304.574 196.133 304.334 196.049 304.084 196.024C299.148 195.143 294.21 194.26 289.269 193.374C288.389 193.213 287.123 193.336 287.084 194.201C287.061 194.691 287.509 195.174 287.312 195.618C287.1 196.093 286.408 196.054 285.905 196.223C285.527 196.39 285.216 196.672 285.017 197.027C284.818 197.382 284.744 197.791 284.805 198.191C284.939 198.987 285.256 199.744 285.732 200.404C284.766 200.013 283.312 199.944 282.345 199.546C282.204 198.456 281.919 197.387 281.496 196.368C281.472 196.206 281.412 196.051 281.319 195.914C281.227 195.777 281.105 195.661 280.962 195.575C280.819 195.489 280.658 195.434 280.491 195.415C280.324 195.396 280.155 195.413 279.995 195.465C278.722 195.656 277.449 195.84 276.175 196.031C275.856 196.046 275.549 196.162 275.303 196.361C274.808 196.874 275.295 197.693 275.279 198.398C275.233 198.791 275.062 199.162 274.791 199.457C274.519 199.752 274.159 199.957 273.762 200.044C272.963 200.202 272.137 200.192 271.342 200.013C269.558 199.745 267.781 199.477 265.997 199.209C267.572 198.72 268.973 197.807 270.037 196.575C270.744 195.763 271.122 194.247 270.1 193.864C269.798 193.783 269.483 193.76 269.172 193.795C266.752 193.81 264.842 191.842 262.578 191.008C261.867 190.749 261.114 190.614 260.354 190.609L257.823 193.634Z" fill="#6C63FF"/>
<path d="M464.04 268.942C463.763 269.304 463.399 269.595 462.979 269.789C462.56 269.982 462.098 270.073 461.635 270.052C459.175 269.846 458.137 266.392 455.701 266.001C455.485 265.948 455.257 265.969 455.057 266.063C454.695 266.254 454.632 266.729 454.609 267.127C454.506 269.103 454.42 271.155 455.214 272.978C456.369 275.643 459.363 277.879 458.735 280.704C455.355 279.181 453.595 275.482 452.801 271.936C451.999 268.391 451.873 264.669 450.443 261.315C449.351 262.67 447.071 261.552 446.081 260.128C445.138 258.78 444.556 257.218 443.645 255.847C442.733 254.484 441.334 253.259 439.668 253.182C437.915 253.105 436.39 254.277 435.054 255.387C433.892 256.224 432.916 257.282 432.185 258.497C431.25 260.334 431.494 262.494 431.447 264.539C431.4 266.744 430.92 269.08 429.372 270.703C427.823 272.319 424.97 272.886 423.265 271.423C422.44 270.585 421.853 269.554 421.559 268.429C419.705 263.164 418.162 257.8 416.938 252.363C416.655 253.603 415.531 255.204 414.462 254.476C414.223 254.278 414.03 254.033 413.897 253.756C411.9 250.471 408.214 248.495 404.481 247.308C400.755 246.129 396.834 245.578 393.148 244.276C391.08 243.544 389.105 242.586 387.261 241.419C386.792 242.092 386.519 242.875 386.469 243.687C386.419 244.498 386.595 245.307 386.978 246.03C387.392 246.736 388.034 247.29 388.805 247.604C389.575 247.918 390.43 247.976 391.238 247.768C392.055 247.507 392.747 246.956 393.556 246.68C394.366 246.412 395.458 246.543 395.812 247.308C396.158 248.036 395.639 248.917 395.898 249.682C396.283 250.839 398.083 250.931 398.712 251.987C398.897 252.406 398.939 252.871 398.833 253.315C398.727 253.758 398.478 254.157 398.123 254.453C397.399 255.028 396.601 255.507 395.749 255.878C393.108 257.31 391.23 259.752 388.919 261.652C386.608 263.558 383.347 264.945 380.596 263.727C381.248 260.488 377.295 258.114 376.564 254.89C376.32 253.825 376.446 252.7 376.108 251.666C375.613 250.165 374.246 249.139 373.13 248.005C371.774 246.614 370.717 244.972 370.022 243.177C369.327 241.382 369.007 239.47 369.082 237.552C369.145 236.22 369.396 234.864 369.082 233.562C368.775 232.268 367.667 231.012 366.3 231.066C363.179 231.204 359.242 231.434 357.607 228.838C357.018 227.911 356.766 226.556 357.615 225.843C357.947 225.638 358.317 225.5 358.704 225.435C359.091 225.371 359.488 225.382 359.871 225.468C362.221 225.69 364.563 225.92 366.913 226.142C368.555 226.295 370.332 226.425 371.746 225.591C373.161 224.756 373.774 222.527 372.461 221.54C371.51 220.82 369.797 220.858 369.514 219.717C369.286 218.76 370.371 217.68 369.781 216.876C369.365 216.309 368.422 216.462 367.848 216.891C367.347 217.398 366.803 217.861 366.221 218.277C365.097 218.844 363.761 218.3 362.551 217.933C361.34 217.565 359.721 217.535 359.14 218.63C358.479 219.847 359.713 221.455 359.069 222.681C358.204 224.296 355.296 223.377 354.086 224.771C352.703 226.364 355.029 228.753 354.565 230.79C353.968 231.079 353.305 231.211 352.639 231.175C351.974 231.139 351.33 230.935 350.769 230.584C350.219 230.219 349.781 229.716 349.502 229.128C349.222 228.54 349.111 227.889 349.182 227.245C349.292 226.326 349.787 225.384 349.457 224.518C349.101 223.85 348.513 223.327 347.798 223.041C345.519 221.808 343.24 220.58 340.961 219.357C340.324 220.506 341.126 221.922 342.132 222.788C343.13 223.645 344.387 224.296 345.048 225.43C345.466 226.215 345.56 227.127 345.312 227.978C345.064 228.829 344.491 229.555 343.712 230.009C343.613 230.075 343.501 230.12 343.383 230.14C343.265 230.159 343.143 230.154 343.028 230.124C342.919 230.062 342.824 229.979 342.748 229.88C342.673 229.782 342.618 229.669 342.588 229.55C341.385 226.54 339.57 223.576 336.677 222.007C333.777 220.429 329.62 220.758 327.718 223.4C327.27 224.028 326.963 224.748 326.57 225.414C324.487 228.945 320.007 230.614 315.826 230.507C315.417 230.532 315.01 230.439 314.655 230.239C313.979 229.787 314.011 228.822 314.113 228.026C314.262 226.9 314.404 225.782 314.553 224.656C314.557 223.969 314.829 223.309 315.315 222.811C316.093 222.213 317.209 222.589 318.2 222.573C318.947 222.541 319.666 222.284 320.258 221.839C320.85 221.394 321.287 220.781 321.509 220.084C321.708 219.382 321.706 218.64 321.504 217.938C321.302 217.236 320.907 216.601 320.361 216.102C319.913 215.689 319.308 215.168 319.544 214.609C319.64 214.455 319.769 214.323 319.922 214.223C320.075 214.122 320.249 214.056 320.432 214.027C322.2 213.529 324.079 213.399 325.816 212.802C327.56 212.212 329.25 211.002 329.667 209.249C329.792 208.713 329.847 208.062 330.343 207.794C330.593 207.696 330.859 207.644 331.129 207.64C332.074 207.508 332.934 207.037 333.54 206.319C334.147 205.6 334.455 204.687 334.406 203.758C335.239 203.191 336.41 203.612 337.22 204.217C338.021 204.822 338.737 205.619 339.719 205.879C341.55 206.369 343.319 204.784 345.221 204.776C346.022 204.776 346.847 205.052 347.594 204.784C348.356 204.516 348.812 203.781 349.394 203.237C349.983 202.686 351.005 202.357 351.547 202.946C351.39 201.836 351.241 200.733 351.084 199.63C352.01 199.858 352.975 199.889 353.914 199.723C354.854 199.556 355.746 199.196 356.53 198.665C354.55 198.015 352.577 197.364 350.596 196.713C350.388 196.663 350.197 196.563 350.038 196.422C349.606 195.97 350.038 195.265 350.384 194.752C351.225 193.519 351.367 191.49 349.983 190.877C349.04 190.456 347.964 190.962 347.06 191.452C345.614 192.233 344.167 193.022 342.721 193.803C342.588 194.607 343.594 195.066 344.215 195.602C344.593 195.929 344.861 196.36 344.983 196.838C345.105 197.317 345.076 197.82 344.899 198.281C344.722 198.743 344.406 199.142 343.992 199.425C343.578 199.708 343.086 199.862 342.58 199.868C342.865 200.23 343.063 200.65 343.159 201.096C343.256 201.543 343.248 202.005 343.138 202.448C342.171 202.517 341.197 202.586 340.222 202.655C340.06 202.687 339.893 202.687 339.732 202.655C339.57 202.623 339.416 202.561 339.279 202.471C338.964 202.203 339.012 201.729 338.933 201.33C338.804 200.854 338.531 200.427 338.15 200.104C337.769 199.78 337.297 199.575 336.795 199.515C335.794 199.406 334.78 199.497 333.816 199.783C333.397 199.927 332.939 199.916 332.528 199.753C332.294 199.602 332.118 199.382 332.025 199.125C331.853 198.6 331.824 198.041 331.94 197.501C332.056 196.962 332.312 196.461 332.685 196.046C333.439 195.23 334.271 194.484 335.168 193.818C337.202 192.083 338.697 189.828 339.483 187.309C341.087 186.65 342.745 185.762 344.356 185.103C345.651 184.518 347.009 184.074 348.404 183.778C349.717 183.583 351.047 183.522 352.373 183.595C354.18 183.625 355.996 183.656 357.804 183.694C359.417 183.628 361.029 183.854 362.559 184.36C364.044 184.958 365.357 186.252 365.459 187.814C365.49 187.992 365.473 188.175 365.411 188.345C365.35 188.515 365.244 188.667 365.105 188.787C364.896 188.899 364.659 188.952 364.421 188.94C362.92 188.986 362.283 189.353 360.782 189.407C361.733 190.395 362.802 191.436 364.185 191.612C366.622 191.919 368.375 189.461 369.498 187.324C369.539 187.868 369.795 188.375 370.214 188.737C370.632 189.099 371.179 189.287 371.738 189.261C372.341 189.161 372.915 188.942 373.428 188.618C378.262 186.044 383.677 184.681 389.186 184.651C389.132 184.245 389.235 183.834 389.475 183.497C389.714 183.16 390.074 182.922 390.483 182.829C391.607 182.614 392.613 183.556 393.155 184.537C393.69 185.517 394.028 186.65 394.892 187.385C395.749 188.12 397.407 188.082 397.745 187.025C398.075 186.007 396.983 185.134 396.079 184.529C395.167 183.932 394.216 182.821 394.829 181.933C399.451 180.93 404.111 179.934 408.851 179.735C409.656 179.759 410.458 179.623 411.209 179.337C411.58 179.184 411.889 178.915 412.088 178.573C412.287 178.231 412.365 177.835 412.309 177.445C411.275 177.681 410.192 177.611 409.199 177.246C408.205 176.88 407.345 176.235 406.729 175.393C411.594 175.003 416.687 174.658 421.363 175.722L425.458 179.107C424.68 179.896 423.642 180.639 424.208 181.428C424.395 181.609 424.621 181.746 424.87 181.83C425.12 181.913 425.385 181.941 425.646 181.91C426.637 181.925 427.627 181.948 428.609 181.948C448.938 200.895 461.451 226.433 463.788 253.749C462.138 253.687 460.621 255.724 460.833 257.501C461.085 259.561 462.609 261.215 463.702 262.992C463.883 263.281 464.046 263.58 464.189 263.888L464.04 268.942Z" fill="#6C63FF"/>
<path d="M0 419.342H600" stroke="#3F3D56" stroke-width="2" stroke-miterlimit="10"/>
<path d="M247.535 52.6844C253.042 52.6844 257.505 48.3351 257.505 42.9701C257.505 37.605 253.042 33.2558 247.535 33.2558C242.029 33.2558 237.565 37.605 237.565 42.9701C237.565 48.3351 242.029 52.6844 247.535 52.6844Z" stroke="#3F3D56" stroke-width="2" stroke-miterlimit="10"/>
<path d="M542.13 237.68C547.636 237.68 552.1 233.331 552.1 227.966C552.1 222.6 547.636 218.251 542.13 218.251C536.624 218.251 532.16 222.6 532.16 227.966C532.16 233.331 536.624 237.68 542.13 237.68Z" stroke="#3F3D56" stroke-width="2" stroke-miterlimit="10"/>
<path d="M474.067 140.903C479.573 140.903 484.037 136.554 484.037 131.189C484.037 125.823 479.573 121.474 474.067 121.474C468.561 121.474 464.097 125.823 464.097 131.189C464.097 136.554 468.561 140.903 474.067 140.903Z" stroke="#3F3D56" stroke-width="2" stroke-miterlimit="10"/>
<path d="M408.654 224.154C414.833 224.154 419.842 219.273 419.842 213.253C419.842 207.232 414.833 202.351 408.654 202.351C402.475 202.351 397.465 207.232 397.465 213.253C397.465 219.273 402.475 224.154 408.654 224.154Z" fill="#3F3D56"/>
<path d="M444.594 192.583C452.739 192.583 459.342 186.149 459.342 178.213C459.342 170.276 452.739 163.843 444.594 163.843C436.448 163.843 429.845 170.276 429.845 178.213C429.845 186.149 436.448 192.583 444.594 192.583Z" fill="white"/>
<path d="M459.509 163.315C455.551 159.553 450.22 157.476 444.691 157.543C439.161 157.61 433.885 159.814 430.023 163.671C421.982 171.703 410.501 212.264 410.501 212.264C410.501 212.264 451.833 200.077 459.875 192.045C463.736 188.188 465.867 182.994 465.799 177.606C465.73 172.219 463.468 167.078 459.509 163.315V163.315ZM437.846 184.952C436.478 183.652 435.537 181.985 435.141 180.164C434.745 178.342 434.912 176.447 435.621 174.718C436.331 172.989 437.551 171.503 439.126 170.45C440.702 169.396 442.563 168.821 444.474 168.798C446.385 168.775 448.26 169.305 449.862 170.32C451.464 171.335 452.722 172.791 453.475 174.502C454.228 176.214 454.443 178.104 454.094 179.935C453.744 181.766 452.845 183.454 451.511 184.787C449.721 186.575 447.276 187.596 444.714 187.627C442.151 187.658 439.681 186.696 437.846 184.952V184.952Z" fill="#57B894"/>
</g>
<defs>
<clipPath id="clip0">
<rect width="600" height="420" fill="white"/>
</clipPath>
</defs>
</svg>
