<svg width="550" height="348" viewBox="0 0 550 348" fill="none" xmlns="http://www.w3.org/2000/svg">
<g clip-path="url(#clip0)">
<path d="M349.786 108.838C350.823 97.6484 353.688 86.7058 358.267 76.4466C359.543 73.5916 360.948 70.7995 362.481 68.0702C362.558 67.9274 362.576 67.7604 362.532 67.6042C362.489 67.4481 362.386 67.315 362.246 67.2332C362.106 67.1513 361.94 67.1271 361.783 67.1655C361.626 67.204 361.489 67.3021 361.403 67.4393C355.828 77.3801 351.922 88.1709 349.842 99.3804C349.264 102.511 348.829 105.663 348.538 108.838C348.464 109.638 349.712 109.633 349.786 108.838V108.838Z" fill="#E6E6E6"/>
<path d="M365.504 70.0752C369.87 70.0752 373.409 66.5307 373.409 62.1582C373.409 57.7858 369.87 54.2412 365.504 54.2412C361.138 54.2412 357.599 57.7858 357.599 62.1582C357.599 66.5307 361.138 70.0752 365.504 70.0752Z" fill="#E6E6E6"/>
<path d="M350.594 109.048C351.267 101.789 353.126 94.6901 356.097 88.0345C356.924 86.1824 357.836 84.371 358.83 82.6003C358.88 82.5077 358.892 82.3994 358.864 82.2981C358.835 82.1968 358.769 82.1105 358.678 82.0574C358.587 82.0043 358.48 81.9886 358.378 82.0135C358.276 82.0384 358.187 82.1021 358.131 82.191C354.514 88.6401 351.981 95.6406 350.631 102.913C350.256 104.943 349.973 106.989 349.785 109.048C349.737 109.568 350.547 109.564 350.594 109.048V109.048Z" fill="#E6E6E6"/>
<path d="M360.791 83.9009C363.624 83.9009 365.92 81.6014 365.92 78.7648C365.92 75.9282 363.624 73.6287 360.791 73.6287C357.959 73.6287 355.663 75.9282 355.663 78.7648C355.663 81.6014 357.959 83.9009 360.791 83.9009Z" fill="#E6E6E6"/>
<path d="M349.572 108.563C345.645 102.425 342.751 95.6826 341.005 88.6051C340.521 86.6347 340.127 84.6452 339.823 82.6365C339.806 82.5327 339.749 82.4398 339.664 82.3774C339.58 82.315 339.474 82.2879 339.37 82.302C339.266 82.316 339.171 82.3699 339.106 82.4525C339.041 82.535 339.01 82.6397 339.021 82.7444C340.13 90.0572 342.431 97.1377 345.833 103.703C346.784 105.535 347.818 107.322 348.934 109.062C349.215 109.501 349.852 108.999 349.572 108.563Z" fill="#E6E6E6"/>
<path d="M339.014 83.5403C341.847 83.5403 344.143 81.2408 344.143 78.4042C344.143 75.5676 341.847 73.2681 339.014 73.2681C336.182 73.2681 333.886 75.5676 333.886 78.4042C333.886 81.2408 336.182 83.5403 339.014 83.5403Z" fill="#E6E6E6"/>
<path d="M333.828 113.107V103.016C333.829 102.013 334.228 101.051 334.936 100.341C335.645 99.6319 336.605 99.2328 337.607 99.2317H361.118C362.12 99.2328 363.081 99.6319 363.789 100.341C364.497 101.051 364.896 102.013 364.897 103.016V113.107C364.896 114.111 364.497 115.072 363.789 115.782C363.081 116.491 362.12 116.89 361.118 116.892H337.607C336.605 116.89 335.645 116.491 334.936 115.782C334.228 115.072 333.829 114.111 333.828 113.107Z" fill="#F2F2F2"/>
<path d="M360.279 48.7749H350.202C349.2 48.7738 348.24 48.3747 347.532 47.6653C346.823 46.9558 346.425 45.994 346.424 44.9907V3.78426C346.425 2.78096 346.823 1.81909 347.532 1.10965C348.24 0.400204 349.2 0.0011307 350.202 0H360.279C361.28 0.0011307 362.241 0.400204 362.949 1.10965C363.658 1.81909 364.056 2.78096 364.057 3.78426V44.9907C364.056 45.994 363.658 46.9558 362.949 47.6653C362.241 48.3747 361.28 48.7738 360.279 48.7749V48.7749Z" fill="#F2F2F2"/>
<path d="M363.637 7.98901H346.843V11.3528H363.637V7.98901Z" fill="#CCCCCC"/>
<path d="M363.637 34.0583H346.843V37.4221H363.637V34.0583Z" fill="#CCCCCC"/>
<path d="M385.469 48.7749H375.393C374.391 48.7738 373.431 48.3747 372.722 47.6653C372.014 46.9558 371.616 45.994 371.615 44.9907V3.78426C371.616 2.78096 372.014 1.81909 372.722 1.10965C373.431 0.400204 374.391 0.0011307 375.393 0H385.469C386.471 0.0011307 387.432 0.400204 388.14 1.10965C388.848 1.81909 389.247 2.78096 389.248 3.78426V44.9907C389.247 45.994 388.848 46.9558 388.14 47.6653C387.432 48.3747 386.471 48.7738 385.469 48.7749V48.7749Z" fill="#F2F2F2"/>
<path d="M388.828 7.98901H372.034V11.3528H388.828V7.98901Z" fill="#CCCCCC"/>
<path d="M388.828 34.0583H372.034V37.4221H388.828V34.0583Z" fill="#CCCCCC"/>
<path d="M410.66 48.7749H400.584C399.582 48.7738 398.622 48.3747 397.913 47.6653C397.205 46.9558 396.806 45.994 396.805 44.9907V3.78426C396.806 2.78096 397.205 1.81909 397.913 1.10965C398.622 0.400204 399.582 0.0011307 400.584 0H410.66C411.662 0.0011307 412.622 0.400204 413.331 1.10965C414.039 1.81909 414.438 2.78096 414.439 3.78426V44.9907C414.438 45.994 414.039 46.9558 413.331 47.6653C412.622 48.3747 411.662 48.7738 410.66 48.7749V48.7749Z" fill="#F2F2F2"/>
<path d="M414.019 7.98901H397.225V11.3528H414.019V7.98901Z" fill="#CCCCCC"/>
<path d="M414.019 34.0583H397.225V37.4221H414.019V34.0583Z" fill="#CCCCCC"/>
<path d="M424.095 116.892H414.019C413.017 116.89 412.057 116.491 411.348 115.782C410.64 115.073 410.242 114.111 410.24 113.107V71.901C410.242 70.8977 410.64 69.9358 411.348 69.2263C412.057 68.5169 413.017 68.1178 414.019 68.1167H424.095C425.097 68.1178 426.058 68.5169 426.766 69.2263C427.474 69.9358 427.873 70.8977 427.874 71.901V113.107C427.873 114.111 427.474 115.073 426.766 115.782C426.058 116.491 425.097 116.89 424.095 116.892V116.892Z" fill="#F2F2F2"/>
<path d="M427.454 76.1057H410.66V79.4695H427.454V76.1057Z" fill="#CCCCCC"/>
<path d="M427.454 102.175H410.66V105.539H427.454V102.175Z" fill="#CCCCCC"/>
<path d="M449.286 116.892H439.21C438.208 116.89 437.248 116.491 436.539 115.782C435.831 115.073 435.432 114.111 435.431 113.107V71.901C435.432 70.8977 435.831 69.9358 436.539 69.2263C437.248 68.5169 438.208 68.1178 439.21 68.1167H449.286C450.288 68.1178 451.249 68.5169 451.957 69.2263C452.665 69.9358 453.064 70.8977 453.065 71.901V113.107C453.064 114.111 452.665 115.073 451.957 115.782C451.249 116.491 450.288 116.89 449.286 116.892Z" fill="#F2F2F2"/>
<path d="M452.645 76.1057H435.851V79.4695H452.645V76.1057Z" fill="#CCCCCC"/>
<path d="M452.645 102.175H435.851V105.539H452.645V102.175Z" fill="#CCCCCC"/>
<path d="M474.477 116.892H464.401C463.399 116.89 462.438 116.491 461.73 115.782C461.022 115.073 460.623 114.111 460.622 113.107V71.901C460.623 70.8977 461.022 69.9358 461.73 69.2263C462.438 68.5169 463.399 68.1178 464.401 68.1167H474.477C475.479 68.1178 476.439 68.5169 477.148 69.2263C477.856 69.9358 478.255 70.8977 478.256 71.901V113.107C478.255 114.111 477.856 115.073 477.148 115.782C476.439 116.491 475.479 116.89 474.477 116.892V116.892Z" fill="#F2F2F2"/>
<path d="M477.836 76.1057H461.042V79.4695H477.836V76.1057Z" fill="#CCCCCC"/>
<path d="M477.836 102.175H461.042V105.539H477.836V102.175Z" fill="#CCCCCC"/>
<path d="M357.76 185.008H347.683C346.681 185.007 345.721 184.608 345.013 183.899C344.304 183.189 343.906 182.227 343.905 181.224V140.018C343.906 139.014 344.304 138.052 345.013 137.343C345.721 136.634 346.681 136.235 347.683 136.233H357.76C358.761 136.235 359.722 136.634 360.43 137.343C361.139 138.052 361.537 139.014 361.538 140.018V181.224C361.537 182.227 361.139 183.189 360.43 183.899C359.722 184.608 358.761 185.007 357.76 185.008Z" fill="#F2F2F2"/>
<path d="M361.118 144.222H344.324V147.586H361.118V144.222Z" fill="#CCCCCC"/>
<path d="M361.118 170.292H344.324V173.656H361.118V170.292Z" fill="#CCCCCC"/>
<path d="M382.95 185.008H372.874C371.872 185.007 370.912 184.608 370.203 183.899C369.495 183.189 369.097 182.227 369.095 181.224V140.018C369.097 139.014 369.495 138.052 370.203 137.343C370.912 136.634 371.872 136.235 372.874 136.233H382.95C383.952 136.235 384.913 136.634 385.621 137.343C386.329 138.052 386.728 139.014 386.729 140.018V181.224C386.728 182.227 386.329 183.189 385.621 183.899C384.913 184.608 383.952 185.007 382.95 185.008Z" fill="#F2F2F2"/>
<path d="M386.309 144.222H369.515V147.586H386.309V144.222Z" fill="#CCCCCC"/>
<path d="M386.309 170.292H369.515V173.656H386.309V170.292Z" fill="#CCCCCC"/>
<path d="M408.141 185.008H398.065C397.063 185.007 396.103 184.608 395.394 183.899C394.686 183.189 394.287 182.227 394.286 181.224V140.018C394.287 139.014 394.686 138.052 395.394 137.343C396.103 136.634 397.063 136.235 398.065 136.233H408.141C409.143 136.235 410.104 136.634 410.812 137.343C411.52 138.052 411.919 139.014 411.92 140.018V181.224C411.919 182.227 411.52 183.189 410.812 183.899C410.104 184.608 409.143 185.007 408.141 185.008V185.008Z" fill="#F2F2F2"/>
<path d="M411.5 144.222H394.706V147.586H411.5V144.222Z" fill="#CCCCCC"/>
<path d="M411.5 170.292H394.706V173.656H411.5V170.292Z" fill="#CCCCCC"/>
<path d="M435.851 48.7749H425.775C424.773 48.7738 423.813 48.3747 423.104 47.6653C422.396 46.9558 421.997 45.994 421.996 44.9907V3.78426C421.997 2.78096 422.396 1.81909 423.104 1.10965C423.813 0.400204 424.773 0.0011307 425.775 0H435.851C436.853 0.0011307 437.813 0.400204 438.522 1.10965C439.23 1.81909 439.629 2.78096 439.63 3.78426V44.9907C439.629 45.994 439.23 46.9558 438.522 47.6653C437.813 48.3747 436.853 48.7738 435.851 48.7749V48.7749Z" fill="#F2F2F2"/>
<path d="M439.21 7.98901H422.416V11.3528H439.21V7.98901Z" fill="#CCCCCC"/>
<path d="M439.21 34.0583H422.416V37.4221H439.21V34.0583Z" fill="#CCCCCC"/>
<path d="M461.042 48.7749H450.966C449.964 48.7738 449.003 48.3747 448.295 47.6653C447.587 46.9558 447.188 45.994 447.187 44.9907V3.78426C447.188 2.78096 447.587 1.81909 448.295 1.10965C449.003 0.400204 449.964 0.0011307 450.966 0H461.042C462.044 0.0011307 463.004 0.400204 463.713 1.10965C464.421 1.81909 464.819 2.78096 464.821 3.78426V44.9907C464.819 45.994 464.421 46.9558 463.713 47.6653C463.004 48.3747 462.044 48.7738 461.042 48.7749V48.7749Z" fill="#F2F2F2"/>
<path d="M464.401 7.98901H447.607V11.3528H464.401V7.98901Z" fill="#CCCCCC"/>
<path d="M464.401 34.0583H447.607V37.4221H464.401V34.0583Z" fill="#CCCCCC"/>
<path d="M486.233 48.7749H476.157C475.155 48.7738 474.194 48.3747 473.486 47.6653C472.777 46.9558 472.379 45.994 472.378 44.9907V3.78426C472.379 2.78096 472.777 1.81909 473.486 1.10965C474.194 0.400204 475.155 0.0011307 476.157 0H486.233C487.235 0.0011307 488.195 0.400204 488.903 1.10965C489.612 1.81909 490.01 2.78096 490.011 3.78426V44.9907C490.01 45.994 489.612 46.9558 488.903 47.6653C488.195 48.3747 487.235 48.7738 486.233 48.7749V48.7749Z" fill="#F2F2F2"/>
<path d="M489.592 7.98901H472.798V11.3528H489.592V7.98901Z" fill="#CCCCCC"/>
<path d="M489.592 34.0583H472.798V37.4221H489.592V34.0583Z" fill="#CCCCCC"/>
<path d="M511.424 48.7749H501.347C500.345 48.7738 499.385 48.3747 498.677 47.6653C497.968 46.9558 497.57 45.994 497.569 44.9907V3.78426C497.57 2.78096 497.968 1.81909 498.677 1.10965C499.385 0.400204 500.345 0.0011307 501.347 0H511.424C512.425 0.0011307 513.386 0.400204 514.094 1.10965C514.803 1.81909 515.201 2.78096 515.202 3.78426V44.9907C515.201 45.994 514.803 46.9558 514.094 47.6653C513.386 48.3747 512.425 48.7738 511.424 48.7749V48.7749Z" fill="#F2F2F2"/>
<path d="M514.783 7.98901H497.989V11.3528H514.783V7.98901Z" fill="#CCCCCC"/>
<path d="M514.783 34.0583H497.989V37.4221H514.783V34.0583Z" fill="#CCCCCC"/>
<path d="M549.16 50.0364H309.847C309.625 50.0364 309.411 49.9478 309.254 49.7901C309.096 49.6324 309.008 49.4185 309.008 49.1954C309.008 48.9724 309.096 48.7585 309.254 48.6008C309.411 48.4431 309.625 48.3545 309.847 48.3545H549.16C549.383 48.3545 549.597 48.4431 549.754 48.6008C549.912 48.7585 550 48.9724 550 49.1954C550 49.4185 549.912 49.6324 549.754 49.7901C549.597 49.9478 549.383 50.0364 549.16 50.0364Z" fill="#CCCCCC"/>
<path d="M549.16 118.153H309.847C309.625 118.153 309.411 118.064 309.254 117.907C309.096 117.749 309.008 117.535 309.008 117.312C309.008 117.089 309.096 116.875 309.254 116.717C309.411 116.56 309.625 116.471 309.847 116.471H549.16C549.383 116.471 549.597 116.56 549.754 116.717C549.912 116.875 550 117.089 550 117.312C550 117.535 549.912 117.749 549.754 117.907C549.597 118.064 549.383 118.153 549.16 118.153Z" fill="#CCCCCC"/>
<path d="M549.16 186.27H309.847C309.625 186.27 309.411 186.181 309.254 186.023C309.096 185.866 309.008 185.652 309.008 185.429C309.008 185.206 309.096 184.992 309.254 184.834C309.411 184.676 309.625 184.588 309.847 184.588H549.16C549.383 184.588 549.597 184.676 549.754 184.834C549.912 184.992 550 185.206 550 185.429C550 185.652 549.912 185.866 549.754 186.023C549.597 186.181 549.383 186.27 549.16 186.27Z" fill="#CCCCCC"/>
<path d="M488.335 176.954C489.373 165.765 492.238 154.822 496.817 144.563C498.093 141.708 499.497 138.916 501.03 136.187C501.107 136.044 501.126 135.877 501.082 135.721C501.038 135.565 500.936 135.432 500.796 135.35C500.656 135.268 500.49 135.244 500.333 135.282C500.175 135.321 500.039 135.419 499.953 135.556C494.378 145.497 490.472 156.288 488.392 167.497C487.813 170.627 487.378 173.78 487.087 176.954C487.013 177.755 488.262 177.75 488.335 176.954V176.954Z" fill="#E6E6E6"/>
<path d="M504.053 138.192C508.419 138.192 511.959 134.647 511.959 130.275C511.959 125.902 508.419 122.358 504.053 122.358C499.688 122.358 496.148 125.902 496.148 130.275C496.148 134.647 499.688 138.192 504.053 138.192Z" fill="#E6E6E6"/>
<path d="M489.144 177.165C489.817 169.906 491.676 162.807 494.646 156.151C495.474 154.299 496.385 152.488 497.38 150.717C497.43 150.624 497.442 150.516 497.413 150.415C497.385 150.313 497.318 150.227 497.228 150.174C497.137 150.121 497.029 150.105 496.927 150.13C496.825 150.155 496.737 150.219 496.681 150.308C493.064 156.757 490.53 163.757 489.181 171.029C488.805 173.06 488.523 175.105 488.334 177.165C488.286 177.684 489.096 177.681 489.144 177.165V177.165Z" fill="#E6E6E6"/>
<path d="M499.341 152.018C502.173 152.018 504.47 149.718 504.47 146.881C504.47 144.045 502.173 141.745 499.341 141.745C496.509 141.745 494.213 144.045 494.213 146.881C494.213 149.718 496.509 152.018 499.341 152.018Z" fill="#E6E6E6"/>
<path d="M488.122 176.68C484.195 170.542 481.3 163.799 479.555 156.722C479.07 154.751 478.676 152.762 478.373 150.753C478.356 150.649 478.298 150.557 478.214 150.494C478.129 150.432 478.024 150.405 477.92 150.419C477.815 150.433 477.721 150.487 477.656 150.569C477.591 150.652 477.56 150.756 477.57 150.861C478.679 158.174 480.981 165.254 484.383 171.82C485.334 173.652 486.368 175.438 487.483 177.179C487.765 177.618 488.401 177.116 488.122 176.68Z" fill="#E6E6E6"/>
<path d="M477.564 151.657C480.396 151.657 482.692 149.357 482.692 146.521C482.692 143.684 480.396 141.385 477.564 141.385C474.732 141.385 472.435 143.684 472.435 146.521C472.435 149.357 474.732 151.657 477.564 151.657Z" fill="#E6E6E6"/>
<path d="M472.378 181.224V171.133C472.379 170.129 472.777 169.167 473.486 168.458C474.194 167.749 475.155 167.35 476.157 167.348H499.668C500.67 167.35 501.63 167.749 502.339 168.458C503.047 169.167 503.445 170.129 503.447 171.133V181.224C503.445 182.227 503.047 183.189 502.339 183.899C501.63 184.608 500.67 185.007 499.668 185.008H476.157C475.155 185.007 474.194 184.608 473.486 183.899C472.777 183.189 472.379 182.227 472.378 181.224Z" fill="#F2F2F2"/>
<path d="M320.763 305.684H0.839695C0.616994 305.684 0.403426 305.596 0.245953 305.438C0.0884798 305.28 0 305.066 0 304.843C0 304.62 0.0884798 304.406 0.245953 304.249C0.403426 304.091 0.616994 304.002 0.839695 304.002H320.763C320.986 304.002 321.2 304.091 321.357 304.249C321.515 304.406 321.603 304.62 321.603 304.843C321.603 305.066 321.515 305.28 321.357 305.438C321.2 305.596 320.986 305.684 320.763 305.684Z" fill="#3F3D56"/>
<path d="M167.149 195.52C179.67 195.52 189.821 185.355 189.821 172.815C189.821 160.275 179.67 150.109 167.149 150.109C154.628 150.109 144.477 160.275 144.477 172.815C144.477 185.355 154.628 195.52 167.149 195.52Z" fill="#2F2E41"/>
<path d="M145.607 318.573L145.007 308.281L184.36 301.062L185.247 316.252L145.607 318.573Z" fill="#FFB8B8"/>
<path d="M147.514 300.757L148.672 320.607L136.193 321.337L134.305 288.99C135.944 288.894 137.586 289.122 139.136 289.662C140.687 290.201 142.116 291.041 143.343 292.134C144.569 293.227 145.569 294.551 146.285 296.03C147 297.51 147.418 299.116 147.514 300.757Z" fill="#2F2E41"/>
<path d="M162.724 318.478L156.187 326.443L122.401 304.983L132.048 293.228L162.724 318.478Z" fill="#FFB8B8"/>
<path d="M149.245 330.262L161.852 314.901L171.509 322.85L150.965 347.882C149.697 346.838 148.646 345.555 147.873 344.104C147.101 342.654 146.621 341.065 146.461 339.429C146.301 337.792 146.465 336.141 146.943 334.568C147.421 332.995 148.203 331.532 149.245 330.262V330.262Z" fill="#2F2E41"/>
<path d="M143.912 281.44L139.445 302.53C139.343 303.015 139.348 303.518 139.462 304.001C139.576 304.484 139.795 304.936 140.104 305.324C140.413 305.712 140.804 306.027 141.249 306.246C141.694 306.465 142.181 306.583 142.677 306.591L186.591 307.3C187.086 307.308 187.577 307.207 188.028 307.003C188.479 306.798 188.88 306.497 189.201 306.12C189.522 305.742 189.756 305.299 189.886 304.82C190.016 304.342 190.039 303.841 189.953 303.352L186.112 281.553C185.975 280.774 185.568 280.069 184.963 279.561C184.358 279.053 183.594 278.774 182.804 278.774H147.198C146.428 278.774 145.682 279.039 145.084 279.524C144.486 280.009 144.072 280.686 143.912 281.44V281.44Z" fill="#2F2E41"/>
<path d="M151.195 288.865C151.195 288.865 108.37 261.955 99.9733 276.251C95.7748 283.399 97.874 290.337 101.023 295.488C103.945 300.177 108.14 303.938 113.117 306.328L147.836 323.344L160.431 309.889L152.034 302.32L151.195 288.865Z" fill="#2F2E41"/>
<path d="M173.027 284.66C173.027 284.66 228.447 268.682 217.531 298.956C206.614 329.231 165.469 317.457 165.469 317.457L161.271 304.843L175.546 294.752L173.027 284.66Z" fill="#2F2E41"/>
<path d="M167.433 198.654C178.823 198.654 188.057 189.406 188.057 177.999C188.057 166.592 178.823 157.345 167.433 157.345C156.043 157.345 146.809 166.592 146.809 177.999C146.809 189.406 156.043 198.654 167.433 198.654Z" fill="#FFB8B8"/>
<path d="M168.514 287.998C159.944 287.868 151.418 286.743 143.107 284.646L142.861 284.578L131.353 231.561C130.318 226.902 131.022 222.025 133.332 217.85C135.642 213.676 139.399 210.493 143.892 208.903C157.772 203.915 172.9 203.613 186.968 208.041H186.968C191.689 209.565 195.662 212.815 198.095 217.143C200.529 221.47 201.243 226.558 200.097 231.39L187.242 284.534L187.061 284.62C181.719 287.155 175.039 287.998 168.514 287.998Z" fill="#CCCCCC"/>
<path d="M153.055 292.116C153.473 290.953 154.14 289.896 155.01 289.019C155.881 288.142 156.932 287.467 158.091 287.041C159.25 286.615 160.488 286.449 161.718 286.554C162.948 286.659 164.14 287.033 165.21 287.649L187.87 267.95L189.92 283.431L168.087 299.764C166.934 301.496 165.187 302.744 163.177 303.271C161.166 303.799 159.032 303.57 157.179 302.627C155.326 301.684 153.883 300.094 153.123 298.157C152.363 296.22 152.339 294.07 153.055 292.116V292.116Z" fill="#FFB8B8"/>
<path d="M174.667 296.413C174.298 296.413 173.931 296.359 173.578 296.253C173.005 296.086 172.48 295.784 172.047 295.372C171.614 294.96 171.286 294.45 171.091 293.885L168.355 286.124C168.099 285.407 168.067 284.628 168.262 283.892C168.457 283.156 168.871 282.497 169.449 282.001L200.324 263.438L188.153 209.062L188.462 208.987C188.588 208.956 201.058 206.113 206.168 219.76C209.746 229.317 222.988 250.099 222.054 264.142C221.877 266.951 220.759 269.618 218.882 271.713C217.004 273.807 214.477 275.207 211.707 275.686L176.954 295.627C176.299 296.136 175.495 296.412 174.667 296.413Z" fill="#CCCCCC"/>
<path d="M178.13 290.272C177.712 289.109 177.044 288.051 176.174 287.175C175.304 286.298 174.252 285.622 173.093 285.196C171.935 284.771 170.697 284.604 169.467 284.709C168.237 284.814 167.045 285.188 165.975 285.805L143.314 266.106L141.264 281.587L163.097 297.919C164.25 299.651 165.997 300.899 168.008 301.427C170.018 301.955 172.152 301.725 174.005 300.783C175.858 299.84 177.301 298.249 178.061 296.312C178.822 294.375 178.846 292.226 178.13 290.272V290.272Z" fill="#FFB8B8"/>
<path d="M158.791 296.413C157.963 296.412 157.159 296.136 156.504 295.627L119.231 277.368C116.462 276.889 113.935 275.489 112.057 273.395C110.18 271.3 109.062 268.633 108.885 265.824C107.951 251.781 123.712 229.317 127.29 219.76C132.4 206.113 144.869 208.955 144.996 208.987L145.305 209.062L130.615 265.12L164.009 282.001C164.587 282.497 165.001 283.156 165.196 283.892C165.391 284.629 165.359 285.407 165.102 286.124L162.367 293.885C162.172 294.45 161.844 294.96 161.411 295.372C160.978 295.784 160.453 296.086 159.88 296.253C159.527 296.359 159.16 296.413 158.791 296.413V296.413Z" fill="#CCCCCC"/>
<path d="M203.256 304.843H128.523C126.965 304.841 125.471 304.221 124.369 303.117C123.267 302.013 122.647 300.517 122.645 298.957V257.75C122.647 256.189 123.267 254.693 124.369 253.59C125.471 252.486 126.965 251.865 128.523 251.864H203.256C204.814 251.865 206.308 252.486 207.41 253.59C208.512 254.693 209.132 256.189 209.134 257.75V298.957C209.132 300.517 208.512 302.013 207.41 303.117C206.308 304.221 204.814 304.841 203.256 304.843V304.843Z" fill="#6C63FF"/>
<path d="M165.889 283.399C168.672 283.399 170.927 281.14 170.927 278.354C170.927 275.567 168.672 273.308 165.889 273.308C163.107 273.308 160.851 275.567 160.851 278.354C160.851 281.14 163.107 283.399 165.889 283.399Z" fill="white"/>
<path d="M146.603 177.159C145.38 174.054 147.386 170.353 150.361 168.849C153.336 167.345 156.926 167.631 160.108 168.623C162.783 169.456 165.289 170.747 167.898 171.766C170.47 172.908 173.28 173.409 176.088 173.227C178.871 172.912 181.64 171.349 182.779 168.787C183.96 166.131 183.157 162.889 181.339 160.622C179.405 158.431 176.902 156.819 174.108 155.968C167.972 153.803 160.884 153.739 155.187 156.886C149.491 160.033 145.62 166.734 146.797 173.142" fill="#2F2E41"/>
<path d="M27.4265 295.861C28.4639 284.671 31.3292 273.729 35.9079 263.47C37.184 260.615 38.5886 257.822 40.1216 255.093C40.1985 254.95 40.217 254.783 40.1733 254.627C40.1295 254.471 40.0269 254.338 39.8871 254.256C39.7473 254.174 39.5812 254.15 39.4238 254.188C39.2665 254.227 39.1302 254.325 39.0438 254.462C33.4688 264.403 29.5632 275.194 27.4831 286.403C26.9044 289.534 26.4695 292.686 26.1783 295.861C26.1043 296.661 27.353 296.656 27.4265 295.861V295.861Z" fill="#E6E6E6"/>
<path d="M43.1447 257.098C47.5106 257.098 51.0499 253.553 51.0499 249.181C51.0499 244.808 47.5106 241.264 43.1447 241.264C38.7788 241.264 35.2395 244.808 35.2395 249.181C35.2395 253.553 38.7788 257.098 43.1447 257.098Z" fill="#6C63FF"/>
<path d="M28.2351 296.071C28.9082 288.812 30.767 281.713 33.7374 275.058C34.5653 273.205 35.4765 271.394 36.471 269.623C36.5209 269.531 36.5329 269.422 36.5045 269.321C36.4761 269.22 36.4095 269.133 36.3188 269.08C36.2282 269.027 36.1204 269.012 36.0184 269.036C35.9163 269.061 35.8279 269.125 35.7718 269.214C32.1551 275.663 29.6213 282.664 28.2718 289.936C27.8964 291.966 27.6143 294.012 27.4254 296.071C27.3774 296.59 28.1875 296.587 28.2352 296.071H28.2351Z" fill="#E6E6E6"/>
<path d="M38.4323 270.924C41.2647 270.924 43.5608 268.624 43.5608 265.788C43.5608 262.951 41.2647 260.652 38.4323 260.652C35.5999 260.652 33.3038 262.951 33.3038 265.788C33.3038 268.624 35.5999 270.924 38.4323 270.924Z" fill="#6C63FF"/>
<path d="M27.2131 295.586C23.2858 289.448 20.3916 282.706 18.6462 275.628C18.1615 273.658 17.7675 271.668 17.4642 269.659C17.4467 269.556 17.3897 269.463 17.3051 269.4C17.2205 269.338 17.1149 269.311 17.0108 269.325C16.9067 269.339 16.812 269.393 16.7469 269.475C16.6817 269.558 16.6511 269.663 16.6615 269.767C17.7705 277.08 20.072 284.161 23.474 290.726C24.4252 292.558 25.4588 294.345 26.5747 296.085C26.8558 296.524 27.4925 296.022 27.2131 295.586V295.586Z" fill="#E6E6E6"/>
<path d="M16.6551 270.563C19.4875 270.563 21.7836 268.264 21.7836 265.427C21.7836 262.591 19.4875 260.291 16.6551 260.291C13.8227 260.291 11.5266 262.591 11.5266 265.427C11.5266 268.264 13.8227 270.563 16.6551 270.563Z" fill="#6C63FF"/>
<path d="M11.469 300.13V290.039C11.4702 289.036 11.8686 288.074 12.577 287.364C13.2854 286.655 14.2458 286.256 15.2477 286.255H38.7591C39.7609 286.256 40.7214 286.655 41.4297 287.364C42.1381 288.074 42.5366 289.036 42.5377 290.039V300.13C42.5366 301.134 42.1381 302.095 41.4297 302.805C40.7214 303.514 39.7609 303.913 38.7591 303.915H15.2477C14.2458 303.913 13.2854 303.514 12.577 302.805C11.8686 302.095 11.4702 301.134 11.469 300.13V300.13Z" fill="#F2F2F2"/>
<path d="M264.007 311.908C264.007 317.439 259.53 319.953 254.008 319.953C248.485 319.953 244.008 317.439 244.008 311.908C244.008 306.377 246.23 299.923 254.008 302.149C261.785 298.811 264.007 306.377 264.007 311.908Z" fill="#FF6584"/>
<path d="M253.521 304.74C253.132 304.74 252.756 304.599 252.464 304.342C252.171 304.085 251.983 303.731 251.933 303.344C251.602 300.585 249.777 295.181 249.007 292.985L249.007 292.985C248.929 292.766 248.905 292.532 248.938 292.303C248.97 292.074 249.057 291.855 249.192 291.667C249.321 291.499 249.484 291.36 249.671 291.259C249.857 291.159 250.063 291.099 250.274 291.083C250.485 291.068 250.697 291.098 250.896 291.171C251.095 291.243 251.277 291.357 251.428 291.505C251.564 291.648 251.669 291.817 251.737 292.001C251.804 292.186 251.833 292.382 251.822 292.579C251.671 295.396 253.722 299.949 254.958 302.413C255.075 302.645 255.133 302.903 255.129 303.162C255.124 303.422 255.057 303.677 254.932 303.905C254.807 304.133 254.629 304.328 254.413 304.471C254.196 304.615 253.948 304.704 253.69 304.731C253.634 304.737 253.577 304.74 253.521 304.74V304.74Z" fill="#3F3D56"/>
<path d="M260.92 298.524C264.391 295.679 261.668 289.856 257.323 290.973C256.739 291.113 256.2 291.401 255.758 291.81C253.093 294.331 252.68 300.782 252.68 300.782C252.68 300.782 257.386 301.42 260.92 298.524Z" fill="#3F3D56"/>
</g>
<defs>
<clipPath id="clip0">
<rect width="550" height="347.883" fill="white"/>
</clipPath>
</defs>
</svg>

