<svg width="1168" height="772" viewBox="0 0 1168 772" fill="none" xmlns="http://www.w3.org/2000/svg">
<g clip-path="url(#clip0)">
<path opacity="0.1" d="M692.14 124.044C619.33 121.538 549.986 98.2774 483.758 72.8228C417.529 47.3682 351.954 19.1633 280.888 5.67884C235.179 -2.99532 182.912 -4.22017 146.08 20.0318C110.643 43.4153 99.1905 83.6683 93.0255 121.048C88.4018 149.187 85.6681 178.783 98.3692 205.118C107.178 223.401 122.827 238.768 133.649 256.283C171.291 317.214 144.685 392.353 103.882 451.847C84.7568 479.751 62.5495 506.408 47.7784 536.094C33.0072 565.78 26.1785 599.842 39.0934 630.151C51.9071 660.216 82.4281 682.753 115.48 698.62C182.631 730.845 261.729 740.076 338.926 745.298C509.722 756.868 681.441 751.857 852.687 746.846C916.069 744.987 979.721 743.105 1042.07 733.406C1076.7 728.017 1112.45 719.465 1137.58 698.888C1169.48 672.687 1177.39 628.314 1156.02 595.466C1120.15 540.359 1021.02 526.663 995.921 467.525C982.118 434.977 996.293 398.711 1016.34 368.524C1059.36 303.751 1131.46 246.941 1135.26 172.904C1137.87 122.062 1103.21 71.1415 1049.62 47.0787C993.435 21.858 915.541 25.0315 874.118 66.7765C831.414 109.713 756.422 126.249 692.14 124.044Z" fill="#6C63FF"/>
<path d="M504.818 725.433C503.693 721.403 502.568 717.327 500.318 713.82C498.231 710.846 495.753 708.161 492.949 705.836C484.793 698.509 474.78 691.071 463.969 692.919C460.625 693.651 457.395 694.82 454.362 696.393C452.787 697.117 451.2 697.841 449.58 698.453C445.02 700.34 439.98 700.776 435.158 699.7C432.683 699.043 430.377 697.863 427.936 697.128C426.776 696.784 425.591 696.53 424.392 696.371C426.751 695.326 429.039 694.132 431.243 692.797C443.37 685.448 453.045 672.164 451.695 657.955C451.234 653.178 449.58 648.602 447.938 644.092L443.618 632.267C441.75 627.145 439.816 621.923 436.407 617.669C432.616 612.926 427.216 609.708 421.636 607.313C409.654 602.158 396.56 600.343 383.633 598.584L382.733 598.461V460.243C382.733 457.88 381.785 455.614 380.097 453.944C378.41 452.273 376.12 451.335 373.734 451.335H356.746C355.996 446.791 355.246 442.256 354.496 437.728C352.359 424.8 350.142 411.638 344.124 400.002C340.186 392.386 333.92 385.115 325.471 383.623C323.811 383.474 322.179 383.1 320.623 382.509C318.148 381.307 316.798 378.634 314.896 376.663C309.991 371.575 302.015 371.497 295.445 368.869C289.64 366.586 284.893 362.288 279.605 358.981C274.318 355.674 267.748 353.324 261.898 355.473C261.898 355.897 261.819 356.32 261.774 356.732L258.017 355.017C253.967 353.157 249.838 351.253 246.587 348.202C242.413 344.305 240.186 339.138 238.453 333.649C238.273 333.081 238.104 332.535 237.924 331.923C245.115 324.662 249.983 315.463 251.919 305.477L252.831 308.406C253.036 309.064 253.276 309.711 253.551 310.343C254.016 311.567 254.79 312.652 255.801 313.495C256.089 313.718 256.407 313.902 256.746 314.04C257.056 314.162 257.381 314.244 257.713 314.285C258.18 314.342 258.654 314.308 259.108 314.185C259.869 313.952 260.567 313.553 261.151 313.017C261.735 312.481 262.19 311.822 262.483 311.089C262.662 310.652 262.794 310.196 262.877 309.731C262.92 309.451 262.947 309.168 262.956 308.885C262.956 308.796 262.956 308.706 262.956 308.617C262.956 308.528 262.956 308.228 262.956 308.038C262.956 307.849 262.956 307.838 262.956 307.727C262.956 307.615 262.956 307.359 262.899 307.17V306.88C262.899 306.658 262.832 306.435 262.787 306.223C262.742 306.012 262.787 306.101 262.787 306.045C262.731 305.767 262.663 305.477 262.607 305.199C262.607 305.132 262.607 305.054 262.607 304.987C262.607 304.921 262.506 304.531 262.449 304.297C262.393 304.063 262.371 303.996 262.337 303.84V303.774C262.224 303.328 262.123 302.894 262.022 302.449C261.204 298.584 260.995 294.618 261.403 290.69C262.076 284.926 263.151 279.215 264.621 273.598L264.857 272.585C264.947 272.195 265.037 271.805 265.116 271.404C265.296 270.603 265.476 269.801 265.644 268.988L266.049 266.939L266.353 265.113V264.879C266.985 260.741 267.117 256.543 266.747 252.375C266.229 246.551 264.407 241.039 260.413 236.652C257.589 233.545 253.866 231.251 251.244 227.989C248.792 224.938 247.408 221.174 244.866 218.179C237.846 209.883 219.823 203.492 208.765 202.378C196.097 201.109 175.634 204.316 165.419 211.721C161.639 214.449 159.051 218.402 156.419 222.143C151.581 229.102 146.091 236.051 138.34 239.959C135.415 241.429 132.063 242.542 130.117 245.103C128.959 246.839 128.209 248.81 127.923 250.871C126.432 258.122 125.656 265.498 125.605 272.896C125.605 273.821 125.605 274.745 125.605 275.68C125.628 278.454 126.226 281.194 127.36 283.731C127.54 284.109 127.743 284.477 127.957 284.844L128.092 285.078C129.452 287.003 130.656 289.032 131.692 291.147C131.949 291.739 132.135 292.359 132.243 292.995C132.436 294.626 132.329 296.278 131.928 297.872C131.928 298.117 131.827 298.362 131.782 298.607L131.68 299.086C131.68 299.253 131.68 299.42 131.59 299.576C131.5 300.055 131.422 300.533 131.354 301.001C131.183 302.289 131.268 303.598 131.602 304.854C131.756 305.554 132.058 306.213 132.488 306.789C132.919 307.365 133.468 307.844 134.099 308.194C134.74 308.498 135.422 308.708 136.124 308.818C136.833 308.94 137.553 309.018 138.25 309.174C139.147 309.377 140.013 309.695 140.826 310.121C141.605 310.49 142.335 310.953 142.998 311.501C143.326 311.796 143.637 312.109 143.931 312.437C144.526 313.11 145.06 313.833 145.529 314.597C145.769 314.99 145.994 315.391 146.204 315.799C147.01 317.411 147.654 319.097 148.128 320.832C148.42 321.868 148.668 322.915 148.881 323.961C148.983 324.429 149.073 324.897 149.151 325.353C149.23 325.81 149.309 326.277 149.376 326.734C149.683 326.717 149.986 326.657 150.276 326.556C151.93 325.966 152.853 324.062 153.37 322.213C153.46 321.901 153.539 321.601 153.606 321.3C153.865 320.187 154.135 318.962 154.394 317.793C158.828 327.113 165.979 334.908 174.925 340.174C175.24 341.098 175.544 342.011 175.814 342.947C177.287 347.991 177.996 353.269 175.442 357.678C173.62 360.807 170.56 362.733 167.14 364.07C166.647 363.419 166.013 362.886 165.284 362.511C162.325 361.041 158.77 362.823 156.284 365.016C151.784 369.047 148.116 374.826 142.199 376.151C140.061 376.641 137.699 376.541 135.922 377.832C134.746 378.927 133.761 380.206 133.008 381.618C131.724 383.443 129.997 384.92 127.986 385.912C125.975 386.905 123.744 387.381 121.499 387.297C119.44 387.197 116.999 386.729 115.593 388.221C114.547 389.335 114.468 391.094 113.343 392.152C111.835 393.622 109.36 392.909 107.257 392.82C103.252 392.653 99.528 395.214 97.2443 398.499C94.9606 401.784 93.8693 405.714 92.7443 409.634V409.701C92.4556 409.909 92.1813 410.136 91.9231 410.38C90.8323 411.53 89.9868 412.886 89.4368 414.366C80.339 434.869 74.9691 456.8 73.5745 479.15C73.5967 480.239 73.3495 481.317 72.8545 482.29C72.3511 482.926 71.7982 483.521 71.2007 484.071C70.6662 484.719 70.2685 485.467 70.0312 486.269C69.7939 487.072 69.722 487.914 69.8195 488.745C69.9171 489.575 70.1823 490.378 70.5992 491.106C71.0162 491.833 71.5765 492.47 72.247 492.979C72.5707 492.399 72.976 491.866 73.4507 491.398C73.327 491.91 73.2145 492.411 73.1357 492.868C72.6839 496.117 72.6423 499.408 73.012 502.667C74.077 518.137 75.1532 533.596 76.2407 549.044C76.5444 553.42 76.8482 557.785 77.2532 562.15C78.0407 570.598 79.1657 579.012 80.6282 587.393C80.6957 587.772 80.7744 588.161 80.8757 588.506C71.707 591.39 63.5508 596.602 60.1196 605.298C58.9271 608.305 58.3871 611.578 56.9246 614.462C55.3159 617.624 52.6721 620.152 50.9171 623.248C47.8909 628.57 47.7559 635.095 48.8584 641.064C50.9846 652.7 57.3408 663.1 65.7333 671.562C65.362 671.562 64.9795 671.562 64.6083 671.562C61.8664 671.863 59.2343 672.797 56.9246 674.29C39.1722 684.557 29.0248 706.582 32.726 726.692C33.4573 730.622 34.7285 734.609 37.3835 737.604C39.5903 739.985 42.4278 741.706 45.5734 742.57C47.5406 743.156 49.5662 743.529 51.6146 743.684C65.452 744.797 78.8507 738.45 92.7218 737.916C97.3169 737.843 101.912 738.055 106.48 738.55C113.163 739.1 119.857 739.449 126.562 739.597C137.463 739.853 143.594 736.98 150.546 728.919C152.255 726.914 153.682 724.689 154.788 722.305C160.705 721.971 167.241 721.458 171.966 721.08L172.034 721.726C172.292 723.953 172.686 726.514 174.486 727.917C175.499 728.608 176.65 729.075 177.861 729.286C189.224 732.048 200.721 734.854 212.421 734.854C217.911 734.744 223.391 734.328 228.835 733.607L249.388 731.257C255.378 732.008 261.288 733.283 267.051 735.065C272.99 737.058 278.537 740.02 284.342 742.37C297.842 747.781 312.354 749.719 326.731 751.612C329.184 751.935 331.996 752.157 333.808 750.498C336.148 748.271 335.371 744.552 334.708 741.434C334.438 740.154 334.235 738.873 334.078 737.582C343.779 740.113 353.272 743.374 362.472 747.336L364.081 748.037C364.554 750.465 366.815 752.402 368.986 755.019C369.699 756.123 370.533 757.147 371.472 758.07C372.546 758.76 373.767 759.195 375.039 759.339C390.216 762.138 405.714 762.832 421.084 761.399C424.23 760.975 427.411 760.867 430.579 761.077C432.907 761.39 435.202 761.901 437.442 762.602L450.458 766.299C460.054 769.016 469.875 771.766 479.831 771.154C481.85 771.028 483.855 770.741 485.828 770.296C493.703 768.492 501.038 764.139 504.818 757.135C510.161 747.614 507.698 735.9 504.818 725.433Z" fill="url(#paint0_linear)"/>
<path d="M140.646 723.262C138.273 717.917 136.023 711.771 138.396 706.426C139.946 703.278 142.608 700.802 145.878 699.467C149.114 698.161 152.524 697.328 156.003 696.995C166.92 695.577 177.967 695.428 188.92 696.549C189.719 702.807 188.031 709.154 186.58 715.2C185.264 720.768 184.51 721.592 178.705 721.881C174.947 722.082 141.535 725.233 140.646 723.262Z" fill="#FBBEBE"/>
<path d="M240.827 687.207C329.675 687.207 401.701 667.266 401.701 642.667C401.701 618.068 329.675 598.127 240.827 598.127C151.979 598.127 79.9532 618.068 79.9532 642.667C79.9532 667.266 151.979 687.207 240.827 687.207Z" fill="#464353"/>
<path opacity="0.1" d="M240.827 687.207C329.675 687.207 401.701 667.266 401.701 642.667C401.701 618.068 329.675 598.127 240.827 598.127C151.979 598.127 79.9532 618.068 79.9532 642.667C79.9532 667.266 151.979 687.207 240.827 687.207Z" fill="black"/>
<path d="M269.672 407.541C264.157 418.087 254.999 426.322 243.864 430.746C237.291 433.117 230.372 434.418 223.378 434.599C215.74 434.944 207.943 434.454 200.766 431.871C191.136 428.419 183.137 421.359 177.141 413.13C171.145 404.902 167.016 395.504 163.428 386.028C161.538 381.095 159.738 375.839 160.626 370.628C166.42 369.325 172.765 367.41 175.757 362.321C178.311 357.957 177.602 352.723 176.129 347.735C175.712 346.32 175.229 344.917 174.745 343.57C173.62 340.341 169.739 334.206 172.495 331.444C174.216 329.696 181.427 328.805 183.914 327.669C191.575 324.173 198.64 319.118 207.055 317.459C214.333 316.022 221.848 317.369 229.116 318.862C230.08 319 231.006 319.33 231.838 319.83C232.788 320.622 233.49 321.665 233.863 322.837C235.933 327.825 237.148 333.337 238.813 338.537C240.546 343.982 242.773 349.093 246.947 352.957C250.198 355.974 254.338 357.867 258.388 359.705L268.356 364.226C270.129 364.883 271.737 365.912 273.069 367.243C274.373 369.016 275.152 371.114 275.319 373.301C277.105 385.018 275.13 396.994 269.672 407.541Z" fill="#FBBEBE"/>
<path opacity="0.1" d="M238.768 338.537C230.831 346.717 220.375 352.057 209.041 353.722C197.707 355.386 186.135 353.281 176.14 347.735C175.724 346.32 175.24 344.917 174.756 343.57C173.631 340.341 169.75 334.206 172.506 331.444C174.227 329.696 181.439 328.805 183.925 327.669C191.586 324.173 198.651 319.118 207.066 317.459C214.345 316.022 221.86 317.369 229.127 318.862C230.091 319 231.017 319.33 231.85 319.83C232.799 320.622 233.501 321.665 233.874 322.837C235.888 327.825 237.103 333.337 238.768 338.537Z" fill="black"/>
<path d="M201.452 352.044C230.033 352.044 253.202 329.111 253.202 300.823C253.202 272.534 230.033 249.602 201.452 249.602C172.872 249.602 149.703 272.534 149.703 300.823C149.703 329.111 172.872 352.044 201.452 352.044Z" fill="#FBBEBE"/>
<path d="M359.12 467.057L354.867 441.558C352.719 428.764 350.502 415.725 344.495 404.2C340.546 396.651 334.28 389.457 325.831 387.965C324.167 387.818 322.532 387.444 320.971 386.852C318.496 385.671 317.146 383.021 315.245 381.062C310.34 376.029 302.353 375.951 295.783 373.39C289.978 371.163 285.23 366.876 279.943 363.602C274.655 360.328 268.074 358.034 262.224 360.128C261.279 370.094 260.278 380.282 256.003 389.357C253.221 395.265 249.139 400.483 244.057 404.629C238.976 408.774 233.022 411.744 226.631 413.319C220.241 414.894 213.576 415.036 207.123 413.734C200.67 412.432 194.593 409.718 189.336 405.792C179.312 398.321 172.889 386.796 169.896 374.737C169.165 371.797 168.332 368.423 165.599 367.076C162.64 365.606 159.085 367.388 156.599 369.548C152.099 373.546 148.42 379.269 142.503 380.616C140.365 381.106 138.003 381.006 136.225 382.286C135.044 383.366 134.055 384.634 133.3 386.039C132.005 387.85 130.275 389.313 128.266 390.297C126.257 391.281 124.032 391.754 121.792 391.673C119.733 391.573 117.292 391.105 115.885 392.586C114.839 393.7 114.76 395.437 113.635 396.472C112.117 397.931 109.653 397.218 107.538 397.141C103.533 396.974 99.8093 399.512 97.5143 402.708C95.2193 405.904 94.1393 409.857 93.0143 413.687C105.31 440.79 116.56 467.926 128.857 495.028C129.433 496.05 129.738 497.199 129.745 498.369C129.499 499.583 128.975 500.725 128.215 501.709C122.185 511.296 122.377 523.356 123.04 534.624C123.704 545.893 124.514 557.796 119.429 567.896C118.045 570.668 116.245 573.207 114.929 575.98C111.847 582.26 110.733 602.347 112.533 609.095H366.871C362.022 595.9 363.867 569.421 364.88 555.413C365.589 545.615 363.755 535.827 362.967 526.028C361.246 506.019 362.461 487.033 359.12 467.057Z" fill="#6C63FF"/>
<path d="M73.5295 496.231C73.0794 499.453 73.034 502.718 73.3945 505.952L76.6232 551.906C76.9269 556.237 77.2307 560.558 77.6357 564.878C78.4119 573.263 79.5707 581.581 81.0107 589.887C81.043 591.067 81.5469 592.185 82.4117 592.997C83.2765 593.809 84.4315 594.249 85.6231 594.219C99.8543 597.203 114.558 597.08 129.082 596.268C151.244 595.043 173.372 592.248 195.569 592.727C201.283 592.849 207.943 592.727 211.408 588.273C214.873 583.819 212.86 576.614 208.337 573.018C203.815 569.421 197.672 568.564 191.867 568.564C184.184 568.486 176.5 569.566 168.839 569.121C161.808 568.709 154.934 567.027 148.116 565.346L128.992 560.636C129.723 554.901 131.928 549.501 134.02 544.056C137.778 534.402 141.288 524.425 141.355 514.08C141.423 503.736 137.485 492.857 128.924 486.933C121.882 482.067 112.814 481.165 104.23 481.366C97.9868 481.544 87.1981 480.063 81.4944 482.479C76.9832 484.439 74.3732 491.855 73.5295 496.231Z" fill="#FBBEBE"/>
<path d="M372.136 601.301C375.882 599.886 380.011 600.399 384.027 600.933C396.953 602.681 410.071 604.474 422.052 609.585C427.677 611.968 433.032 615.153 436.834 619.84C440.209 624.061 442.178 629.227 444.045 634.316L448.365 646.03C450.008 650.484 451.673 655.027 452.134 659.759C453.484 673.778 443.798 686.995 431.614 694.278C419.431 701.56 405.087 704.154 391.115 706.871C377.142 709.588 363.114 712.595 349.197 715.779C342.707 717.447 336.121 718.729 329.476 719.621C314.581 721.291 299.012 718.83 284.859 723.708C279.234 725.656 273.71 728.551 267.872 729.899C263.993 730.706 260.072 731.297 256.127 731.669L229.341 734.698C223.894 735.419 218.41 735.835 212.916 735.945C201.216 735.945 189.707 733.206 178.345 730.466C177.137 730.257 175.987 729.798 174.97 729.119C173.17 727.716 172.776 725.233 172.517 722.984C171.37 713.029 170.365 703.063 169.502 693.086C169.232 689.846 169.03 686.339 170.819 683.61C173.069 680.27 177.456 679.223 181.461 678.577C198.444 675.828 215.647 674.646 232.851 675.048C239.387 668.578 250.164 668.545 258.726 665.026C261.875 663.595 264.923 661.954 267.849 660.116C283.164 651.272 300.277 645.92 317.945 644.449C321.405 644.344 324.842 643.859 328.194 643.001C334.82 640.963 340.861 635.418 347.667 636.777C348.511 634.472 349.096 631.387 351.042 629.806C352.01 628.993 353.202 628.448 354.091 627.579C355.97 625.697 356.139 622.735 355.857 620.108C355.576 617.48 354.946 614.785 355.632 612.224C355.918 611.254 356.338 610.329 356.881 609.474C360.256 603.706 365.352 600.744 372.136 601.301Z" fill="#464353"/>
<path opacity="0.05" d="M372.136 601.301C375.882 599.886 380.011 600.399 384.027 600.933C396.953 602.681 410.071 604.474 422.052 609.585C427.677 611.968 433.032 615.153 436.834 619.84C440.209 624.061 442.178 629.227 444.045 634.316L448.365 646.03C450.008 650.484 451.673 655.027 452.134 659.759C453.484 673.778 443.798 686.995 431.614 694.278C419.431 701.56 405.087 704.154 391.115 706.871C377.142 709.588 363.114 712.595 349.197 715.779C342.707 717.447 336.121 718.729 329.476 719.621C314.581 721.291 299.012 718.83 284.859 723.708C279.234 725.656 273.71 728.551 267.872 729.899C263.993 730.706 260.072 731.297 256.127 731.669L229.341 734.698C223.894 735.419 218.41 735.835 212.916 735.945C201.216 735.945 189.707 733.206 178.345 730.466C177.137 730.257 175.987 729.798 174.97 729.119C173.17 727.716 172.776 725.233 172.517 722.984C171.37 713.029 170.365 703.063 169.502 693.086C169.232 689.846 169.03 686.339 170.819 683.61C173.069 680.27 177.456 679.223 181.461 678.577C198.444 675.828 215.647 674.646 232.851 675.048C239.387 668.578 250.164 668.545 258.726 665.026C261.875 663.595 264.923 661.954 267.849 660.116C283.164 651.272 300.277 645.92 317.945 644.449C321.405 644.344 324.842 643.859 328.194 643.001C334.82 640.963 340.861 635.418 347.667 636.777C348.511 634.472 349.096 631.387 351.042 629.806C352.01 628.993 353.202 628.448 354.091 627.579C355.97 625.697 356.139 622.735 355.857 620.108C355.576 617.48 354.946 614.785 355.632 612.224C355.918 611.254 356.338 610.329 356.881 609.474C360.256 603.706 365.352 600.744 372.136 601.301Z" fill="black"/>
<path d="M150.996 730.144C144.033 738.127 137.901 740.978 127 740.722C120.295 740.566 113.598 740.221 106.908 739.686C102.335 739.197 97.7368 738.985 93.1381 739.052C79.2557 739.586 65.857 745.877 52.0084 744.775C49.9606 744.615 47.9356 744.242 45.9672 743.661C42.8255 742.805 39.9861 741.101 37.766 738.74C35.111 735.767 33.8397 731.825 33.1085 727.928C29.4073 707.952 39.5547 686.194 57.3183 676.028C59.636 674.546 62.2707 673.62 65.0133 673.322C67.7026 673.311 70.3611 673.889 72.7982 675.014L72.967 675.081C80.1839 678.02 86.7384 682.35 92.2493 687.82C93.0854 688.767 94.083 689.562 95.1968 690.169C96.3083 690.584 97.485 690.803 98.673 690.815L113.455 691.739C115.96 691.813 118.449 692.153 120.88 692.752C123.561 693.678 126.17 694.795 128.688 696.093C136.641 699.611 145.461 700.547 154.056 701.905C154.885 701.951 155.675 702.263 156.306 702.796C156.649 703.218 156.888 703.714 157.004 704.244C158.212 708.718 158.296 713.418 157.249 717.932C156.202 722.446 154.055 726.638 150.996 730.144Z" fill="#3F3D56"/>
<path opacity="0.1" d="M72.967 675.092C67.2317 680.513 62.2562 686.67 58.1733 693.398C51.6214 704.503 47.5047 716.848 46.0909 729.631C45.5548 734.295 45.5133 739.001 45.9672 743.673C42.8255 742.816 39.9861 741.112 37.766 738.751C35.111 735.778 33.8397 731.836 33.1085 727.939C29.4073 707.963 39.5547 686.205 57.3183 676.039C59.636 674.557 62.2707 673.631 65.0133 673.333C67.7026 673.322 70.3611 673.9 72.7982 675.025L72.967 675.092Z" fill="black"/>
<path d="M359.266 702.796C367.535 702.573 376.816 702.161 382.891 707.673C388.685 712.884 389.45 721.481 389.832 729.219L390.271 738.205C390.406 740.945 390.518 743.773 389.405 746.312C387.425 750.766 381.991 752.915 377.03 752.659C372.068 752.402 367.512 750.253 362.979 748.316C350.67 743.068 337.854 739.072 324.729 736.39C325.156 730.177 325.869 723.993 326.866 717.839C327.553 713.575 327.665 706.437 330.545 702.896C333.594 699.155 337.565 701.181 341.705 701.872C347.514 702.749 353.396 703.059 359.266 702.796Z" fill="#FBBEBE"/>
<path d="M140.748 612.502C140.748 613.616 138.981 612.502 138.824 611.311C137.586 602.303 130.364 594.876 121.949 591.268C113.534 587.66 103.949 587.471 94.8368 588.328C81.0557 589.62 65.587 594.842 60.5471 607.592C59.3546 610.576 58.8146 613.805 57.3521 616.667C55.7321 619.807 53.0884 622.312 51.3334 625.363C48.3071 630.641 48.1834 637.111 49.2746 643.079C52.2109 659.002 63.2133 672.62 76.5444 682.052C89.8756 691.483 105.457 697.117 120.993 702.195C162.074 715.605 204.222 725.569 246.992 731.981C253.922 733.016 260.919 733.974 267.557 736.179C273.497 738.15 279.054 741.1 284.859 743.416C298.359 748.784 312.883 750.699 327.271 752.581C329.724 752.892 332.536 753.115 334.347 751.467C336.687 749.318 335.911 745.577 335.247 742.492C332.805 730.765 334.854 718.557 340.996 708.241C343.404 704.232 346.531 700.124 346.081 695.48C345.541 690.069 340.096 686.238 334.674 685.37C329.251 684.501 323.739 685.782 318.294 686.483C316.415 686.728 314.368 686.884 312.725 685.938C311.916 685.397 311.182 684.753 310.543 684.022C306.792 680.441 301.991 678.127 296.829 677.413C291.668 676.699 286.41 677.621 281.81 680.047C279.797 681.161 276.748 678.678 274.655 677.742L250.997 667.142C223.817 654.971 196.502 642.745 167.747 635.04C165.453 634.593 163.273 633.696 161.335 632.401C159.906 631.287 158.883 629.773 157.566 628.537C154.698 625.853 150.704 624.784 147.261 622.88C143.819 620.976 139.96 616.322 140.748 612.502Z" fill="#464353"/>
<path d="M505.481 758.026C501.701 764.963 494.366 769.283 486.491 771.065C484.515 771.506 482.506 771.789 480.484 771.911C470.528 772.523 460.695 769.795 451.099 767.101L438.072 763.471C435.832 762.773 433.536 762.266 431.209 761.956C428.041 761.747 424.86 761.855 421.714 762.279C406.317 763.697 390.796 763.008 375.59 760.23C374.317 760.094 373.096 759.663 372.023 758.972C371.084 758.061 370.25 757.049 369.537 755.955C365.993 751.734 362.18 749.274 366.376 743.706C368.795 740.477 373.283 738.862 375.162 735.154C377.041 731.446 375.837 726.18 374.723 722.349C373.205 717.06 368.21 714.777 366.421 709.922C365.082 706.259 367.332 702.005 370.718 700.012C374.105 698.019 378.29 697.863 382.193 698.375C386.097 698.888 389.922 699.979 393.848 700.28C405.391 701.193 417.192 695.302 428.273 698.62C430.714 699.355 433.02 700.525 435.495 701.17C440.321 702.239 445.361 701.807 449.929 699.934C451.549 699.333 453.135 698.609 454.71 697.897C457.748 696.332 460.982 695.174 464.329 694.456C475.14 692.619 485.164 700.023 493.32 707.25C496.12 709.55 498.598 712.209 500.689 715.156C502.939 718.63 504.131 722.672 505.189 726.658C508.17 736.958 510.634 748.561 505.481 758.026Z" fill="#3F3D56"/>
<path opacity="0.1" d="M505.481 758.026C501.701 764.963 494.366 769.283 486.491 771.065C489.555 765.174 490.936 758.567 490.485 751.957C489.81 741.368 485.108 731.391 479.111 722.594C475.423 717.179 471.227 712.12 466.579 707.484C463.002 703.921 458.603 701.092 454.755 697.83C457.793 696.265 461.028 695.108 464.374 694.389C475.185 692.552 485.209 699.957 493.365 707.183C496.165 709.483 498.643 712.142 500.734 715.089C502.984 718.563 504.176 722.605 505.234 726.592C508.17 736.958 510.634 748.561 505.481 758.026Z" fill="black"/>
<path d="M92.3731 414.511C91.2772 415.647 90.4273 416.992 89.8756 418.464C80.7819 438.749 75.4105 460.475 74.0132 482.624C74.0376 483.704 73.7861 484.772 73.2819 485.731C72.7848 486.368 72.2313 486.96 71.6282 487.501C71.0805 488.143 70.6718 488.89 70.4274 489.696C70.183 490.501 70.108 491.347 70.2071 492.182C70.3062 493.017 70.5773 493.823 71.0036 494.55C71.43 495.277 72.0025 495.91 72.6857 496.409C74.5419 492.946 78.9857 491.821 82.9344 491.521C101.845 490.04 120.318 498.747 139.285 498.09C137.946 493.514 136.023 489.116 134.931 484.483C130.105 463.917 142.143 441.525 134.763 421.715C133.289 417.751 130.825 413.854 126.944 412.117C125.337 411.475 123.655 411.033 121.938 410.803C117.145 409.946 107.605 406.282 102.97 407.752C101.26 408.298 100.585 409.89 99.168 410.848C97.0193 412.217 94.1618 412.718 92.3731 414.511Z" fill="#6C63FF"/>
<path d="M374.172 455.043H141.231C136.28 455.043 132.265 459.016 132.265 463.917V604.285C132.265 609.186 136.28 613.159 141.231 613.159H374.172C379.124 613.159 383.138 609.186 383.138 604.285V463.917C383.138 459.016 379.124 455.043 374.172 455.043Z" fill="#3F3D56"/>
<path d="M257.139 540.782C260.867 540.782 263.889 537.791 263.889 534.101C263.889 530.411 260.867 527.42 257.139 527.42C253.411 527.42 250.389 530.411 250.389 534.101C250.389 537.791 253.411 540.782 257.139 540.782Z" fill="white"/>
<path d="M165.7 217.689C161.92 220.395 159.333 224.281 156.7 228.011C151.851 234.904 146.361 241.785 138.61 245.627C135.674 247.085 132.322 248.188 130.375 250.727C129.22 252.444 128.47 254.396 128.182 256.439C126.697 263.622 125.921 270.931 125.864 278.263C125.864 281.916 126.022 285.679 127.653 288.998C129.194 292.115 131.973 294.754 132.547 298.15C132.985 300.801 131.995 303.44 131.647 306.101C131.298 308.762 131.905 311.913 134.392 313.183C135.731 313.681 137.13 314.007 138.554 314.151C146.035 315.799 148.544 324.485 149.68 331.667C152.223 331.522 153.37 328.638 153.899 326.289L161.695 291.982C162.539 288.263 163.945 283.953 167.691 282.651C170.2 281.793 172.945 282.595 175.566 282.818C185.86 283.653 194.567 275.78 204.636 273.609C207.859 272.965 211.154 272.748 214.435 272.963C222.377 273.353 231.613 276.582 233.301 283.92C233.582 285.111 233.751 286.537 234.876 287.127C236.001 287.717 237.182 287.216 238.363 287.127C243.403 286.626 246.373 292.238 247.824 296.825L253.112 313.528C253.899 316.056 255.227 319.029 257.994 319.352C260.548 319.663 262.719 317.269 263.102 314.898C263.484 312.526 262.652 310.065 262.101 307.682C259.614 296.714 263.417 285.49 265.734 274.5C268.052 263.51 268.468 250.882 260.694 242.42C257.871 239.358 254.158 237.075 251.526 233.846C249.073 230.817 247.689 227.098 245.147 224.125C238.116 215.919 220.082 209.583 209.023 208.536C196.39 207.178 175.915 210.351 165.7 217.689Z" fill="#3F3D56"/>
<g opacity="0.1">
<path opacity="0.1" d="M258.039 311.557C255.272 311.223 253.944 308.217 253.157 305.733C251.394 300.159 249.632 294.591 247.869 289.031C246.418 284.432 243.448 278.82 238.408 279.332C237.227 279.455 235.956 279.911 234.921 279.332C233.886 278.753 233.627 277.317 233.346 276.125C231.658 268.776 222.422 265.558 214.48 265.169C211.199 264.955 207.905 265.169 204.681 265.803C194.612 268.03 185.905 275.825 175.611 275.012C172.956 274.8 170.211 273.999 167.736 274.856C163.945 276.148 162.584 280.424 161.74 284.187L153.944 318.483C153.415 320.844 152.268 323.728 149.725 323.861C148.6 316.69 146.08 308.005 138.599 306.357C137.177 306.202 135.779 305.877 134.436 305.388C133.458 304.859 132.692 304.014 132.265 302.994C132.063 304.03 131.826 305.065 131.691 306.101C131.354 308.751 131.95 311.913 134.436 313.183C135.776 313.681 137.175 314.007 138.599 314.151C146.08 315.799 148.589 324.485 149.725 331.667C152.268 331.522 153.415 328.638 153.944 326.289L161.74 291.982C162.584 288.263 163.99 283.953 167.736 282.651C170.245 281.793 172.99 282.595 175.611 282.818C185.905 283.653 194.612 275.78 204.681 273.609C207.904 272.965 211.199 272.748 214.48 272.963C222.422 273.353 231.658 276.582 233.346 283.92C233.627 285.111 233.796 286.537 234.921 287.127C236.046 287.717 237.227 287.216 238.408 287.127C243.448 286.626 246.418 292.238 247.869 296.825C249.624 302.4 251.387 307.968 253.157 313.528C253.944 316.056 255.272 319.029 258.039 319.351C260.593 319.663 262.764 317.269 263.147 314.897C263.32 312.902 263.09 310.892 262.472 308.985C262.07 309.798 261.436 310.475 260.647 310.933C259.859 311.39 258.952 311.607 258.039 311.557Z" fill="black"/>
<path opacity="0.1" d="M132.558 290.356C131.984 286.96 129.183 284.321 127.664 281.203C126.688 279.1 126.123 276.833 125.999 274.522C125.999 275.769 125.887 277.016 125.875 278.275C125.875 281.927 126.033 285.69 127.664 289.009C128.913 291.536 130.972 293.763 132.006 296.336C132.552 294.391 132.739 292.366 132.558 290.356Z" fill="black"/>
<path opacity="0.1" d="M265.779 266.661C263.732 276.37 260.537 286.258 261.527 295.99C262.168 288.808 264.283 281.582 265.779 274.455C267.027 269.044 267.467 263.48 267.084 257.942C266.84 260.873 266.404 263.785 265.779 266.661Z" fill="black"/>
</g>
<g opacity="0.8">
<path opacity="0.8" d="M371.292 323.46H1074.48" stroke="#3F3D56" stroke-width="3" stroke-miterlimit="10"/>
<path opacity="0.8" d="M433.763 323.449C433.763 323.449 467.389 328.07 449.974 292.36C432.559 256.65 497.224 263.409 497.224 263.409" stroke="#3F3D56" stroke-width="3" stroke-miterlimit="10"/>
<path opacity="0.8" d="M657.715 323.449C657.715 323.449 691.341 318.839 673.926 354.549C656.511 390.259 721.176 383.5 721.176 383.5" stroke="#3F3D56" stroke-width="3" stroke-miterlimit="10"/>
<path opacity="0.8" d="M980.171 323.449C980.171 323.449 946.534 318.839 963.96 354.549C981.386 390.259 916.711 383.5 916.711 383.5" stroke="#3F3D56" stroke-width="3" stroke-miterlimit="10"/>
<path opacity="0.8" d="M916.711 383.489H731.166" stroke="#3F3D56" stroke-width="3" stroke-miterlimit="10"/>
<path opacity="0.8" d="M371.292 343.782C382.631 343.782 391.823 334.684 391.823 323.46C391.823 312.237 382.631 303.139 371.292 303.139C359.953 303.139 350.761 312.237 350.761 323.46C350.761 334.684 359.953 343.782 371.292 343.782Z" fill="#6C63FF"/>
<path opacity="0.8" d="M497.573 283.441C508.912 283.441 518.104 274.343 518.104 263.12C518.104 251.897 508.912 242.798 497.573 242.798C486.234 242.798 477.041 251.897 477.041 263.12C477.041 274.343 486.234 283.441 497.573 283.441Z" fill="#3ACC6C"/>
<path opacity="0.8" d="M497.573 343.782C508.912 343.782 518.104 334.684 518.104 323.46C518.104 312.237 508.912 303.139 497.573 303.139C486.234 303.139 477.041 312.237 477.041 323.46C477.041 334.684 486.234 343.782 497.573 343.782Z" fill="#6C63FF"/>
<path opacity="0.8" d="M579.067 343.782C590.406 343.782 599.598 334.684 599.598 323.46C599.598 312.237 590.406 303.139 579.067 303.139C567.728 303.139 558.536 312.237 558.536 323.46C558.536 334.684 567.728 343.782 579.067 343.782Z" fill="#6C63FF"/>
<path opacity="0.8" d="M721.513 403.51C732.852 403.51 742.044 394.412 742.044 383.188C742.044 371.965 732.852 362.867 721.513 362.867C710.174 362.867 700.982 371.965 700.982 383.188C700.982 394.412 710.174 403.51 721.513 403.51Z" fill="#FF6584"/>
<path opacity="0.8" d="M829.153 403.51C840.492 403.51 849.684 394.412 849.684 383.188C849.684 371.965 840.492 362.867 829.153 362.867C817.814 362.867 808.621 371.965 808.621 383.188C808.621 394.412 817.814 403.51 829.153 403.51Z" fill="#FF6584"/>
<path opacity="0.8" d="M823.539 343.782C834.878 343.782 844.07 334.684 844.07 323.46C844.07 312.237 834.878 303.139 823.539 303.139C812.2 303.139 803.008 312.237 803.008 323.46C803.008 334.684 812.2 343.782 823.539 343.782Z" fill="#6C63FF"/>
<path opacity="0.8" d="M1069.28 343.782C1080.62 343.782 1089.81 334.684 1089.81 323.46C1089.81 312.237 1080.62 303.139 1069.28 303.139C1057.94 303.139 1048.75 312.237 1048.75 323.46C1048.75 334.684 1057.94 343.782 1069.28 343.782Z" fill="#6C63FF"/>
<path opacity="0.8" d="M968.753 343.782C980.092 343.782 989.284 334.684 989.284 323.46C989.284 312.237 980.092 303.139 968.753 303.139C957.414 303.139 948.222 312.237 948.222 323.46C948.222 334.684 957.414 343.782 968.753 343.782Z" fill="#6C63FF"/>
<path opacity="0.8" d="M405.683 136.582H336.8V183.571H405.683V136.582Z" fill="#6C63FF"/>
<path opacity="0.8" d="M532.267 136.582H463.384V183.571H532.267V136.582Z" fill="#3ACC6C"/>
<path opacity="0.8" d="M755.668 136.582H686.785V183.571H755.668V136.582Z" fill="#FF6584"/>
</g>
<g opacity="0.1">
<path opacity="0.1" d="M97.143 333.337C97.143 333.337 13.0274 298.329 2.00249 361.497C2.00249 361.497 -3.74622 371.341 4.25247 379.469C4.25247 379.469 5.97371 375.104 14.0961 379.614C16.9972 381.202 20.0789 382.443 23.2761 383.311C27.5939 384.49 32.1819 384.247 36.3485 382.62C36.3485 382.62 64.012 381.14 87.2768 345.318C87.2768 345.318 97.2555 339.216 97.7505 336.923L81.0781 338.036C81.0781 338.036 82.3606 350.117 75.4532 357.366C75.4532 357.366 81.5731 338.615 78.6369 338.092C78.0407 337.98 69.8282 339.049 69.8282 339.049C69.8282 339.049 71.9545 360.061 60.8283 370.929C60.8283 370.929 71.1557 349.561 66.667 339.428L54.3596 341.777C54.3596 341.777 57.7346 363.88 45.5622 376.73C45.5622 376.73 55.5746 354.015 51.7046 342.479L39.926 346.398C39.926 346.398 42.7609 368.011 32.5798 378.69C32.5798 378.69 41.4672 351.287 37.2822 347.512C37.2822 347.512 26.6848 351.765 24.4236 354.193C24.4236 354.193 26.0998 369.782 19.6311 375.405C19.6311 375.405 23.6023 356.476 21.6336 355.696C21.6336 355.696 9.32618 364.871 5.56871 372.788C5.56871 372.788 10.2487 360.696 20.0924 353.859C20.0924 353.859 11.8237 352.478 5.46747 355.897C5.46747 355.897 9.71994 347.868 23.0736 351.676C23.0736 351.676 32.9623 344.895 34.9422 344.995C34.9422 344.995 22.3086 339.428 13.1849 340.118C13.1849 340.118 22.9723 334.551 38.0247 343.848L49.7809 339.651C49.7809 339.651 33.4685 331.377 25.3011 331.411C25.3011 331.411 36.1685 327.246 52.8296 338.827L64.867 336.399C64.867 336.399 51.3671 328.215 42.2659 326.311C42.2659 326.311 53.1784 324.596 68.3432 335.831L76.5669 335.152C76.5669 335.152 66.6108 329.34 63.5958 327.925C60.5808 326.511 60.7158 325.598 60.7158 325.598C67.8705 326.811 74.5453 329.964 79.9982 334.707C79.9982 334.707 97.0755 334.373 97.143 333.337Z" fill="#6C63FF"/>
</g>
<g opacity="0.1">
<path opacity="0.1" d="M94.038 270.58C94.038 270.58 64.2483 202.356 21.3298 233.646C21.3298 233.646 12.2624 236.251 12.3299 245.56C12.3299 245.56 15.8624 243.934 18.1011 251.205C18.922 253.785 20.0552 256.256 21.4761 258.566C23.354 261.705 26.2186 264.149 29.6323 265.525C29.6323 265.525 46.9234 280.245 81.3819 272.084C81.3819 272.084 90.8318 274.077 92.4406 273.008L81.9106 264.244C81.9106 264.244 75.7119 272.15 67.4095 272.529C67.4095 272.529 81.8431 264.846 80.4031 262.875C80.1106 262.474 74.6094 258.488 74.6094 258.488C74.6094 258.488 63.787 272.161 50.9846 272.373C50.9846 272.373 69.4232 265.492 72.5845 256.951L63.922 251.384C63.922 251.384 52.9983 266.427 38.3735 267.206C38.3735 267.206 57.3971 259.356 61.7395 250.315L52.4809 246.005C52.4809 246.005 41.7259 260.481 29.5648 261.026C29.5648 261.026 50.6246 249.758 50.2984 245.159C50.2984 245.159 41.5572 241.707 38.7785 241.908C38.7785 241.908 30.8248 252.096 23.7261 251.807C23.7261 251.807 36.9897 242.798 36.2697 241.228C36.2697 241.228 23.6698 239.736 16.8861 242.342C16.8861 242.342 26.6285 237.799 36.4047 239.291C36.4047 239.291 32.2873 233.801 26.561 232.276C26.561 232.276 33.716 229.904 39.4535 239.681C39.4535 239.681 49.2184 241.24 50.3659 242.398C50.3659 242.398 46.0797 231.942 40.2409 227.232C40.2409 227.232 49.2409 229.459 52.8409 243.455L62.2458 247.587C62.2458 247.587 57.3183 233.467 52.4359 228.891C52.4359 228.891 61.2895 232.543 64.5295 248.823L73.0795 254.156C73.0795 254.156 69.772 241.685 65.4633 235.416C65.4633 235.416 72.9332 240.56 75.4644 255.782L80.7519 260.013C80.7519 260.013 78.1757 250.949 77.1969 248.411C76.2182 245.872 76.8257 245.404 76.8257 245.404C80.3794 250.179 82.5182 255.839 83.0019 261.75C83.0019 261.75 93.3968 271.148 94.038 270.58Z" fill="#6C63FF"/>
</g>
</g>
<defs>
<linearGradient id="paint0_linear" x1="270.077" y1="771.276" x2="270.077" y2="202.056" gradientUnits="userSpaceOnUse">
<stop stop-color="#808080" stop-opacity="0.25"/>
<stop offset="0.54" stop-color="#808080" stop-opacity="0.12"/>
<stop offset="1" stop-color="#808080" stop-opacity="0.1"/>
</linearGradient>
<clipPath id="clip0">
<rect width="1168" height="772" fill="white"/>
</clipPath>
</defs>
</svg>
