<svg width="550" height="420" viewBox="0 0 550 420" fill="none" xmlns="http://www.w3.org/2000/svg">
<path opacity="0.1" d="M178.366 417.462C216.211 417.462 246.89 412.72 246.89 406.869C246.89 401.019 216.211 396.277 178.366 396.277C140.521 396.277 109.841 401.019 109.841 406.869C109.841 412.72 140.521 417.462 178.366 417.462Z" fill="black"/>
<path d="M183.753 201.563H172.268V278.683H183.753V201.563Z" fill="#3F3D56"/>
<path d="M319.271 201.563H307.786V278.683H319.271V201.563Z" fill="#3F3D56"/>
<path d="M454.788 189.645H36.7507V207.172H454.788V189.645Z" fill="#E6E6E6"/>
<path d="M454.788 245.031H36.7507V262.558H454.788V245.031Z" fill="#E6E6E6"/>
<path d="M454.788 212.78H36.7507V223.297H454.788V212.78Z" fill="#E6E6E6"/>
<path d="M454.788 228.906H36.7507V239.422H454.788V228.906Z" fill="#E6E6E6"/>
<path d="M48.6181 186.49H35.6022V279.034H48.6181V186.49Z" fill="#3F3D56"/>
<path d="M454.788 186.139H441.773V278.683H454.788V186.139Z" fill="#3F3D56"/>
<path d="M13.016 303.221H0.000152588V399.27H13.016V303.221Z" fill="#3F3D56"/>
<path d="M55.8916 299.716H42.8758V350.895H55.8916V299.716Z" fill="#3F3D56"/>
<path d="M451.726 299.716H438.71V350.895H451.726V299.716Z" fill="#3F3D56"/>
<path d="M488.476 303.221H475.461V399.27H488.476V303.221Z" fill="#3F3D56"/>
<path d="M488.476 303.221H0.000152588V315.841H488.476V303.221Z" fill="#3F3D56"/>
<path d="M35.2193 275.177L0 303.221H488.476L454.788 275.177H35.2193Z" fill="#E6E6E6"/>
<path d="M137.287 162.525C139.454 161.113 141.846 160.014 144.379 159.269C160.437 153.797 177.262 150.444 194.351 149.308C209.21 148.343 225.314 149.489 236.92 158.04C238.725 159.253 240.203 160.829 241.238 162.647C242.698 165.532 242.256 168.885 241.783 172.036C241.677 173.258 241.341 174.454 240.789 175.57C239.227 178.293 235.382 179.247 232.042 178.92C228.703 178.594 225.569 177.3 222.275 176.7C220.236 176.375 218.174 176.182 216.105 176.125L195.445 175.101C182.598 174.464 169.581 173.837 156.979 176.212C153.099 176.85 149.35 178.033 145.865 179.719C142.987 181.198 141.048 183.322 138.377 180.589C133.685 175.787 131.088 166.961 137.287 162.525Z" fill="#2F2E41"/>
<path d="M169.302 170.892C169.302 170.892 197.091 159.485 207.632 172.647C218.172 185.808 201.882 180.544 201.882 180.544L183.676 185.808L163.553 182.299L169.302 170.892Z" fill="#F2F2F2"/>
<path d="M170.739 162.556C170.739 162.556 174.572 179.228 171.698 183.615C168.823 188.002 187.988 194.144 187.988 194.144L206.194 187.125C206.194 187.125 201.403 159.923 206.194 154.659L170.739 162.556Z" fill="#FFB9B9"/>
<path opacity="0.1" d="M170.739 162.556C170.739 162.556 174.572 179.228 171.698 183.615C168.823 188.002 187.988 194.144 187.988 194.144L206.194 187.125C206.194 187.125 201.403 159.923 206.194 154.659L170.739 162.556Z" fill="black"/>
<path d="M152.784 363.022C155.525 367.835 157.302 373.049 159.116 378.217C159.143 378.39 159.209 378.555 159.311 378.702C159.412 378.849 159.546 378.975 159.705 379.072C159.863 379.168 160.042 379.233 160.229 379.262C160.417 379.291 160.609 379.283 160.793 379.239L177.838 379.221C179.941 379.219 182.763 378.6 182.741 376.674C182.726 375.321 181.215 374.477 180.091 373.599C176.971 371.161 176.159 367.141 174.866 363.577C172.355 356.71 167.514 350.757 161.05 346.585C160.176 345.959 159.171 345.503 158.097 345.248C157.016 345.105 155.916 345.159 154.858 345.409C151.866 345.962 140.693 347.853 142.804 351.838C143.713 353.554 147.081 355.34 148.493 356.943C150.139 358.835 151.576 360.871 152.784 363.022Z" fill="#575A89"/>
<path d="M212.054 344.92C211.453 346.076 210.784 347.202 210.05 348.293C207.581 352.022 204.667 355.501 202.368 359.32C200.933 361.702 199.726 364.277 199.567 366.994C199.409 369.71 200.454 372.601 202.82 374.246C205.294 375.965 208.687 376.045 211.762 375.644C214.837 375.243 217.894 374.436 220.991 374.649C219.947 369.238 224.931 364.475 226.177 359.1C226.528 357.59 226.58 356.025 227.049 354.543C227.554 353.187 228.2 351.879 228.978 350.636C231.46 346.211 233.214 341.474 234.183 336.578C234.3 335.985 219.032 335.888 217.6 336.171C213.13 337.056 213.784 341.526 212.054 344.92Z" fill="#575A89"/>
<path d="M94.3717 259.909C90.0129 266.155 91.0172 274.432 94.0786 281.294C97.1399 288.156 102.012 294.222 105.347 300.976C107.473 305.282 108.964 309.847 111.358 314.033C114.323 319.217 118.651 323.786 120.64 329.347C121.908 332.892 122.199 336.777 124.253 339.998C125.495 341.72 126.912 343.33 128.486 344.806C132.91 349.448 136.232 354.881 138.24 360.761C140.118 355.64 145.739 352.282 151.514 351.175C157.288 350.067 163.271 350.819 169.112 351.575C165.853 346.953 162.563 342.271 160.621 337.065C158.742 332.03 158.188 326.673 156.923 321.479C154.328 310.829 148.784 301.007 143.296 291.321L171.504 289.272C176.108 288.848 180.737 288.691 185.363 288.801C192.643 289.116 199.776 290.75 207.018 291.505C214.26 292.261 221.921 292.063 228.375 288.961C216.034 305.175 209.607 324.547 210.012 344.307C212.771 342.35 215.972 340.983 219.382 340.305C222.792 339.627 226.324 339.656 229.72 340.39C233.116 341.124 236.29 342.544 239.009 344.546C241.728 346.549 243.924 349.082 245.436 351.962C256.49 338.129 255.176 318.873 263.936 303.724C265.737 300.609 267.944 297.708 269.888 294.666C273.733 288.649 276.521 282.126 279.294 275.634C281.744 269.895 284.212 263.51 281.862 257.736C280.886 255.546 279.465 253.545 277.674 251.84C272.621 246.737 265.586 242.963 258.065 242.806C246.52 242.565 236.983 250.401 226.856 255.482C214.927 261.467 201.011 263.846 187.443 262.967C173.532 262.065 160.246 257.895 146.992 254.223C140.362 252.301 133.623 250.709 126.805 249.454C121.122 248.478 115.709 249.56 110.108 250.89C104.01 252.339 97.8812 254.879 94.3717 259.909Z" fill="#2F2E41"/>
<path d="M214.819 145.884C214.812 152.864 211.782 159.556 206.392 164.491C201.002 169.427 193.694 172.202 186.071 172.208C184.358 172.21 182.649 172.069 180.964 171.787C175.584 170.897 170.593 168.621 166.575 165.226C162.558 161.83 159.681 157.456 158.283 152.617C156.884 147.777 157.022 142.673 158.679 137.902C160.337 133.132 163.446 128.893 167.641 125.683C171.836 122.474 176.944 120.426 182.365 119.78C187.787 119.135 193.297 119.918 198.249 122.038C203.201 124.159 207.39 127.529 210.325 131.752C213.26 135.976 214.819 140.878 214.819 145.884V145.884Z" fill="#FFB9B9"/>
<path d="M169.302 170.892C169.302 170.892 174.572 173.085 176.489 174.84C178.405 176.595 184.155 186.247 193.737 180.105C203.32 173.963 204.278 170.453 207.153 170.453C210.027 170.453 213.86 175.718 213.86 175.718L240.212 248.108C233.11 255.449 224.878 261.804 215.777 266.973C200.445 275.748 182.238 280.135 173.614 276.625C164.99 273.116 148.7 270.483 145.825 263.463C142.95 256.444 138.159 235.385 138.159 235.385L151.575 181.86L169.302 170.892Z" fill="#F2F2F2"/>
<path d="M165.602 244.105C167.691 239.973 167.995 235.296 168.172 230.745C168.453 226.238 168.323 221.718 167.782 217.23C166.933 211.361 164.845 205.706 163.527 199.91C162.371 194.826 161.81 189.644 161.851 184.452C161.871 182.082 162.058 179.588 163.468 177.601C164.452 176.215 165.99 175.141 166.605 173.587C167.81 170.54 164.832 167.349 161.569 166.094C157.686 164.601 153.249 164.701 149.164 165.638C145.08 166.575 141.27 168.298 137.496 170.009C134.77 171.245 131.986 172.519 129.872 174.521C126.898 177.34 125.59 181.266 124.534 185.064C123.689 188.104 122.937 191.274 123.58 194.356C124.625 199.359 129.08 203.123 131.454 207.73C134.212 213.079 134.026 219.313 132.929 225.143C131.832 230.973 129.885 236.673 129.285 242.563C128.685 248.453 129.606 254.784 133.636 259.408C135.278 261.292 139.733 265.757 142.74 265.252C145.101 264.855 148.526 260.094 150.428 258.585C155.925 254.226 162.446 250.348 165.602 244.105Z" fill="#2F2E41"/>
<path d="M215.807 168.03C215.891 172.924 213.535 177.576 210.765 181.761C207.994 185.947 204.74 189.906 202.698 194.429C200.161 200.091 199.643 206.343 201.218 212.291C201.804 214.317 202.51 216.312 203.332 218.268L208.583 231.455C209.289 233.528 210.314 235.499 211.627 237.308C212.814 238.694 214.207 239.92 215.765 240.953C219.753 243.902 224.342 246.094 229.265 247.402C234.205 248.597 239.61 248.522 244.277 246.618C244.783 228.741 247.919 211.008 253.602 193.899C254.651 190.74 255.798 187.415 254.989 184.198C254.082 180.594 250.921 177.889 247.916 175.418C238.727 167.862 228.622 159.925 216.321 158.906C209.202 158.317 215.747 164.492 215.807 168.03Z" fill="#2F2E41"/>
<path d="M152.923 270.047C153.652 271.353 154.105 272.776 154.826 274.086C155.89 275.843 157.205 277.462 158.736 278.901C165.143 285.406 172.975 291.887 182.532 292.279C183.482 292.36 184.439 292.25 185.337 291.956C187.009 291.319 187.996 289.679 188.322 288.048C188.999 284.65 187.361 281.259 185.721 278.148C182.166 271.406 178.167 264.494 171.511 260.145C164.95 255.859 156.159 254.818 148.508 256.976C145.041 257.954 139.292 259.662 143.882 262.559C147.365 264.756 150.904 266.428 152.923 270.047Z" fill="#FFB9B9"/>
<path d="M194.236 184.213C193.066 181.819 191.842 179.355 189.739 177.574C187.752 176.035 185.4 174.944 182.87 174.387C179.592 173.529 176.202 173.084 172.793 173.064C168.735 173.041 164.029 174.038 162.306 177.403C160.937 180.074 161.998 183.238 163.376 185.906C163.965 187.288 164.945 188.501 166.217 189.42C167.967 190.502 170.23 190.468 172.305 190.831C175.558 191.399 178.469 192.996 181.303 194.564L188.411 198.499L200.62 205.257C200.298 205.078 200.413 197.412 200.038 196.155C198.83 192.108 196.111 188.046 194.236 184.213Z" fill="#FFB9B9"/>
<path d="M158.672 376.231C155.815 379.786 156.388 384.867 153.857 388.624C151.664 391.88 147.53 393.587 144.786 396.472C143.91 397.431 143.13 398.459 142.454 399.544C139.909 403.448 137.84 408.451 140.346 412.376C142.363 415.533 146.601 416.767 150.489 417.608C155.402 418.671 160.507 419.522 165.476 418.71C170.446 417.897 175.304 415.111 177.076 410.782C177.424 409.694 177.838 408.624 178.316 407.577C181.01 402.721 189.459 402.669 192.216 397.843C194.145 394.465 192.371 390.382 190.599 386.934L185.184 376.401C183.387 372.905 176.104 374.915 172.306 374.078C167.354 372.985 162.235 371.782 158.672 376.231Z" fill="#2F2E41"/>
<path d="M200.551 367.182C198.253 368.657 196.768 370.97 195.652 373.328C192.972 378.988 192.052 385.194 191.158 391.31C190.8 393.759 190.444 396.267 191.003 398.685C192.158 403.679 197.1 407.357 202.42 408.884C207.74 410.411 213.445 410.176 219.013 409.926C220.802 409.845 222.661 409.747 224.229 408.956C227.028 407.543 228.121 404.221 227.641 401.328C227.161 398.435 225.435 395.861 223.746 393.378C222.056 390.894 220.329 388.321 219.845 385.429C219.031 380.563 221.328 373.421 218.064 369.02C214.792 364.608 204.917 364.38 200.551 367.182Z" fill="#2F2E41"/>
<path d="M214.095 132.166C213.584 130.591 212.457 129.245 210.931 128.383C211.009 126.697 210.784 125.01 210.262 123.391C208.522 118.678 204.397 118.948 200.506 116.865C198.818 115.961 198.922 115.162 198.043 113.677C196.892 111.73 195.167 110.119 193.065 109.025C190.568 107.569 187.933 106.069 184.979 105.885C178.773 105.497 174.014 110.843 168.082 112.558C165.468 113.314 162.658 113.346 160.03 114.06C157.401 114.775 154.779 116.482 154.387 118.967C154.206 120.115 154.525 121.291 154.342 122.438C153.977 124.718 151.793 126.315 150.331 128.19C147.098 132.336 147.467 138.193 150.053 142.705C150.598 143.638 151.221 144.531 151.917 145.376C152.133 147.509 152.802 149.582 153.886 151.479C156.472 155.991 160.921 159.362 165.569 162.163C165.188 160.666 164.957 159.142 164.879 157.607C164.814 157.096 164.886 156.577 165.091 156.098C165.608 155.107 166.976 154.843 168.019 154.301C170.179 153.177 171.026 150.689 171.088 148.415C171.151 146.141 170.625 143.863 170.885 141.601C170.895 141.081 171.024 140.568 171.264 140.096C171.503 139.625 171.849 139.204 172.277 138.862C173.074 138.446 173.984 138.247 174.901 138.289C179.326 138.124 183.95 138.049 187.854 136.133C189.185 135.479 190.423 134.615 191.885 134.265C195.203 133.473 198.593 135.602 200.505 138.208C202.417 140.814 203.37 143.915 205.134 146.607C206.898 149.299 209.946 151.699 213.356 151.38C213.548 151.381 213.738 151.344 213.914 151.273C214.089 151.201 214.246 151.096 214.375 150.966C214.522 150.724 214.587 150.447 214.562 150.171L214.753 138.233C214.911 136.191 214.689 134.139 214.095 132.166Z" fill="#2F2E41"/>
<path d="M123.119 194.61C120.376 198.315 117.214 201.878 115.706 206.136C114.82 208.639 114.545 211.285 113.903 213.849C111.766 222.391 105.593 229.978 104.973 238.723C104.755 240.666 105.067 242.629 105.88 244.435C107.65 247.962 111.889 249.821 115.931 250.99C119.974 252.16 124.316 253.002 127.543 255.52C129.167 256.946 130.64 258.51 131.942 260.191C137.207 266.187 144.29 270.624 152.3 272.945C151.667 268.953 151.371 264.14 154.856 261.673C156.743 260.337 159.264 260.099 161.64 259.911L172.867 259.022C165.381 252.373 157.128 246.486 148.255 241.465C145.151 239.709 141.772 237.857 140.354 234.778C139.468 232.853 139.48 230.697 139.459 228.608C139.382 220.962 138.675 213.332 137.344 205.783C136.419 200.541 135.196 195.346 133.796 190.194C133.403 188.748 131.08 182.26 128.222 183.778C127.548 184.135 126.918 188.251 126.525 189.105C125.589 191.038 124.448 192.882 123.119 194.61V194.61Z" fill="#2F2E41"/>
<path d="M252.434 180.608L257.019 189.34C259.228 192.93 260.234 197.036 259.91 201.147L260.182 227.339C260.219 230.839 260.248 234.392 259.242 237.769C258.956 238.896 258.417 239.957 257.66 240.883C256.883 241.682 255.967 242.358 254.949 242.884C246.271 247.848 235.019 250.67 225.851 246.51C223.751 245.485 221.755 244.292 219.885 242.944C216.231 240.466 212.523 237.94 209.79 234.613C206.929 231.131 205.289 226.962 203.365 222.977C199.91 215.828 195.447 209.125 190.09 203.039C189.311 202.155 188.474 201.191 188.446 200.055C188.389 197.759 191.364 196.629 193.683 195.756C197.645 194.263 201.382 191.384 202.045 187.508C210.471 197.626 219.769 208.317 233.066 212.014C233.274 212.136 233.515 212.204 233.762 212.211C234.01 212.218 234.254 212.163 234.471 212.053C234.687 211.943 234.867 211.782 234.991 211.586C235.115 211.39 235.179 211.167 235.176 210.94C235.931 208.048 236.198 205.071 236.75 202.141C237.762 196.806 239.712 191.656 242.524 186.892C244.099 184.221 249.198 174.444 252.434 180.608Z" fill="#2F2E41"/>
<path opacity="0.1" d="M138.656 205.858C138.783 212.057 137.345 218.198 134.455 223.804C133.703 225.043 133.148 226.375 132.809 227.758C132.306 230.708 134.14 233.563 136.235 235.851C140.369 240.35 145.731 243.765 151.774 245.75" fill="black"/>
<path opacity="0.1" d="M238.22 200.634C237.544 202.298 238.158 204.138 238.678 205.847C240.187 210.806 240.891 215.941 240.769 221.088C240.791 221.178 240.788 221.271 240.76 221.36C240.733 221.449 240.681 221.53 240.611 221.596C240.541 221.662 240.454 221.711 240.357 221.738C240.261 221.765 240.159 221.77 240.06 221.753C237.848 221.877 235.316 221.89 233.816 220.397" fill="black"/>
<path d="M550 114.597H276.434V164.055H550V114.597Z" fill="#E6E6E6"/>
<path d="M306.028 154.42C314.938 154.42 322.162 147.806 322.162 139.647C322.162 131.488 314.938 124.874 306.028 124.874C297.118 124.874 289.895 131.488 289.895 139.647C289.895 147.806 297.118 154.42 306.028 154.42Z" fill="#CCCCCC"/>
<path d="M503.838 133.866H344.608V137.078H503.838V133.866Z" fill="#CCCCCC"/>
<path d="M522.45 57.8083H248.884V107.267H522.45V57.8083Z" fill="#E6E6E6"/>
<path d="M278.478 97.6319C287.389 97.6319 294.612 91.0177 294.612 82.8587C294.612 74.6997 287.389 68.0854 278.478 68.0854C269.568 68.0854 262.345 74.6997 262.345 82.8587C262.345 91.0177 269.568 97.6319 278.478 97.6319Z" fill="#CCCCCC"/>
<path d="M476.288 77.0778H317.058V80.2893H476.288V77.0778Z" fill="#CCCCCC"/>
<path d="M476.288 85.428H317.058V88.6395H476.288V85.428Z" fill="#CCCCCC"/>
<path d="M538.066 142.216H378.837V145.428H538.066V142.216Z" fill="#CCCCCC"/>
<path d="M496.57 0H223.004V49.4583H496.57V0Z" fill="#E6E6E6"/>
<path d="M252.598 39.1812C261.508 39.1812 268.731 32.5669 268.731 24.4079C268.731 16.2489 261.508 9.63464 252.598 9.63464C243.688 9.63464 236.465 16.2489 236.465 24.4079C236.465 32.5669 243.688 39.1812 252.598 39.1812Z" fill="#6C63FF"/>
<path d="M450.407 18.6271H291.178V21.8386H450.407V18.6271Z" fill="#6C63FF"/>
<path d="M450.407 26.9772H291.178V30.1887H450.407V26.9772Z" fill="#6C63FF"/>
<path d="M251.128 29.9933L245.349 22.9383L246.718 21.9988L251.426 27.7456L269.959 13.8606L271.042 15.0735L251.128 29.9933Z" fill="#F2F2F2"/>
</svg>
