<svg width="800" height="529" viewBox="0 0 800 529" fill="none" xmlns="http://www.w3.org/2000/svg">
<g clip-path="url(#clip0)">
<path opacity="0.1" d="M474.068 84.9615C424.199 83.2455 376.703 67.3133 331.341 49.8787C285.979 32.444 241.064 13.1256 192.389 3.88962C161.082 -2.05158 125.282 -2.89052 100.055 13.7205C75.7828 29.7365 67.9387 57.3071 63.7161 82.9099C60.5492 102.183 58.6768 122.454 67.3762 140.492C73.4096 153.015 84.1278 163.539 91.5404 175.536C117.323 217.27 99.0994 268.735 71.1519 309.484C58.0526 328.597 42.8422 346.855 32.7249 367.188C22.6077 387.521 17.9305 410.851 26.7763 431.611C35.5528 452.203 56.4576 467.639 79.0962 478.507C125.09 500.579 179.267 506.901 232.141 510.478C349.125 518.403 466.74 514.971 584.032 511.539C627.445 510.265 671.042 508.976 713.745 502.333C737.463 498.642 761.951 492.784 779.164 478.69C801.017 460.745 806.434 430.352 791.794 407.853C767.229 370.109 699.329 360.728 682.138 320.223C672.683 297.93 682.392 273.09 696.123 252.414C725.589 208.049 774.973 169.137 777.577 118.428C779.365 83.604 755.624 48.727 718.916 32.2457C680.435 14.9712 627.083 17.1448 598.711 45.7374C569.461 75.146 518.097 86.4716 474.068 84.9615Z" fill="#6C63FF"/>
<path d="M345.765 496.872C344.995 494.111 344.224 491.32 342.683 488.918C341.254 486.881 339.557 485.042 337.636 483.449C332.05 478.431 325.192 473.336 317.787 474.602C315.497 475.104 313.284 475.904 311.207 476.982C310.128 477.478 309.041 477.973 307.932 478.393C304.808 479.685 301.356 479.984 298.053 479.247C296.358 478.797 294.779 477.989 293.107 477.485C292.313 477.249 291.501 477.076 290.679 476.967C292.295 476.251 293.862 475.433 295.372 474.518C303.678 469.485 310.305 460.386 309.38 450.654C309.064 447.383 307.932 444.248 306.807 441.159L303.848 433.06C302.569 429.551 301.243 425.974 298.909 423.061C296.312 419.812 292.613 417.608 288.792 415.968C280.585 412.437 271.616 411.194 262.763 409.989L262.146 409.905V315.235C262.146 313.616 261.497 312.065 260.341 310.92C259.185 309.776 257.617 309.133 255.982 309.133H244.347C243.833 306.022 243.319 302.915 242.806 299.813C241.342 290.959 239.824 281.944 235.701 273.974C233.004 268.757 228.712 263.777 222.926 262.755C221.788 262.654 220.671 262.397 219.605 261.993C217.909 261.169 216.985 259.338 215.682 257.989C212.323 254.503 206.86 254.45 202.36 252.65C198.384 251.086 195.132 248.142 191.511 245.877C187.889 243.612 183.389 242.003 179.382 243.475C179.382 243.765 179.328 244.055 179.297 244.337L176.724 243.162C173.95 241.889 171.122 240.584 168.895 238.495C166.036 235.825 164.511 232.287 163.324 228.527C163.201 228.138 163.085 227.764 162.962 227.344C167.887 222.371 171.221 216.07 172.548 209.231L173.172 211.237C173.312 211.688 173.477 212.131 173.665 212.564C173.983 213.402 174.514 214.145 175.206 214.722C175.403 214.876 175.621 215.001 175.853 215.096C176.066 215.18 176.289 215.236 176.516 215.264C176.836 215.303 177.16 215.28 177.471 215.195C177.992 215.035 178.471 214.762 178.871 214.395C179.271 214.028 179.582 213.577 179.783 213.075C179.906 212.775 179.996 212.463 180.053 212.144C180.082 211.952 180.1 211.759 180.107 211.565C180.107 211.504 180.107 211.443 180.107 211.382C180.107 211.321 180.107 211.115 180.107 210.985C180.107 210.856 180.107 210.848 180.107 210.772C180.107 210.695 180.107 210.52 180.068 210.39V210.192C180.068 210.039 180.022 209.887 179.991 209.742C179.96 209.597 179.991 209.658 179.991 209.62C179.952 209.429 179.906 209.231 179.868 209.04C179.868 208.995 179.868 208.941 179.868 208.895C179.868 208.85 179.798 208.583 179.76 208.423C179.721 208.262 179.706 208.217 179.683 208.11V208.064C179.606 207.759 179.536 207.462 179.467 207.157C178.907 204.51 178.764 201.793 179.043 199.103C179.504 195.155 180.241 191.243 181.247 187.396L181.409 186.702C181.47 186.435 181.532 186.168 181.586 185.893C181.709 185.344 181.833 184.795 181.948 184.238L182.226 182.835L182.434 181.584V181.424C182.866 178.59 182.957 175.715 182.703 172.859V172.859C182.349 168.871 181.101 165.095 178.365 162.09C176.431 159.963 173.881 158.391 172.085 156.157C170.405 154.067 169.458 151.489 167.716 149.438C162.908 143.756 150.564 139.378 142.99 138.615C134.313 137.746 120.297 139.942 113.301 145.014C110.712 146.883 108.939 149.59 107.136 152.153C103.823 156.919 100.063 161.679 94.7536 164.356C92.7502 165.362 90.454 166.125 89.1209 167.879C88.3279 169.068 87.8144 170.418 87.6184 171.83C86.5975 176.796 86.0659 181.848 86.031 186.915V186.915C86.031 187.548 86.031 188.181 86.031 188.822C86.0468 190.722 86.4559 192.599 87.2331 194.336C87.3564 194.595 87.4951 194.847 87.6415 195.099L87.7339 195.259C88.6659 196.578 89.4904 197.967 90.1997 199.415C90.3764 199.821 90.5031 200.246 90.5772 200.682C90.7093 201.799 90.6362 202.93 90.3615 204.022V204.022C90.3615 204.19 90.2921 204.358 90.2613 204.525L90.192 204.853C90.192 204.968 90.192 205.082 90.1303 205.189C90.0687 205.517 90.0147 205.845 89.9685 206.165C89.8517 207.047 89.9093 207.944 90.138 208.804C90.2435 209.283 90.4506 209.735 90.7454 210.13C91.0403 210.524 91.4163 210.852 91.8486 211.092C92.2875 211.3 92.7548 211.444 93.2356 211.519C93.7211 211.603 94.2142 211.656 94.6919 211.763C95.3063 211.902 95.8995 212.12 96.4565 212.411C96.99 212.664 97.4896 212.982 97.9436 213.357C98.1682 213.559 98.3817 213.773 98.5832 213.998C98.9901 214.459 99.3562 214.954 99.6773 215.477C99.8417 215.747 99.9958 216.021 100.14 216.301C100.692 217.405 101.133 218.559 101.457 219.748C101.658 220.458 101.827 221.174 101.974 221.891C102.043 222.212 102.105 222.532 102.158 222.845C102.212 223.157 102.266 223.478 102.313 223.79C102.523 223.779 102.73 223.738 102.929 223.668C104.062 223.264 104.694 221.96 105.048 220.694C105.11 220.48 105.164 220.275 105.21 220.069C105.387 219.306 105.572 218.467 105.749 217.666C108.787 224.05 113.684 229.389 119.812 232.996C120.027 233.629 120.235 234.254 120.42 234.895C121.43 238.35 121.915 241.965 120.166 244.985C118.918 247.128 116.822 248.448 114.479 249.363C114.142 248.917 113.707 248.552 113.208 248.295C111.182 247.288 108.747 248.509 107.044 250.011C103.962 252.772 101.45 256.73 97.3965 257.638C95.9325 257.973 94.3144 257.905 93.0969 258.789C92.2917 259.539 91.6173 260.415 91.1012 261.382C90.2217 262.633 89.039 263.644 87.6617 264.323C86.2843 265.003 84.7565 265.329 83.2186 265.272C81.8085 265.203 80.1364 264.883 79.1732 265.905C78.4566 266.668 78.4027 267.873 77.6321 268.597C76.5996 269.604 74.9044 269.116 73.4635 269.055C70.7204 268.941 68.1699 270.695 66.6057 272.945C65.0415 275.194 64.2941 277.887 63.5235 280.571V280.617C63.3258 280.76 63.1379 280.915 62.961 281.082C62.2139 281.87 61.6348 282.799 61.2581 283.813C55.0267 297.855 51.3487 312.876 50.3935 328.185C50.4087 328.931 50.2394 329.669 49.9003 330.335C49.5556 330.771 49.1768 331.179 48.7676 331.556C48.4015 331.999 48.1291 332.511 47.9666 333.061C47.8041 333.611 47.7548 334.188 47.8216 334.757C47.8884 335.326 48.07 335.876 48.3556 336.374C48.6412 336.872 49.025 337.308 49.4842 337.657C49.706 337.259 49.9835 336.895 50.3087 336.574C50.2239 336.925 50.1469 337.268 50.093 337.581C49.7835 339.806 49.755 342.06 50.0082 344.292C50.7376 354.888 51.4748 365.477 52.2197 376.058C52.4277 379.055 52.6357 382.045 52.9131 385.034C53.4525 390.82 54.2231 396.584 55.2248 402.324C55.271 402.583 55.3249 402.85 55.3943 403.087C49.1144 405.062 43.5279 408.631 41.1778 414.588C40.361 416.647 39.9912 418.889 38.9895 420.865C37.8876 423.031 36.0768 424.762 34.8748 426.882C32.802 430.528 32.7095 434.997 33.4647 439.085C34.921 447.055 39.2746 454.178 45.0228 459.974C44.7685 459.974 44.5065 459.974 44.2523 459.974C42.3743 460.18 40.5715 460.82 38.9895 461.843C26.8303 468.875 19.88 483.96 22.4151 497.734C22.9159 500.426 23.7867 503.157 25.6051 505.208C27.1167 506.839 29.0602 508.018 31.2147 508.61C32.5621 509.011 33.9494 509.267 35.3525 509.372C44.8302 510.135 54.0073 505.788 63.5081 505.422C66.6554 505.372 69.8028 505.517 72.9318 505.857C77.5088 506.233 82.0936 506.472 86.686 506.573C94.1526 506.749 98.352 504.781 103.114 499.259C104.284 497.886 105.262 496.362 106.019 494.729C110.072 494.5 114.549 494.15 117.785 493.89L117.831 494.333C118.009 495.858 118.278 497.612 119.511 498.573C120.205 499.046 120.993 499.366 121.823 499.511C129.605 501.403 137.48 503.324 145.494 503.324C149.254 503.249 153.008 502.964 156.736 502.47L170.814 500.861C174.916 501.376 178.964 502.249 182.911 503.469C186.98 504.835 190.779 506.863 194.755 508.472C204.001 512.179 213.941 513.506 223.789 514.803C225.468 515.024 227.395 515.176 228.635 514.04C230.238 512.515 229.706 509.967 229.252 507.832C229.067 506.955 228.928 506.078 228.82 505.193C235.465 506.927 241.967 509.16 248.269 511.874L249.371 512.355C249.694 514.017 251.243 515.344 252.73 517.136C253.218 517.893 253.789 518.594 254.433 519.226C255.169 519.699 256.005 519.996 256.876 520.096C267.271 522.013 277.886 522.488 288.414 521.507C290.569 521.216 292.748 521.142 294.917 521.285C296.511 521.5 298.084 521.85 299.618 522.33L308.533 524.862C315.106 526.723 321.832 528.607 328.652 528.188C330.034 528.102 331.408 527.905 332.759 527.6C338.152 526.365 343.176 523.383 345.765 518.586C349.425 512.065 347.738 504.041 345.765 496.872Z" fill="url(#paint0_linear)"/>
<path d="M96.3332 495.385C94.7073 491.724 93.1663 487.514 94.7921 483.853C95.8534 481.698 97.6765 480.002 99.9162 479.087C102.133 478.192 104.469 477.622 106.851 477.394C114.329 476.423 121.895 476.321 129.397 477.089C129.944 481.375 128.788 485.722 127.794 489.863C126.893 493.677 126.377 494.241 122.401 494.439C119.827 494.577 96.9419 496.735 96.3332 495.385Z" fill="#FBBEBE"/>
<path d="M164.95 470.69C225.805 470.69 275.137 457.031 275.137 440.183C275.137 423.334 225.805 409.676 164.95 409.676C104.095 409.676 54.7624 423.334 54.7624 440.183C54.7624 457.031 104.095 470.69 164.95 470.69Z" fill="#464353"/>
<path opacity="0.1" d="M164.95 470.69C225.805 470.69 275.137 457.031 275.137 440.183C275.137 423.334 225.805 409.676 164.95 409.676C104.095 409.676 54.7624 423.334 54.7624 440.183C54.7624 457.031 104.095 470.69 164.95 470.69Z" fill="black"/>
<path d="M184.707 279.137C180.93 286.361 174.657 292.002 167.03 295.031C162.528 296.655 157.789 297.547 152.999 297.67C147.767 297.907 142.427 297.571 137.511 295.802C130.915 293.438 125.437 288.602 121.33 282.966C117.223 277.33 114.395 270.893 111.937 264.403C110.642 261.024 109.409 257.424 110.018 253.855C113.986 252.963 118.332 251.651 120.382 248.165C122.131 245.176 121.645 241.591 120.636 238.174C120.351 237.206 120.02 236.245 119.688 235.322C118.918 233.11 116.259 228.908 118.147 227.017C119.326 225.819 124.265 225.209 125.968 224.431C131.216 222.036 136.055 218.574 141.818 217.437C146.804 216.454 151.951 217.376 156.929 218.398C157.589 218.493 158.223 218.719 158.793 219.062C159.444 219.604 159.925 220.318 160.18 221.121C161.598 224.538 162.43 228.313 163.571 231.875C164.757 235.604 166.283 239.105 169.142 241.751C171.369 243.818 174.204 245.115 176.978 246.373L183.805 249.47C185.02 249.92 186.121 250.625 187.034 251.536C187.926 252.751 188.46 254.188 188.575 255.685C189.798 263.711 188.445 271.914 184.707 279.137V279.137Z" fill="#FBBEBE"/>
<path opacity="0.1" d="M163.54 231.875C158.103 237.477 150.942 241.135 143.179 242.275C135.416 243.415 127.49 241.973 120.644 238.174C120.359 237.206 120.027 236.245 119.696 235.322C118.925 233.11 116.267 228.908 118.155 227.017C119.334 225.819 124.273 225.209 125.976 224.431C131.223 222.036 136.062 218.574 141.826 217.437C146.811 216.454 151.959 217.376 156.936 218.398C157.597 218.493 158.231 218.719 158.801 219.062C159.451 219.604 159.932 220.318 160.188 221.121C161.567 224.538 162.399 228.313 163.54 231.875Z" fill="black"/>
<path d="M137.981 241.126C157.557 241.126 173.426 225.419 173.426 206.043C173.426 186.667 157.557 170.96 137.981 170.96C118.405 170.96 102.536 186.667 102.536 206.043C102.536 225.419 118.405 241.126 137.981 241.126Z" fill="#FBBEBE"/>
<path d="M245.972 319.902L243.06 302.437C241.588 293.674 240.07 284.743 235.955 276.849C233.251 271.679 228.959 266.752 223.172 265.73C222.032 265.629 220.912 265.372 219.843 264.967C218.148 264.159 217.224 262.343 215.921 261.001C212.562 257.554 207.091 257.5 202.591 255.746C198.615 254.221 195.363 251.285 191.742 249.042C188.12 246.8 183.613 245.229 179.606 246.663C178.958 253.489 178.273 260.467 175.345 266.683C173.439 270.73 170.643 274.303 167.163 277.143C163.682 279.982 159.604 282.016 155.227 283.095C150.85 284.174 146.285 284.271 141.865 283.379C137.445 282.487 133.283 280.629 129.682 277.94C122.817 272.823 118.417 264.929 116.367 256.669C115.866 254.656 115.296 252.345 113.424 251.422C111.397 250.415 108.962 251.636 107.259 253.115C104.177 255.853 101.658 259.773 97.6046 260.696C96.1405 261.032 94.5224 260.963 93.305 261.84C92.4958 262.579 91.8185 263.448 91.3015 264.41C90.4146 265.651 89.2296 266.653 87.8534 267.327C86.4772 268 84.9532 268.324 83.4189 268.269C82.0088 268.201 80.3367 267.88 79.3735 268.895C78.6569 269.657 78.603 270.847 77.8325 271.556C76.7922 272.556 75.1047 272.067 73.6561 272.014C70.913 271.9 68.3625 273.639 66.7906 275.827C65.2187 278.016 64.479 280.724 63.7084 283.347C72.1305 301.911 79.8359 320.497 88.2579 339.06C88.6525 339.76 88.8619 340.547 88.8666 341.348C88.6977 342.18 88.3393 342.963 87.8187 343.636C83.6886 350.203 83.8196 358.463 84.2742 366.181C84.7288 373.899 85.2836 382.052 81.8008 388.97C80.853 390.869 79.6201 392.608 78.7186 394.507C76.6073 398.808 75.8445 412.567 77.0773 417.188H251.282C247.96 408.151 249.224 390.015 249.918 380.42C250.403 373.709 249.147 367.005 248.608 360.293C247.429 346.588 248.261 333.584 245.972 319.902Z" fill="#6C63FF"/>
<path d="M50.3626 339.884C50.0544 342.091 50.0233 344.328 50.2702 346.542L52.4816 378.018C52.6897 380.984 52.8977 383.944 53.1751 386.903C53.7068 392.646 54.5004 398.343 55.4867 404.032C55.5089 404.84 55.8541 405.606 56.4464 406.163C57.0387 406.719 57.8298 407.02 58.646 406.999C68.3933 409.043 78.4643 408.959 88.412 408.402C103.592 407.564 118.748 405.649 133.951 405.977C137.865 406.061 142.427 405.977 144.8 402.926C147.174 399.876 145.794 394.941 142.697 392.478C139.599 390.014 135.392 389.427 131.416 389.427C126.153 389.374 120.89 390.114 115.643 389.809C110.827 389.526 106.119 388.375 101.45 387.223L88.3504 383.997C88.8512 380.069 90.3615 376.37 91.7947 372.641C94.3683 366.028 96.7724 359.195 96.8186 352.11C96.8648 345.025 94.168 337.573 88.3041 333.516C83.4805 330.183 77.27 329.565 71.3907 329.702C67.1142 329.825 59.7247 328.81 55.8181 330.465C52.7282 331.807 50.9405 336.887 50.3626 339.884Z" fill="#FBBEBE"/>
<path d="M254.888 411.85C257.454 410.881 260.281 411.232 263.032 411.598C271.886 412.795 280.87 414.023 289.077 417.524C292.929 419.156 296.597 421.337 299.202 424.548C301.513 427.439 302.862 430.978 304.141 434.463L307.1 442.486C308.225 445.537 309.365 448.649 309.681 451.89C310.606 461.492 303.971 470.545 295.626 475.533C287.281 480.521 277.457 482.298 267.887 484.159C258.317 486.019 248.708 488.079 239.176 490.26C234.731 491.402 230.22 492.28 225.669 492.891C215.467 494.035 204.802 492.35 195.109 495.69C191.256 497.025 187.473 499.008 183.474 499.931C180.817 500.484 178.132 500.889 175.429 501.143L157.083 503.218C153.352 503.712 149.596 503.997 145.833 504.072C137.819 504.072 129.937 502.196 122.154 500.32C121.327 500.176 120.539 499.861 119.842 499.397C118.61 498.436 118.34 496.735 118.163 495.194C117.377 488.376 116.688 481.55 116.098 474.717C115.913 472.497 115.774 470.095 116.999 468.226C118.54 465.938 121.545 465.221 124.288 464.779C135.92 462.896 147.704 462.086 159.487 462.361C163.964 457.93 171.345 457.907 177.209 455.497C179.366 454.517 181.454 453.393 183.458 452.134C193.948 446.077 205.669 442.411 217.771 441.403C220.14 441.332 222.495 440.999 224.79 440.412C229.329 439.016 233.467 435.218 238.128 436.148C238.706 434.57 239.107 432.457 240.44 431.374C241.103 430.817 241.919 430.444 242.528 429.849C243.815 428.56 243.931 426.531 243.738 424.731C243.545 422.931 243.114 421.086 243.584 419.332C243.779 418.667 244.067 418.033 244.439 417.448C246.751 413.497 250.241 411.468 254.888 411.85Z" fill="#464353"/>
<path opacity="0.05" d="M254.888 411.85C257.454 410.881 260.281 411.232 263.032 411.598C271.886 412.795 280.87 414.023 289.077 417.524C292.929 419.156 296.597 421.337 299.202 424.548C301.513 427.439 302.862 430.978 304.141 434.463L307.1 442.486C308.225 445.537 309.365 448.649 309.681 451.89C310.606 461.492 303.971 470.545 295.626 475.533C287.281 480.521 277.457 482.298 267.887 484.159C258.317 486.019 248.708 488.079 239.176 490.26C234.731 491.402 230.22 492.28 225.669 492.891C215.467 494.035 204.802 492.35 195.109 495.69C191.256 497.025 187.473 499.008 183.474 499.931C180.817 500.484 178.132 500.889 175.429 501.143L157.083 503.218C153.352 503.712 149.596 503.997 145.833 504.072C137.819 504.072 129.937 502.196 122.154 500.32C121.327 500.176 120.539 499.861 119.842 499.397C118.61 498.436 118.34 496.735 118.163 495.194C117.377 488.376 116.688 481.55 116.098 474.717C115.913 472.497 115.774 470.095 116.999 468.226C118.54 465.938 121.545 465.221 124.288 464.779C135.92 462.896 147.704 462.086 159.487 462.361C163.964 457.93 171.345 457.907 177.209 455.497C179.366 454.517 181.454 453.393 183.458 452.134C193.948 446.077 205.669 442.411 217.771 441.403C220.14 441.332 222.495 440.999 224.79 440.412C229.329 439.016 233.467 435.218 238.128 436.148C238.706 434.57 239.107 432.457 240.44 431.374C241.103 430.817 241.919 430.444 242.528 429.849C243.815 428.56 243.931 426.531 243.738 424.731C243.545 422.931 243.114 421.086 243.584 419.332C243.779 418.667 244.067 418.033 244.439 417.448C246.751 413.497 250.241 411.468 254.888 411.85Z" fill="black"/>
<path d="M103.422 500.098C98.6525 505.567 94.4531 507.519 86.9865 507.344C82.3941 507.237 77.8068 507.001 73.2246 506.634C70.0927 506.299 66.943 506.154 63.7932 506.2C54.2847 506.566 45.1075 510.875 35.6222 510.12C34.2196 510.011 32.8326 509.755 31.4844 509.357C29.3325 508.77 27.3878 507.603 25.8671 505.986C24.0486 503.95 23.1779 501.25 22.6771 498.581C20.142 484.898 27.0923 469.996 39.2591 463.033C40.8466 462.018 42.6512 461.383 44.5296 461.179C46.3716 461.172 48.1925 461.568 49.8618 462.339L49.9774 462.384C54.9205 464.397 59.4099 467.363 63.1845 471.109C63.7571 471.758 64.4404 472.303 65.2033 472.718C65.9646 473.003 66.7705 473.153 67.5843 473.161L77.7092 473.794C79.4246 473.845 81.1295 474.077 82.7948 474.488C84.6306 475.122 86.4177 475.887 88.1423 476.776C93.5901 479.186 99.6311 479.827 105.518 480.757C106.085 480.788 106.627 481.002 107.059 481.367C107.294 481.656 107.458 481.996 107.537 482.359C108.364 485.424 108.422 488.642 107.705 491.734C106.987 494.826 105.517 497.698 103.422 500.098V500.098Z" fill="#3F3D56"/>
<path opacity="0.1" d="M49.9774 462.392C46.0491 466.105 42.6413 470.322 39.8447 474.93C35.3571 482.536 32.5374 490.992 31.5691 499.748C31.2019 502.942 31.1735 506.165 31.4844 509.365C29.3325 508.778 27.3878 507.611 25.8671 505.994C24.0486 503.958 23.1779 501.258 22.6771 498.588C20.142 484.906 27.0923 470.003 39.2591 463.04C40.8466 462.025 42.6512 461.391 44.5296 461.187C46.3716 461.179 48.1925 461.575 49.8618 462.346L49.9774 462.392Z" fill="black"/>
<path d="M246.073 481.367C251.736 481.215 258.093 480.932 262.254 484.708C266.222 488.277 266.746 494.165 267.008 499.465L267.309 505.62C267.401 507.496 267.478 509.434 266.715 511.172C265.359 514.223 261.638 515.695 258.239 515.52C254.841 515.344 251.721 513.872 248.615 512.545C240.185 508.95 231.407 506.214 222.417 504.377C222.71 500.121 223.198 495.886 223.881 491.671C224.351 488.75 224.428 483.861 226.401 481.436C228.489 478.873 231.209 480.261 234.044 480.734C238.023 481.335 242.052 481.547 246.073 481.367V481.367Z" fill="#FBBEBE"/>
<path d="M96.4025 419.522C96.4025 420.285 95.1928 419.522 95.0849 418.706C94.2373 412.536 89.2904 407.449 83.5268 404.978C77.7631 402.507 71.1981 402.377 64.9567 402.965C55.5176 403.849 44.9226 407.426 41.4706 416.159C40.6538 418.203 40.2839 420.415 39.2822 422.375C38.1727 424.525 36.3619 426.241 35.1598 428.331C33.0871 431.946 33.0023 436.377 33.7498 440.465C35.7609 451.371 43.2968 460.699 52.4277 467.159C61.5586 473.618 72.2306 477.478 82.8718 480.955C111.009 490.141 139.878 496.965 169.173 501.357C173.919 502.066 178.712 502.722 183.258 504.232C187.326 505.582 191.133 507.603 195.109 509.189C204.355 512.865 214.303 514.177 224.158 515.466C225.838 515.68 227.765 515.832 229.005 514.703C230.608 513.232 230.076 510.669 229.622 508.556C227.949 500.524 229.352 492.163 233.559 485.097C235.208 482.351 237.35 479.537 237.042 476.356C236.672 472.65 232.943 470.026 229.229 469.431C225.515 468.836 221.739 469.714 218.009 470.194C216.723 470.362 215.32 470.469 214.195 469.82C213.641 469.45 213.138 469.009 212.7 468.509C210.131 466.055 206.843 464.471 203.308 463.981C199.772 463.492 196.171 464.124 193.021 465.786C191.642 466.549 189.553 464.848 188.12 464.207L171.916 456.946C153.299 448.61 134.591 440.236 114.896 434.959C113.324 434.653 111.831 434.038 110.503 433.151C109.525 432.388 108.824 431.351 107.922 430.505C105.957 428.667 103.222 427.934 100.864 426.63C98.5061 425.326 95.8632 422.138 96.4025 419.522Z" fill="#464353"/>
<path d="M346.22 519.196C343.631 523.947 338.607 526.906 333.213 528.127C331.86 528.429 330.484 528.623 329.099 528.706C322.279 529.126 315.545 527.257 308.972 525.411L300.049 522.925C298.515 522.447 296.943 522.1 295.349 521.888C293.179 521.744 291 521.819 288.845 522.109C278.3 523.08 267.669 522.608 257.253 520.706C256.382 520.613 255.545 520.317 254.811 519.844C254.167 519.22 253.596 518.526 253.108 517.777C250.68 514.887 248.068 513.201 250.942 509.388C252.599 507.176 255.674 506.07 256.96 503.53C258.247 500.991 257.423 497.383 256.66 494.76C255.62 491.137 252.198 489.574 250.973 486.248C250.056 483.739 251.597 480.826 253.917 479.461C256.236 478.095 259.102 477.989 261.776 478.339C264.45 478.69 267.07 479.438 269.759 479.644C277.665 480.269 285.748 476.234 293.338 478.507C295.01 479.011 296.589 479.811 298.285 480.254C301.589 480.985 305.042 480.69 308.171 479.407C309.28 478.995 310.367 478.5 311.445 478.011C313.526 476.939 315.741 476.147 318.034 475.655C325.438 474.396 332.304 479.468 337.89 484.418C339.808 485.993 341.505 487.814 342.938 489.833C344.479 492.212 345.295 494.981 346.02 497.711C348.062 504.766 349.749 512.713 346.22 519.196Z" fill="#3F3D56"/>
<path opacity="0.1" d="M346.22 519.196C343.631 523.947 338.607 526.906 333.213 528.127C335.311 524.092 336.257 519.567 335.949 515.039C335.486 507.786 332.265 500.953 328.158 494.927C325.632 491.219 322.758 487.753 319.575 484.578C317.124 482.137 314.112 480.2 311.476 477.966C313.557 476.894 315.772 476.101 318.064 475.609C325.469 474.351 332.335 479.422 337.921 484.372C339.839 485.947 341.536 487.768 342.968 489.787C344.509 492.167 345.326 494.935 346.05 497.665C348.062 504.766 349.749 512.713 346.22 519.196Z" fill="black"/>
<path d="M63.2692 283.912C62.5186 284.689 61.9365 285.611 61.5586 286.619C55.33 300.513 51.651 315.394 50.694 330.564C50.7107 331.304 50.5384 332.036 50.1931 332.692C49.8526 333.129 49.4735 333.535 49.0604 333.905C48.6853 334.345 48.4054 334.856 48.2379 335.408C48.0705 335.959 48.0192 336.539 48.087 337.111C48.1549 337.683 48.3406 338.235 48.6326 338.733C48.9246 339.231 49.3167 339.664 49.7847 340.006C51.0561 337.634 54.0998 336.864 56.8044 336.658C69.7572 335.644 82.4095 341.608 95.4008 341.158C94.4839 338.023 93.1663 335.011 92.4188 331.838C89.1132 317.751 97.358 302.414 92.3032 288.846C91.2938 286.131 89.6063 283.462 86.948 282.272C85.8473 281.832 84.6954 281.53 83.5191 281.372C80.2366 280.785 73.7024 278.276 70.5277 279.282C69.3565 279.656 68.8942 280.747 67.9233 281.403C66.4516 282.341 64.4944 282.684 63.2692 283.912Z" fill="#6C63FF"/>
<path d="M256.282 311.673H96.7339C93.3422 311.673 90.5927 314.394 90.5927 317.751V413.894C90.5927 417.251 93.3422 419.972 96.7339 419.972H256.282C259.674 419.972 262.424 417.251 262.424 413.894V317.751C262.424 314.394 259.674 311.673 256.282 311.673Z" fill="#3F3D56"/>
<path d="M176.123 370.399C178.676 370.399 180.746 368.35 180.746 365.823C180.746 363.295 178.676 361.247 176.123 361.247C173.569 361.247 171.5 363.295 171.5 365.823C171.5 368.35 173.569 370.399 176.123 370.399Z" fill="white"/>
<path d="M113.493 149.102C110.904 150.955 109.132 153.617 107.329 156.172C104.008 160.893 100.248 165.606 94.9385 168.238C92.9274 169.237 90.6312 169.992 89.2981 171.731C88.5069 172.907 87.9934 174.244 87.7956 175.643C86.7786 180.563 86.247 185.569 86.2083 190.591C86.2083 193.093 86.3161 195.671 87.4334 197.944C88.4891 200.079 90.3923 201.887 90.7853 204.213C91.0858 206.028 90.4077 207.835 90.1689 209.658C89.93 211.481 90.3461 213.639 92.049 214.509C92.9665 214.85 93.9248 215.073 94.9 215.172C100.024 216.301 101.742 222.25 102.521 227.169C104.262 227.07 105.048 225.095 105.41 223.485L110.75 199.987C111.328 197.44 112.291 194.489 114.857 193.596C116.575 193.009 118.455 193.558 120.251 193.711C127.301 194.283 133.265 188.891 140.162 187.403C142.369 186.962 144.626 186.814 146.873 186.961C152.313 187.228 158.639 189.44 159.795 194.466C159.988 195.282 160.103 196.258 160.874 196.662C161.644 197.066 162.453 196.723 163.262 196.662C166.714 196.319 168.749 200.163 169.743 203.305L173.364 214.745C173.904 216.476 174.813 218.513 176.708 218.734C178.458 218.947 179.945 217.308 180.207 215.683C180.469 214.059 179.898 212.373 179.521 210.741C177.818 203.229 180.422 195.541 182.01 188.014C183.597 180.486 183.882 171.837 178.558 166.041C176.624 163.944 174.081 162.38 172.278 160.168C170.598 158.094 169.65 155.547 167.909 153.51C163.093 147.889 150.741 143.55 143.167 142.833C134.514 141.903 120.49 144.076 113.493 149.102Z" fill="#3F3D56"/>
<g opacity="0.1">
<path opacity="0.1" d="M176.739 213.395C174.844 213.166 173.934 211.107 173.395 209.406C172.188 205.588 170.981 201.775 169.774 197.966C168.78 194.817 166.745 190.973 163.293 191.324C162.484 191.407 161.614 191.72 160.905 191.324C160.196 190.927 160.018 189.943 159.826 189.127C158.67 184.093 152.344 181.889 146.904 181.622C144.657 181.476 142.401 181.622 140.192 182.057C133.296 183.582 127.332 188.921 120.282 188.364C118.463 188.219 116.583 187.67 114.888 188.258C112.291 189.142 111.359 192.071 110.781 194.649L105.441 218.139C105.079 219.756 104.293 221.731 102.551 221.823C101.781 216.911 100.055 210.962 94.9308 209.834C93.9568 209.727 92.9995 209.504 92.0798 209.17C91.4094 208.808 90.8846 208.229 90.5926 207.53C90.454 208.24 90.2921 208.949 90.1997 209.658C89.9685 211.473 90.3769 213.639 92.0798 214.509C92.9973 214.85 93.9556 215.073 94.9308 215.172C100.055 216.301 101.773 222.25 102.551 227.169C104.293 227.07 105.079 225.095 105.441 223.485L110.781 199.987C111.359 197.44 112.322 194.489 114.888 193.596C116.606 193.009 118.486 193.558 120.282 193.711C127.332 194.283 133.296 188.891 140.192 187.403C142.4 186.962 144.657 186.814 146.904 186.961C152.344 187.228 158.67 189.44 159.826 194.466C160.018 195.282 160.134 196.258 160.905 196.662C161.675 197.066 162.484 196.723 163.293 196.662C166.745 196.319 168.78 200.163 169.774 203.305C170.976 207.124 172.183 210.937 173.395 214.745C173.934 216.476 174.844 218.513 176.739 218.734C178.488 218.947 179.976 217.308 180.238 215.683C180.356 214.316 180.199 212.94 179.775 211.633C179.5 212.19 179.066 212.654 178.526 212.968C177.986 213.281 177.364 213.43 176.739 213.395V213.395Z" fill="black"/>
<path opacity="0.1" d="M90.793 198.874C90.4 196.548 88.4814 194.74 87.4411 192.605C86.7723 191.164 86.3854 189.612 86.3007 188.029C86.3007 188.883 86.2237 189.737 86.216 190.599C86.216 193.101 86.3238 195.678 87.4411 197.951C88.2964 199.682 89.7065 201.208 90.4154 202.97C90.7892 201.638 90.9171 200.251 90.793 198.874V198.874Z" fill="black"/>
<path opacity="0.1" d="M182.041 182.644C180.638 189.295 178.45 196.067 179.128 202.733C179.567 197.814 181.016 192.864 182.041 187.983C182.895 184.276 183.197 180.466 182.934 176.673C182.767 178.68 182.469 180.675 182.041 182.644Z" fill="black"/>
</g>
<g opacity="0.8">
<path opacity="0.8" d="M254.31 221.548H735.945" stroke="#3F3D56" stroke-width="3" stroke-miterlimit="10"/>
<path opacity="0.8" d="M297.098 221.541C297.098 221.541 320.129 224.706 308.201 200.247C296.273 175.788 340.564 180.417 340.564 180.417" stroke="#3F3D56" stroke-width="3" stroke-miterlimit="10"/>
<path opacity="0.8" d="M450.49 221.541C450.49 221.541 473.521 218.383 461.593 242.842C449.665 267.301 493.956 262.671 493.956 262.671" stroke="#3F3D56" stroke-width="3" stroke-miterlimit="10"/>
<path opacity="0.8" d="M671.35 221.541C671.35 221.541 648.311 218.383 660.247 242.842C672.182 267.301 627.884 262.671 627.884 262.671" stroke="#3F3D56" stroke-width="3" stroke-miterlimit="10"/>
<path opacity="0.8" d="M627.884 262.664H500.798" stroke="#3F3D56" stroke-width="3" stroke-miterlimit="10"/>
<path opacity="0.8" d="M254.31 235.467C262.076 235.467 268.372 229.235 268.372 221.548C268.372 213.861 262.076 207.629 254.31 207.629C246.543 207.629 240.247 213.861 240.247 221.548C240.247 229.235 246.543 235.467 254.31 235.467Z" fill="#6C63FF"/>
<path opacity="0.8" d="M340.803 194.138C348.57 194.138 354.866 187.906 354.866 180.219C354.866 172.532 348.57 166.3 340.803 166.3C333.037 166.3 326.741 172.532 326.741 180.219C326.741 187.906 333.037 194.138 340.803 194.138Z" fill="#3ACC6C"/>
<path opacity="0.8" d="M340.803 235.467C348.57 235.467 354.866 229.235 354.866 221.548C354.866 213.861 348.57 207.629 340.803 207.629C333.037 207.629 326.741 213.861 326.741 221.548C326.741 229.235 333.037 235.467 340.803 235.467Z" fill="#6C63FF"/>
<path opacity="0.8" d="M396.621 235.467C404.388 235.467 410.684 229.235 410.684 221.548C410.684 213.861 404.388 207.629 396.621 207.629C388.855 207.629 382.559 213.861 382.559 221.548C382.559 229.235 388.855 235.467 396.621 235.467Z" fill="#6C63FF"/>
<path opacity="0.8" d="M494.187 276.377C501.954 276.377 508.25 270.145 508.25 262.458C508.25 254.771 501.954 248.539 494.187 248.539C486.421 248.539 480.125 254.771 480.125 262.458C480.125 270.145 486.421 276.377 494.187 276.377Z" fill="#FF6584"/>
<path opacity="0.8" d="M567.913 276.377C575.679 276.377 581.975 270.145 581.975 262.458C581.975 254.771 575.679 248.539 567.913 248.539C560.146 248.539 553.85 254.771 553.85 262.458C553.85 270.145 560.146 276.377 567.913 276.377Z" fill="#FF6584"/>
<path opacity="0.8" d="M564.068 235.467C571.834 235.467 578.13 229.235 578.13 221.548C578.13 213.861 571.834 207.629 564.068 207.629C556.301 207.629 550.005 213.861 550.005 221.548C550.005 229.235 556.301 235.467 564.068 235.467Z" fill="#6C63FF"/>
<path opacity="0.8" d="M732.385 235.467C740.151 235.467 746.447 229.235 746.447 221.548C746.447 213.861 740.151 207.629 732.385 207.629C724.618 207.629 718.323 213.861 718.323 221.548C718.323 229.235 724.618 235.467 732.385 235.467Z" fill="#6C63FF"/>
<path opacity="0.8" d="M663.529 235.467C671.296 235.467 677.592 229.235 677.592 221.548C677.592 213.861 671.296 207.629 663.529 207.629C655.763 207.629 649.467 213.861 649.467 221.548C649.467 229.235 655.763 235.467 663.529 235.467Z" fill="#6C63FF"/>
<path opacity="0.8" d="M277.865 93.5492H230.685V125.734H277.865V93.5492Z" fill="#6C63FF"/>
<path opacity="0.8" d="M364.567 93.5492H317.386V125.734H364.567V93.5492Z" fill="#3ACC6C"/>
<path opacity="0.8" d="M517.581 93.5492H470.401V125.734H517.581V93.5492Z" fill="#FF6584"/>
</g>
<g opacity="0.1">
<path opacity="0.1" d="M66.5363 228.313C66.5363 228.313 8.92288 204.335 1.37157 247.601C1.37157 247.601 -2.5659 254.343 2.91266 259.91C2.91266 259.91 4.09159 256.921 9.6549 260.01C11.642 261.097 13.7527 261.947 15.9425 262.542C18.8999 263.349 22.0424 263.183 24.8962 262.069V262.069C24.8962 262.069 43.8439 261.054 59.7787 236.519C59.7787 236.519 66.6134 232.34 66.9524 230.769L55.533 231.532C55.533 231.532 56.4114 239.807 51.6803 244.771C51.6803 244.771 55.872 231.928 53.8609 231.57C53.4525 231.493 47.8276 232.226 47.8276 232.226C47.8276 232.226 49.2839 246.617 41.6632 254.061C41.6632 254.061 48.7368 239.425 45.6623 232.485L37.2326 234.094C37.2326 234.094 39.5442 249.233 31.207 258.034C31.207 258.034 38.0648 242.476 35.4141 234.575L27.3465 237.259C27.3465 237.259 29.2883 252.063 22.3149 259.377C22.3149 259.377 28.4022 240.607 25.5358 238.022C25.5358 238.022 18.2773 240.935 16.7285 242.598C16.7285 242.598 17.8766 253.275 13.446 257.127C13.446 257.127 16.166 244.161 14.8175 243.627C14.8175 243.627 6.3878 249.912 3.81419 255.334C3.81419 255.334 7.01965 247.052 13.7619 242.369C13.7619 242.369 8.09841 241.423 3.74484 243.765C3.74484 243.765 6.65749 238.266 15.8038 240.874C15.8038 240.874 22.5769 236.23 23.933 236.298C23.933 236.298 15.2799 232.485 9.03076 232.958C9.03076 232.958 15.7345 229.144 26.0443 235.513L34.0965 232.637C34.0965 232.637 22.9236 226.971 17.3295 226.994C17.3295 226.994 24.7729 224.141 36.1847 232.073L44.4295 230.41C44.4295 230.41 35.183 224.805 28.9493 223.501C28.9493 223.501 36.4235 222.326 46.8104 230.021L52.4431 229.556C52.4431 229.556 45.6238 225.575 43.5588 224.607C41.4937 223.638 41.5862 223.013 41.5862 223.013C46.4867 223.843 51.0584 226.003 54.7933 229.251C54.7933 229.251 66.4901 229.022 66.5363 228.313Z" fill="#6C63FF"/>
</g>
<g opacity="0.1">
<path opacity="0.1" d="M64.4096 185.329C64.4096 185.329 44.0057 138.6 14.6095 160.031C14.6095 160.031 8.39891 161.816 8.44514 168.192C8.44514 168.192 10.8646 167.078 12.398 172.058C12.9603 173.825 13.7365 175.518 14.7097 177.1C15.9959 179.25 17.958 180.924 20.2961 181.866C20.2961 181.866 32.1393 191.949 55.741 186.359C55.741 186.359 62.2136 187.724 63.3155 186.992L56.1032 180.989C56.1032 180.989 51.8575 186.404 46.1709 186.664C46.1709 186.664 56.0569 181.401 55.0707 180.051C54.8703 179.777 51.1024 177.046 51.1024 177.046C51.1024 177.046 43.6897 186.412 34.921 186.557C34.921 186.557 47.5502 181.844 49.7154 175.994L43.7822 172.18C43.7822 172.18 36.3002 182.484 26.2832 183.018C26.2832 183.018 39.3131 177.641 42.2874 171.448L35.9458 168.497C35.9458 168.497 28.5794 178.412 20.2498 178.785C20.2498 178.785 34.6744 171.067 34.4509 167.917C34.4509 167.917 28.4638 165.553 26.5606 165.69C26.5606 165.69 21.1129 172.669 16.2507 172.47C16.2507 172.47 25.3354 166.3 24.8423 165.225C24.8423 165.225 16.2122 164.203 11.5658 165.988C11.5658 165.988 18.2387 162.876 24.9347 163.898C24.9347 163.898 22.1146 160.138 18.1925 159.093C18.1925 159.093 23.0932 157.469 27.0229 164.165C27.0229 164.165 33.7112 165.233 34.4972 166.026C34.4972 166.026 31.5614 158.864 27.5623 155.638C27.5623 155.638 33.7266 157.164 36.1924 166.75L42.6341 169.58C42.6341 169.58 39.2591 159.909 35.915 156.775C35.915 156.775 41.9791 159.276 44.1983 170.426L50.0544 174.08C50.0544 174.08 47.789 165.538 44.8379 161.244C44.8379 161.244 49.9543 164.767 51.688 175.193L55.3095 178.091C55.3095 178.091 53.545 171.883 52.8746 170.144C52.2042 168.405 52.6203 168.085 52.6203 168.085C55.0544 171.355 56.5193 175.232 56.8506 179.281C56.8506 179.281 63.9704 185.718 64.4096 185.329Z" fill="#6C63FF"/>
</g>
</g>
<defs>
<linearGradient id="paint0_linear" x1="184.984" y1="528.271" x2="184.984" y2="138.394" gradientUnits="userSpaceOnUse">
<stop stop-color="#808080" stop-opacity="0.25"/>
<stop offset="0.54" stop-color="#808080" stop-opacity="0.12"/>
<stop offset="1" stop-color="#808080" stop-opacity="0.1"/>
</linearGradient>
<clipPath id="clip0">
<rect width="800" height="528.767" fill="white"/>
</clipPath>
</defs>
</svg>
